<svg width="202" height="12" viewBox="0 0 202 12" fill="none" xmlns="http://www.w3.org/2000/svg">
<path d="M1.5 5C0.947715 5 0.5 5.44772 0.5 6C0.5 6.55228 0.947715 7 1.5 7L1.5 5ZM201.5 5.99998L191.5 0.226481L191.5 11.7735L201.5 5.99998ZM2.5 7C3.05228 7 3.5 6.55228 3.5 6C3.5 5.44772 3.05228 5 2.5 5L2.5 7ZM8.5 5C7.94772 5 7.5 5.44771 7.5 6C7.5 6.55228 7.94772 7 8.5 7L8.5 5ZM10.5 7C11.0523 7 11.5 6.55228 11.5 6C11.5 5.44771 11.0523 5 10.5 5L10.5 7ZM16.5 5C15.9477 5 15.5 5.44771 15.5 6C15.5 6.55228 15.9477 7 16.5 7L16.5 5ZM18.5 7C19.0523 7 19.5 6.55228 19.5 6C19.5 5.44771 19.0523 5 18.5 5L18.5 7ZM24.5 5C23.9477 5 23.5 5.44771 23.5 6C23.5 6.55228 23.9477 7 24.5 7L24.5 5ZM26.5 7C27.0523 7 27.5 6.55228 27.5 6C27.5 5.44771 27.0523 5 26.5 5L26.5 7ZM32.5 5C31.9477 5 31.5 5.44771 31.5 6C31.5 6.55228 31.9477 7 32.5 7L32.5 5ZM34.5 7C35.0523 7 35.5 6.55228 35.5 6C35.5 5.44771 35.0523 5 34.5 5L34.5 7ZM40.5 5C39.9477 5 39.5 5.44771 39.5 6C39.5 6.55228 39.9477 7 40.5 7L40.5 5ZM42.5 7C43.0523 7 43.5 6.55228 43.5 6C43.5 5.44771 43.0523 5 42.5 5L42.5 7ZM48.5 5C47.9477 5 47.5 5.44771 47.5 6C47.5 6.55228 47.9477 7 48.5 7L48.5 5ZM50.5 7C51.0523 7 51.5 6.55228 51.5 6C51.5 5.44771 51.0523 5 50.5 5L50.5 7ZM56.5 5C55.9477 5 55.5 5.44771 55.5 6C55.5 6.55228 55.9477 7 56.5 7L56.5 5ZM58.5 7C59.0523 6.99999 59.5 6.55228 59.5 5.99999C59.5 5.44771 59.0523 4.99999 58.5 5L58.5 7ZM64.5 4.99999C63.9477 4.99999 63.5 5.44771 63.5 5.99999C63.5 6.55228 63.9477 6.99999 64.5 6.99999L64.5 4.99999ZM66.5 6.99999C67.0523 6.99999 67.5 6.55228 67.5 5.99999C67.5 5.44771 67.0523 4.99999 66.5 4.99999L66.5 6.99999ZM72.5 4.99999C71.9477 4.99999 71.5 5.44771 71.5 5.99999C71.5 6.55228 71.9477 6.99999 72.5 6.99999L72.5 4.99999ZM74.5 6.99999C75.0523 6.99999 75.5 6.55228 75.5 5.99999C75.5 5.44771 75.0523 4.99999 74.5 4.99999L74.5 6.99999ZM80.5 4.99999C79.9477 4.99999 79.5 5.44771 79.5 5.99999C79.5 6.55228 79.9477 6.99999 80.5 6.99999L80.5 4.99999ZM82.5 6.99999C83.0523 6.99999 83.5 6.55228 83.5 5.99999C83.5 5.44771 83.0523 4.99999 82.5 4.99999L82.5 6.99999ZM88.5 4.99999C87.9477 4.99999 87.5 5.44771 87.5 5.99999C87.5 6.55228 87.9477 6.99999 88.5 6.99999L88.5 4.99999ZM90.5 6.99999C91.0523 6.99999 91.5 6.55228 91.5 5.99999C91.5 5.44771 91.0523 4.99999 90.5 4.99999L90.5 6.99999ZM96.5 4.99999C95.9477 4.99999 95.5 5.44771 95.5 5.99999C95.5 6.55228 95.9477 6.99999 96.5 6.99999L96.5 4.99999ZM98.5 6.99999C99.0523 6.99999 99.5 6.55228 99.5 5.99999C99.5 5.44771 99.0523 4.99999 98.5 4.99999L98.5 6.99999ZM104.5 4.99999C103.948 4.99999 103.5 5.44771 103.5 5.99999C103.5 6.55228 103.948 6.99999 104.5 6.99999L104.5 4.99999ZM106.5 6.99999C107.052 6.99999 107.5 6.55228 107.5 5.99999C107.5 5.44771 107.052 4.99999 106.5 4.99999L106.5 6.99999ZM112.5 4.99999C111.948 4.99999 111.5 5.44771 111.5 5.99999C111.5 6.55228 111.948 6.99999 112.5 6.99999L112.5 4.99999ZM114.5 6.99999C115.052 6.99999 115.5 6.55227 115.5 5.99999C115.5 5.44771 115.052 4.99999 114.5 4.99999L114.5 6.99999ZM120.5 4.99999C119.948 4.99999 119.5 5.4477 119.5 5.99999C119.5 6.55227 119.948 6.99999 120.5 6.99999L120.5 4.99999ZM122.5 6.99999C123.052 6.99999 123.5 6.55227 123.5 5.99999C123.5 5.4477 123.052 4.99999 122.5 4.99999L122.5 6.99999ZM128.5 4.99999C127.948 4.99999 127.5 5.4477 127.5 5.99999C127.5 6.55227 127.948 6.99999 128.5 6.99999L128.5 4.99999ZM130.5 6.99999C131.052 6.99999 131.5 6.55227 131.5 5.99999C131.5 5.4477 131.052 4.99999 130.5 4.99999L130.5 6.99999ZM136.5 4.99999C135.948 4.99999 135.5 5.4477 135.5 5.99999C135.5 6.55227 135.948 6.99999 136.5 6.99999L136.5 4.99999ZM138.5 6.99999C139.052 6.99999 139.5 6.55227 139.5 5.99999C139.5 5.4477 139.052 4.99999 138.5 4.99999L138.5 6.99999ZM144.5 4.99999C143.948 4.99999 143.5 5.4477 143.5 5.99999C143.5 6.55227 143.948 6.99999 144.5 6.99999L144.5 4.99999ZM146.5 6.99999C147.052 6.99999 147.5 6.55227 147.5 5.99999C147.5 5.4477 147.052 4.99999 146.5 4.99999L146.5 6.99999ZM152.5 4.99999C151.948 4.99999 151.5 5.4477 151.5 5.99999C151.5 6.55227 151.948 6.99999 152.5 6.99999L152.5 4.99999ZM154.5 6.99999C155.052 6.99999 155.5 6.55227 155.5 5.99999C155.5 5.4477 155.052 4.99999 154.5 4.99999L154.5 6.99999ZM160.5 4.99999C159.948 4.99999 159.5 5.4477 159.5 5.99999C159.5 6.55227 159.948 6.99999 160.5 6.99999L160.5 4.99999ZM162.5 6.99999C163.052 6.99999 163.5 6.55227 163.5 5.99999C163.5 5.4477 163.052 4.99999 162.5 4.99999L162.5 6.99999ZM168.5 4.99999C167.948 4.99999 167.5 5.4477 167.5 5.99999C167.5 6.55227 167.948 6.99999 168.5 6.99999L168.5 4.99999ZM170.5 6.99999C171.052 6.99999 171.5 6.55227 171.5 5.99999C171.5 5.4477 171.052 4.99999 170.5 4.99999L170.5 6.99999ZM176.5 4.99998C175.948 4.99998 175.5 5.4477 175.5 5.99998C175.5 6.55227 175.948 6.99998 176.5 6.99998L176.5 4.99998ZM178.5 6.99998C179.052 6.99998 179.5 6.55227 179.5 5.99998C179.5 5.4477 179.052 4.99998 178.5 4.99998L178.5 6.99998ZM184.5 4.99998C183.948 4.99998 183.5 5.4477 183.5 5.99998C183.5 6.55227 183.948 6.99998 184.5 6.99998L184.5 4.99998ZM186.5 6.99998C187.052 6.99998 187.5 6.55227 187.5 5.99998C187.5 5.4477 187.052 4.99998 186.5 4.99998L186.5 6.99998ZM192.5 4.99998C191.948 4.99998 191.5 5.4477 191.5 5.99998C191.5 6.55227 191.948 6.99998 192.5 6.99998L192.5 4.99998ZM194.5 6.99998C195.052 6.99998 195.5 6.55227 195.5 5.99998C195.5 5.4477 195.052 4.99998 194.5 4.99998L194.5 6.99998ZM200.5 4.99998C199.948 4.99998 199.5 5.4477 199.5 5.99998C199.5 6.55227 199.948 6.99998 200.5 6.99998L200.5 4.99998ZM1.5 7L2.5 7L2.5 5L1.5 5L1.5 7ZM8.5 7L10.5 7L10.5 5L8.5 5L8.5 7ZM16.5 7L18.5 7L18.5 5L16.5 5L16.5 7ZM24.5 7L26.5 7L26.5 5L24.5 5L24.5 7ZM32.5 7L34.5 7L34.5 5L32.5 5L32.5 7ZM40.5 7L42.5 7L42.5 5L40.5 5L40.5 7ZM48.5 7L50.5 7L50.5 5L48.5 5L48.5 7ZM56.5 7L58.5 7L58.5 5L56.5 5L56.5 7ZM64.5 6.99999L66.5 6.99999L66.5 4.99999L64.5 4.99999L64.5 6.99999ZM72.5 6.99999L74.5 6.99999L74.5 4.99999L72.5 4.99999L72.5 6.99999ZM80.5 6.99999L82.5 6.99999L82.5 4.99999L80.5 4.99999L80.5 6.99999ZM88.5 6.99999L90.5 6.99999L90.5 4.99999L88.5 4.99999L88.5 6.99999ZM96.5 6.99999L98.5 6.99999L98.5 4.99999L96.5 4.99999L96.5 6.99999ZM104.5 6.99999L106.5 6.99999L106.5 4.99999L104.5 4.99999L104.5 6.99999ZM112.5 6.99999L114.5 6.99999L114.5 4.99999L112.5 4.99999L112.5 6.99999ZM120.5 6.99999L122.5 6.99999L122.5 4.99999L120.5 4.99999L120.5 6.99999ZM128.5 6.99999L130.5 6.99999L130.5 4.99999L128.5 4.99999L128.5 6.99999ZM136.5 6.99999L138.5 6.99999L138.5 4.99999L136.5 4.99999L136.5 6.99999ZM144.5 6.99999L146.5 6.99999L146.5 4.99999L144.5 4.99999L144.5 6.99999ZM152.5 6.99999L154.5 6.99999L154.5 4.99999L152.5 4.99999L152.5 6.99999ZM160.5 6.99999L162.5 6.99999L162.5 4.99999L160.5 4.99999L160.5 6.99999ZM168.5 6.99999L170.5 6.99999L170.5 4.99999L168.5 4.99999L168.5 6.99999ZM176.5 6.99998L178.5 6.99998L178.5 4.99998L176.5 4.99998L176.5 6.99998ZM184.5 6.99998L186.5 6.99998L186.5 4.99998L184.5 4.99998L184.5 6.99998ZM192.5 6.99998L194.5 6.99998L194.5 4.99998L192.5 4.99998L192.5 6.99998Z" fill="#C84F36"/>
</svg>
