<svg width="500" height="1000" viewBox="0 0 500 1000" fill="none" xmlns="http://www.w3.org/2000/svg">
<mask id="path-1-inside-1_5493_65912" fill="white">
<path d="M1000 500C1000 776.142 776.142 1000 500 1000C223.858 1000 0 776.142 0 500C0 223.858 223.858 0 500 0C776.142 0 1000 223.858 1000 500ZM148.942 500C148.942 693.884 306.116 851.058 500 851.058C693.884 851.058 851.058 693.884 851.058 500C851.058 306.116 693.884 148.942 500 148.942C306.116 148.942 148.942 306.116 148.942 500Z"/>
</mask>
<path d="M1000 500C1000 776.142 776.142 1000 500 1000C223.858 1000 0 776.142 0 500C0 223.858 223.858 0 500 0C776.142 0 1000 223.858 1000 500ZM148.942 500C148.942 693.884 306.116 851.058 500 851.058C693.884 851.058 851.058 693.884 851.058 500C851.058 306.116 693.884 148.942 500 148.942C306.116 148.942 148.942 306.116 148.942 500Z" stroke="url(#paint0_linear_5493_65912)" stroke-opacity="0.25" stroke-width="120" mask="url(#path-1-inside-1_5493_65912)"/>
<defs>
<linearGradient id="paint0_linear_5493_65912" x1="500" y1="0" x2="500" y2="1000" gradientUnits="userSpaceOnUse">
<stop stop-color="#FC8169" stop-opacity="0.8"/>
<stop offset="0.46" stop-color="#FCEADD" stop-opacity="0.2"/>
<stop offset="0.87" stop-color="white"/>
</linearGradient>
</defs>
</svg>
