<svg width="100" height="100" viewBox="0 0 100 100" fill="none" xmlns="http://www.w3.org/2000/svg">
<circle cx="50" cy="50" r="50" fill="#FCE0D1"/>
<path d="M79.9043 71.3333H21.0952C19.3857 71.3333 18 69.9476 18 68.2381V31.0952C18 29.3857 19.3857 28 21.0952 28H79.9043C81.6138 28 82.9995 29.3857 82.9995 31.0952V68.2379C82.9995 69.9474 81.6138 71.3333 79.9043 71.3333Z" fill="#F5A07B"/>
<path d="M21.0952 71.3397H79.9043C81.6138 71.3397 82.9995 69.9539 82.9995 68.2445V31.1016L57.1315 51.1284C53.227 54.1512 47.7723 54.1512 43.8678 51.1284L18 31.1016V68.2443C18 69.9535 19.3857 71.3397 21.0952 71.3397Z" fill="#E6583D"/>
<path d="M82.9997 31.0943C82.9997 30.5055 82.8262 29.9608 82.5408 29.4922L56.1842 49.8976C52.8381 52.4879 48.162 52.4879 44.8159 49.8976L18.4589 29.4922C18.1735 29.9608 18 30.5055 18 31.0943V33.0511L39.4601 49.6656L18 66.2797V68.237C18 68.8256 18.1735 69.3702 18.4587 69.8387L41.9881 51.6226L42.9204 52.3446C45.1526 54.0727 47.8262 54.9365 50.4999 54.9365C53.1735 54.9365 55.8484 54.0719 58.0793 52.3446L59.0118 51.6226L82.5412 69.8388C82.8266 69.3704 82.9999 68.8258 82.9999 68.237V66.2797L61.54 49.6656L82.9997 33.0511V31.0943Z" fill="#FCE0D1"/>
</svg>
