<svg width="147" height="28" viewBox="0 0 147 28" fill="none" xmlns="http://www.w3.org/2000/svg">
<g clip-path="url(#clip0_4953_24412)">
<path d="M64.4445 14.334L54.4445 24.334H44.4445L54.4445 14.334L44.4445 4.33398H54.4445L64.4445 14.334ZM42.2222 14.334L32.2222 24.334H22.2222L32.2222 14.334L22.2222 4.33398H32.2222L42.2222 14.334ZM20 14.334L10 24.334H0L10 14.334L0 4.33398H10L20 14.334Z" fill="#3DC285"/>
<path d="M147 14.334L134.5 26.834H122L134.5 14.334L122 1.83398H134.5L147 14.334ZM119.222 14.334L106.722 26.834H94.2222L106.722 14.334L94.2222 1.83398H106.722L119.222 14.334ZM91.4445 14.334L78.9445 26.834H66.4445L78.9445 14.334L66.4445 1.83398H78.9445L91.4445 14.334Z" fill="#3DC285"/>
</g>
<defs>
<clipPath id="clip0_4953_24412">
<rect width="147" height="27" fill="white" transform="translate(0 0.833984)"/>
</clipPath>
</defs>
</svg>
