<svg width="73" height="72" viewBox="0 0 73 72" fill="none" xmlns="http://www.w3.org/2000/svg">
<circle cx="36.5" cy="36" r="36" fill="#E7C3BC"/>
<path d="M30.9167 34.7292L33.4584 37.2708L38.5417 32.1875" stroke="#C84F36" stroke-width="3" stroke-linecap="round" stroke-linejoin="round"/>
<path d="M24.5625 34.7292C24.5625 37.4255 25.6336 40.0115 27.5402 41.9181C29.4469 43.8247 32.0328 44.8958 34.7292 44.8958C37.4255 44.8958 40.0115 43.8247 41.9181 41.9181C43.8247 40.0115 44.8958 37.4255 44.8958 34.7292C44.8958 32.0328 43.8247 29.4469 41.9181 27.5402C40.0115 25.6336 37.4255 24.5625 34.7292 24.5625C32.0328 24.5625 29.4469 25.6336 27.5402 27.5402C25.6336 29.4469 24.5625 32.0328 24.5625 34.7292Z" stroke="#C84F36" stroke-width="3" stroke-linecap="round" stroke-linejoin="round"/>
<path d="M47.4375 47.4411L41.9729 41.9766" stroke="#C84F36" stroke-width="3" stroke-linecap="round" stroke-linejoin="round"/>
</svg>
