<svg width="19" height="23" viewBox="0 0 19 23" fill="none" xmlns="http://www.w3.org/2000/svg">
<path d="M15.5114 10.0974C15.5117 9.10844 15.268 8.13468 14.8019 7.26244C14.3359 6.3902 13.6618 5.64642 12.8395 5.09701C12.0172 4.54761 11.072 4.20955 10.0878 4.11282C9.10362 4.01608 8.11075 4.16364 7.19721 4.54243C6.28367 4.92122 5.4777 5.51954 4.85072 6.28434C4.22374 7.04914 3.79512 7.95681 3.60286 8.9269C3.4106 9.89698 3.46063 10.8995 3.74852 11.8456C4.03641 12.7918 4.55327 13.6522 5.25328 14.3508C5.79677 14.8813 6.23005 15.514 6.52821 16.2124C6.82637 16.9109 6.98353 17.6615 6.99066 18.4209V18.5746H12.0089V18.4203C12.0041 17.6762 12.149 16.9387 12.435 16.2518C12.7211 15.5648 13.1424 14.9425 13.6739 14.4217C14.2558 13.862 14.7186 13.1903 15.0343 12.4472C15.3501 11.7041 15.5124 10.9048 15.5114 10.0974Z" fill="#FBD62E"/>
<path d="M14.3469 9.80606C14.2671 9.80597 14.19 9.77682 14.1302 9.72406C14.0703 9.6713 14.0317 9.59853 14.0216 9.51937C13.9831 9.21592 13.914 8.91715 13.8153 8.62762C13.7872 8.54527 13.7929 8.45511 13.8312 8.37698C13.8695 8.29885 13.9373 8.23914 14.0197 8.21099C14.102 8.18285 14.1922 8.18857 14.2703 8.2269C14.3485 8.26522 14.4082 8.33302 14.4363 8.41537C14.5494 8.74701 14.6286 9.08926 14.6728 9.43687C14.6837 9.5232 14.6599 9.61033 14.6066 9.67911C14.5533 9.74789 14.4748 9.79267 14.3885 9.80362C14.3747 9.80535 14.3608 9.80617 14.3469 9.80606ZM10.9683 12.2747C10.7322 12.275 10.5058 12.3689 10.3389 12.5359C10.1719 12.7028 10.078 12.9292 10.0777 13.1653V13.3997H8.92175V13.1653C8.92175 12.9892 8.86952 12.817 8.77166 12.6705C8.67379 12.524 8.5347 12.4099 8.37196 12.3425C8.20922 12.2751 8.03014 12.2574 7.85738 12.2918C7.68461 12.3262 7.52592 12.411 7.40136 12.5355C7.27681 12.6601 7.19198 12.8188 7.15762 12.9916C7.12325 13.1643 7.14089 13.3434 7.2083 13.5061C7.27571 13.6689 7.38986 13.808 7.53632 13.9058C7.68279 14.0037 7.85498 14.0559 8.03113 14.0559H8.2655V19.1209C8.2655 19.2079 8.30007 19.2914 8.36161 19.3529C8.42314 19.4144 8.5066 19.449 8.59363 19.449C8.68065 19.449 8.76411 19.4144 8.82565 19.3529C8.88718 19.2914 8.92175 19.2079 8.92175 19.1209V14.0559H10.0777V19.1209C10.0777 19.2079 10.1123 19.2914 10.1738 19.3529C10.2353 19.4144 10.3188 19.449 10.4058 19.449C10.4928 19.449 10.5763 19.4144 10.6378 19.3529C10.6994 19.2914 10.7339 19.2079 10.7339 19.1209V14.0559H10.9683C11.2045 14.0559 11.4311 13.9621 11.5981 13.7951C11.7651 13.628 11.8589 13.4015 11.8589 13.1653C11.8589 12.9291 11.7651 12.7026 11.5981 12.5355C11.4311 12.3685 11.2045 12.2747 10.9683 12.2747ZM7.79675 13.1653C7.79675 13.1031 7.82145 13.0435 7.8654 12.9996C7.90935 12.9556 7.96897 12.9309 8.03113 12.9309C8.09329 12.9309 8.1529 12.9556 8.19686 12.9996C8.24081 13.0435 8.2655 13.1031 8.2655 13.1653V13.3997H8.03113C7.969 13.3996 7.90944 13.3749 7.86551 13.3309C7.82158 13.287 7.79685 13.2274 7.79675 13.1653ZM10.9683 13.3997H10.7339V13.1653C10.7339 13.119 10.7477 13.0736 10.7734 13.0351C10.7992 12.9966 10.8358 12.9665 10.8786 12.9488C10.9215 12.931 10.9686 12.9264 11.014 12.9354C11.0595 12.9445 11.1013 12.9668 11.134 12.9996C11.1668 13.0324 11.1891 13.0741 11.1982 13.1196C11.2072 13.165 11.2026 13.2122 11.1848 13.255C11.1671 13.2978 11.1371 13.3344 11.0985 13.3602C11.06 13.3859 11.0147 13.3997 10.9683 13.3997Z" fill="#FD9600"/>
<path d="M6.99011 21.0918H12.0084V21.4902C12.0084 21.7886 11.8898 22.0748 11.6789 22.2857C11.4679 22.4967 11.1817 22.6152 10.8834 22.6152H8.11511C7.81674 22.6152 7.5306 22.4967 7.31962 22.2857C7.10864 22.0748 6.99011 21.7886 6.99011 21.4902V21.0918Z" fill="#385B60"/>
<path d="M12.1604 20.4277H6.83972C6.52906 20.4277 6.27722 20.6796 6.27722 20.9902C6.27722 21.3009 6.52906 21.5527 6.83972 21.5527H12.1604C12.4711 21.5527 12.7229 21.3009 12.7229 20.9902C12.7229 20.6796 12.4711 20.4277 12.1604 20.4277Z" fill="#537980"/>
<path d="M12.1604 19.2949H6.83972C6.52906 19.2949 6.27722 19.5468 6.27722 19.8574C6.27722 20.1681 6.52906 20.4199 6.83972 20.4199H12.1604C12.4711 20.4199 12.7229 20.1681 12.7229 19.8574C12.7229 19.5468 12.4711 19.2949 12.1604 19.2949Z" fill="#385B60"/>
<path d="M12.1604 18.1621H6.83972C6.52906 18.1621 6.27722 18.4139 6.27722 18.7246C6.27722 19.0353 6.52906 19.2871 6.83972 19.2871H12.1604C12.4711 19.2871 12.7229 19.0353 12.7229 18.7246C12.7229 18.4139 12.4711 18.1621 12.1604 18.1621Z" fill="#537980"/>
<path d="M9.5 2.88086C9.41299 2.88081 9.32956 2.84622 9.26804 2.7847C9.20651 2.72317 9.17193 2.63974 9.17188 2.55273V1.05273C9.17188 0.96571 9.20645 0.88225 9.26798 0.820715C9.32952 0.75918 9.41298 0.724609 9.5 0.724609C9.58703 0.724609 9.67049 0.75918 9.73202 0.820715C9.79356 0.88225 9.82813 0.96571 9.82813 1.05273V2.55273C9.82808 2.63974 9.79349 2.72317 9.73197 2.7847C9.67044 2.84622 9.58701 2.88081 9.5 2.88086ZM5.73125 3.89111C5.67358 3.89118 5.61692 3.87603 5.56697 3.84719C5.51703 3.81835 5.47558 3.77684 5.44682 3.72686L4.69682 2.42786C4.67493 2.39053 4.66065 2.34924 4.65478 2.30636C4.64892 2.26349 4.6516 2.21988 4.66266 2.17804C4.67372 2.13621 4.69295 2.09697 4.71923 2.0626C4.74552 2.02822 4.77834 1.99939 4.81582 1.97775C4.85329 1.95611 4.89468 1.9421 4.93759 1.93652C4.9805 1.93095 5.02409 1.93391 5.06586 1.94525C5.10762 1.95659 5.14672 1.97607 5.18092 2.00259C5.21512 2.0291 5.24374 2.06212 5.26513 2.09973L6.01513 3.39873C6.0439 3.44861 6.05905 3.50517 6.05906 3.56275C6.05907 3.62033 6.04393 3.6769 6.01517 3.72678C5.98641 3.77666 5.94504 3.8181 5.89521 3.84695C5.84537 3.87579 5.78883 3.89102 5.73125 3.89111ZM2.9705 6.65055C2.91301 6.65054 2.85654 6.63534 2.80682 6.60648L1.50782 5.85648C1.4702 5.8351 1.43718 5.80648 1.41067 5.77228C1.38416 5.73808 1.36467 5.69897 1.35333 5.65721C1.34199 5.61545 1.33903 5.57186 1.34461 5.52895C1.35018 5.48603 1.36419 5.44465 1.38583 5.40717C1.40747 5.3697 1.4363 5.33687 1.47068 5.31059C1.50505 5.2843 1.54429 5.26508 1.58612 5.25401C1.62796 5.24295 1.67157 5.24028 1.71444 5.24614C1.75732 5.252 1.79861 5.26629 1.83594 5.28817L3.13494 6.03817C3.19742 6.07438 3.24622 6.13017 3.27378 6.19692C3.30135 6.26367 3.30613 6.33764 3.28741 6.40738C3.26868 6.47712 3.22748 6.53874 3.17019 6.5827C3.1129 6.62666 3.04272 6.65051 2.9705 6.65055ZM1.96082 10.42H0.460815C0.373791 10.42 0.290331 10.3855 0.228796 10.3239C0.167261 10.2624 0.13269 10.1789 0.13269 10.0919C0.13269 10.0049 0.167261 9.92144 0.228796 9.8599C0.290331 9.79837 0.373791 9.7638 0.460815 9.7638H1.96082C2.04784 9.7638 2.1313 9.79837 2.19283 9.8599C2.25437 9.92144 2.28894 10.0049 2.28894 10.0919C2.28894 10.1789 2.25437 10.2624 2.19283 10.3239C2.1313 10.3855 2.04784 10.42 1.96082 10.42ZM1.67207 14.9397C1.59979 14.9398 1.52951 14.916 1.47215 14.8721C1.41478 14.8281 1.37353 14.7664 1.35481 14.6966C1.33608 14.6268 1.34093 14.5528 1.3686 14.486C1.39627 14.4192 1.4452 14.3635 1.50782 14.3274L2.80682 13.5774C2.88214 13.5345 2.97134 13.5232 3.05496 13.5459C3.13858 13.5686 3.20983 13.6235 3.25316 13.6985C3.29648 13.7736 3.30837 13.8627 3.28622 13.9465C3.26407 14.0302 3.20969 14.1019 3.13494 14.1457L1.83594 14.8957C1.78613 14.9245 1.72961 14.9397 1.67207 14.9397ZM13.2688 3.89111C13.2112 3.89102 13.1546 3.87579 13.1048 3.84695C13.055 3.8181 13.0136 3.77666 12.9848 3.72678C12.9561 3.6769 12.9409 3.62033 12.9409 3.56275C12.941 3.50517 12.9561 3.44861 12.9849 3.39873L13.7349 2.09973C13.7563 2.06212 13.7849 2.0291 13.8191 2.00259C13.8533 1.97607 13.8924 1.95659 13.9342 1.94525C13.9759 1.93391 14.0195 1.93095 14.0624 1.93652C14.1053 1.9421 14.1467 1.95611 14.1842 1.97775C14.2217 1.99939 14.2545 2.02822 14.2808 2.0626C14.3071 2.09697 14.3263 2.13621 14.3373 2.17804C14.3484 2.21988 14.3511 2.26349 14.3452 2.30636C14.3394 2.34924 14.3251 2.39053 14.3032 2.42786L13.5532 3.72686C13.5244 3.77684 13.483 3.81835 13.433 3.84719C13.3831 3.87603 13.3264 3.89118 13.2688 3.89111ZM16.0295 6.65055C15.9573 6.65051 15.8871 6.62666 15.8298 6.5827C15.7725 6.53874 15.7313 6.47712 15.7126 6.40738C15.6939 6.33764 15.6987 6.26367 15.7262 6.19692C15.7538 6.13017 15.8026 6.07438 15.8651 6.03817L17.1641 5.28817C17.2014 5.26629 17.2427 5.252 17.2856 5.24614C17.3284 5.24028 17.372 5.24295 17.4139 5.25401C17.4557 5.26508 17.495 5.2843 17.5293 5.31059C17.5637 5.33687 17.5925 5.3697 17.6142 5.40717C17.6358 5.44465 17.6498 5.48603 17.6554 5.52895C17.661 5.57186 17.658 5.61545 17.6467 5.65721C17.6353 5.69897 17.6159 5.73808 17.5893 5.77228C17.5628 5.80648 17.5298 5.8351 17.4922 5.85648L16.1932 6.60648C16.1435 6.63534 16.087 6.65054 16.0295 6.65055ZM18.5392 10.42H17.0392C16.9522 10.42 16.8687 10.3855 16.8072 10.3239C16.7456 10.2624 16.7111 10.1789 16.7111 10.0919C16.7111 10.0049 16.7456 9.92144 16.8072 9.8599C16.8687 9.79837 16.9522 9.7638 17.0392 9.7638H18.5392C18.6262 9.7638 18.7097 9.79837 18.7712 9.8599C18.8327 9.92144 18.8673 10.0049 18.8673 10.0919C18.8673 10.1789 18.8327 10.2624 18.7712 10.3239C18.7097 10.3855 18.6262 10.42 18.5392 10.42ZM17.3278 14.9397C17.2703 14.9397 17.2138 14.9245 17.1641 14.8957L15.8651 14.1457C15.791 14.1015 15.7373 14.0299 15.7156 13.9464C15.6939 13.8629 15.706 13.7742 15.7492 13.6995C15.7924 13.6249 15.8633 13.5702 15.9465 13.5474C16.0297 13.5246 16.1185 13.5355 16.1938 13.5777L17.4928 14.3277C17.5554 14.3638 17.6043 14.4196 17.632 14.4864C17.6597 14.5532 17.6645 14.6273 17.6457 14.6971C17.627 14.7669 17.5857 14.8286 17.5283 14.8725C17.4709 14.9165 17.4006 14.9402 17.3283 14.9401L17.3278 14.9397Z" fill="#FBD62E"/>
</svg>
