<svg width="132" height="215" viewBox="0 0 132 215" fill="none" xmlns="http://www.w3.org/2000/svg">
<path d="M101.534 2.00371C68.0838 4.15463 -4.81112 50.3013 2.76626 89.1093C8.60338 119.005 46.2769 141.181 73.987 122.827C80.6262 118.429 80.6679 107.299 77.7648 100.676C73.1724 90.1993 63.73 86.9522 52.766 88.8776C32.8488 92.3753 11.4801 112.164 15.6923 133.915C22.2841 167.952 54.4306 187.466 86.4384 193.739C92.8141 194.988 141.459 196.246 115.79 186.919C111.131 185.227 96.9905 180.709 101.534 182.692C109.066 185.978 113.435 187.511 121.827 188.266C123.493 188.416 132.309 187.981 128.952 191.406C122.078 198.418 115.777 205.926 108.732 212.791" stroke="#D77460" stroke-width="3" stroke-linecap="round"/>
</svg>
