<svg width="49" height="49" viewBox="0 0 49 49" fill="none" xmlns="http://www.w3.org/2000/svg">
<rect x="0.5" y="0.5" width="48" height="48" rx="8" fill="#E7C3BC"/>
<path d="M24.17 16.2631L19.33 20.1831C18.525 20.8331 18.37 22.0031 18.98 22.8381C19.625 23.7281 20.88 23.9031 21.745 23.2281L26.71 19.3681C27.06 19.0981 27.56 19.1581 27.835 19.5081C28.11 19.8581 28.045 20.3581 27.695 20.6331L26.65 21.4431L33.6 27.8431V18.4031H33.565L33.37 18.2781L29.74 15.9531C28.975 15.4631 28.08 15.2031 27.17 15.2031C26.08 15.2031 25.02 15.5781 24.17 16.2631ZM25.31 22.4831L22.725 24.4931C21.15 25.7231 18.865 25.4031 17.685 23.7831C16.575 22.2581 16.855 20.1281 18.32 18.9431L22.48 15.5781C21.9 15.3331 21.275 15.2081 20.64 15.2081C19.7 15.2031 18.785 15.4831 18 16.0031L14.4 18.4031V29.6031H15.81L20.38 33.7731C21.36 34.6681 22.875 34.5981 23.77 33.6181C24.045 33.3131 24.23 32.9581 24.325 32.5881L25.175 33.3681C26.15 34.2631 27.67 34.1981 28.565 33.2231C28.79 32.9781 28.955 32.6931 29.06 32.3981C30.03 33.0481 31.35 32.9131 32.165 32.0231C33.06 31.0481 32.995 29.5281 32.02 28.6331L25.31 22.4831ZM8.8 18.4031C8.36 18.4031 8 18.7631 8 19.2031V29.6031C8 30.4881 8.715 31.2031 9.6 31.2031H11.2C12.085 31.2031 12.8 30.4881 12.8 29.6031V18.4031H8.8ZM10.4 28.0031C10.6122 28.0031 10.8157 28.0874 10.9657 28.2374C11.1157 28.3875 11.2 28.591 11.2 28.8031C11.2 29.0153 11.1157 29.2188 10.9657 29.3688C10.8157 29.5188 10.6122 29.6031 10.4 29.6031C10.1878 29.6031 9.98434 29.5188 9.83431 29.3688C9.68429 29.2188 9.6 29.0153 9.6 28.8031C9.6 28.591 9.68429 28.3875 9.83431 28.2374C9.98434 28.0874 10.1878 28.0031 10.4 28.0031ZM35.2 18.4031V29.6031C35.2 30.4881 35.915 31.2031 36.8 31.2031H38.4C39.285 31.2031 40 30.4881 40 29.6031V19.2031C40 18.7631 39.64 18.4031 39.2 18.4031H35.2ZM36.8 28.8031C36.8 28.591 36.8843 28.3875 37.0343 28.2374C37.1843 28.0874 37.3878 28.0031 37.6 28.0031C37.8122 28.0031 38.0157 28.0874 38.1657 28.2374C38.3157 28.3875 38.4 28.591 38.4 28.8031C38.4 29.0153 38.3157 29.2188 38.1657 29.3688C38.0157 29.5188 37.8122 29.6031 37.6 29.6031C37.3878 29.6031 37.1843 29.5188 37.0343 29.3688C36.8843 29.2188 36.8 29.0153 36.8 28.8031Z" fill="#C84F36"/>
</svg>
