<svg width="275" height="101" viewBox="0 0 275 101" fill="none" xmlns="http://www.w3.org/2000/svg">
<path fill-rule="evenodd" clip-rule="evenodd" d="M125.378 0.669815C124.417 0.738626 121.002 0.979457 117.894 1.18589C79.5029 3.62488 44.2266 12.4098 23.9772 24.6315C9.5438 33.3515 0.919744 43.5814 0.0793531 53.0545C-1.4747 69.9439 19.8419 84.2605 60.094 93.4277C82.2576 98.4739 102.68 100.5 131.367 100.5C166.343 100.5 192.522 97.3424 218.934 89.926C249.182 81.4125 269.184 68.5026 274.28 54.1898C275.421 50.9289 275.181 44.7168 273.74 41.3145C265.776 22.6054 234.989 9.93643 188.867 6.40028C179.343 5.67776 154.905 5.60894 143.646 6.22825C124.537 7.32541 107.469 9.42034 89.9211 12.8533C72.7932 16.183 63.3888 19.031 49.489 25.0749C40.5649 28.9207 42.5991 28.9896 54.458 25.1782C67.3973 21.0571 74.5207 19.1036 84.3452 17.0087C101.113 13.4382 117.767 11.068 135.496 9.69558C148.795 8.66723 172.273 8.4264 183.771 9.17951C218.988 11.5153 245.287 19.0998 259 30.8742C271.219 41.3451 272.239 52.7754 261.874 63.5903C258.099 67.5049 254.384 70.2153 246.961 74.4396C236.656 80.3459 225.517 84.6352 211.324 88.2057C186.586 94.4523 161.494 97.2697 130.467 97.2697C99.4388 97.2697 74.2872 94.2152 49.2489 87.0397C30.2001 81.5807 17.5675 74.9213 10.9177 66.8894C7.02258 62.1529 6.24889 60.0924 6.24889 54.7021C6.30891 49.0367 7.68955 46.0166 13.0787 39.77C29.8465 20.3728 68.0643 8.04793 122.983 4.41239C139.631 3.31523 167.064 3.45285 177.669 4.72204C179.703 4.96288 181.384 5.03169 181.384 4.89407C181.384 4.37799 176.355 2.93677 172.099 2.21807C164.849 0.983284 154.971 0.467202 140.478 0.501608C133.168 0.536013 126.405 0.639235 125.384 0.673641L125.378 0.669815Z" fill="#34B233"/>
</svg>
