<svg width="19" height="23" viewBox="0 0 19 23" fill="none" xmlns="http://www.w3.org/2000/svg">
<path d="M11.5 6.60789C10.861 5.99489 10.48 5.67289 9.99701 5.55189C9.43701 5.41089 8.84901 5.56889 7.67201 5.88489L6.50001 6.19889C5.38701 6.49889 4.83001 6.64689 4.44401 7.01589C4.05701 7.38589 3.90701 7.90989 3.60801 8.95889L2.05401 14.3969C1.54401 16.1849 1.28801 17.0789 1.72201 17.7839C2.09401 18.3889 3.58401 19.1339 5.00101 19.4999" stroke="white" stroke-width="1.5" stroke-linecap="round" stroke-linejoin="round"/>
<path d="M11.995 9.4997C12.836 8.9397 13.583 8.0427 14.047 6.9267C15.005 4.6217 14.394 2.2567 12.684 1.6457C10.973 1.0337 8.809 2.4057 7.851 4.7107C7.6956 5.08228 7.578 5.46856 7.5 5.8637" stroke="white" stroke-width="1.5" stroke-linecap="round" stroke-linejoin="round"/>
<path d="M15.558 8.036L14.558 7.423C13.555 6.808 13.054 6.5 12.5 6.5C11.946 6.5 11.445 6.808 10.442 7.423L9.442 8.036C8.493 8.618 8.019 8.909 7.76 9.378C7.5 9.848 7.5 10.413 7.5 11.544V17.409C7.5 19.338 7.5 20.302 8.086 20.901C8.672 21.5 9.614 21.5 11.5 21.5H13.5C15.386 21.5 16.328 21.5 16.914 20.9C17.5 20.302 17.5 19.338 17.5 17.41V11.544C17.5 10.413 17.5 9.847 17.24 9.378C16.98 8.909 16.507 8.618 15.558 8.036Z" stroke="white" stroke-width="1.5" stroke-linecap="round" stroke-linejoin="round"/>
</svg>
