<svg width="49" height="49" viewBox="0 0 49 49" fill="none" xmlns="http://www.w3.org/2000/svg">
<rect x="0.5" y="0.5" width="48" height="48" rx="8" fill="#E7C3BC"/>
<path d="M26.6666 18.4772C25.8146 17.6599 25.3066 17.2305 24.6626 17.0692C23.916 16.8812 23.132 17.0919 21.5626 17.5132L20 17.9319C18.516 18.3319 17.7733 18.5292 17.2586 19.0212C16.7426 19.5145 16.5426 20.2132 16.144 21.6119L14.072 28.8625C13.392 31.2465 13.0506 32.4385 13.6293 33.3785C14.1253 34.1852 16.112 35.1785 18.0013 35.6665" stroke="#C84F36" stroke-width="2.2" stroke-linecap="round" stroke-linejoin="round"/>
<path d="M27.3266 22.3303C28.4479 21.5837 29.4439 20.3877 30.0626 18.8997C31.3399 15.8263 30.5253 12.673 28.2453 11.8583C25.9639 11.0423 23.0786 12.8717 21.8013 15.945C21.594 16.4404 21.4373 16.9555 21.3333 17.4823" stroke="#C84F36" stroke-width="2.2" stroke-linecap="round" stroke-linejoin="round"/>
<path d="M32.0773 20.3761L30.7439 19.5588C29.4066 18.7388 28.7386 18.3281 27.9999 18.3281C27.2613 18.3281 26.5933 18.7388 25.2559 19.5588L23.9226 20.3761C22.6573 21.1521 22.0253 21.5401 21.6799 22.1655C21.3333 22.7921 21.3333 23.5455 21.3333 25.0535V32.8735C21.3333 35.4455 21.3333 36.7308 22.1146 37.5295C22.8959 38.3281 24.1519 38.3281 26.6666 38.3281H29.3333C31.8479 38.3281 33.1039 38.3281 33.8853 37.5281C34.6666 36.7308 34.6666 35.4455 34.6666 32.8748V25.0535C34.6666 23.5455 34.6666 22.7908 34.3199 22.1655C33.9733 21.5401 33.3426 21.1521 32.0773 20.3761Z" stroke="#C84F36" stroke-width="2.2" stroke-linecap="round" stroke-linejoin="round"/>
</svg>
