<svg width="49" height="49" viewBox="0 0 49 49" fill="none" xmlns="http://www.w3.org/2000/svg">
<rect x="0.5" y="0.5" width="48" height="48" rx="8" fill="#E7C3BC"/>
<path d="M29 39C27.4178 39 25.871 38.5308 24.5554 37.6518C23.2398 36.7727 22.2145 35.5233 21.609 34.0615C21.0035 32.5997 20.845 30.9911 21.1537 29.4393C21.4624 27.8874 22.2243 26.462 23.3431 25.3431C24.462 24.2243 25.8874 23.4624 27.4393 23.1537C28.9911 22.845 30.5997 23.0035 32.0615 23.609C33.5233 24.2145 34.7727 25.2398 35.6518 26.5554C36.5308 27.871 37 29.4178 37 31C37 33.1217 36.1571 35.1566 34.6569 36.6569C33.1566 38.1571 31.1217 39 29 39ZM29 25C27.8133 25 26.6533 25.3519 25.6666 26.0112C24.6799 26.6705 23.9109 27.6075 23.4567 28.7039C23.0026 29.8003 22.8838 31.0067 23.1153 32.1705C23.3468 33.3344 23.9182 34.4035 24.7574 35.2426C25.5965 36.0818 26.6656 36.6532 27.8295 36.8847C28.9933 37.1162 30.1997 36.9974 31.2961 36.5433C32.3925 36.0892 33.3295 35.3201 33.9888 34.3334C34.6481 33.3467 35 32.1867 35 31C35 29.4087 34.3679 27.8826 33.2426 26.7574C32.1174 25.6321 30.5913 25 29 25Z" fill="#C84F36"/>
<path d="M30.59 34L28 31.41V27H30V30.59L32 32.59L30.59 34Z" fill="#C84F36"/>
<path d="M36 15C36 14.4696 35.7893 13.9609 35.4142 13.5858C35.0391 13.2107 34.5304 13 34 13H30V11H28V13H20V11H18V13H14C13.4696 13 12.9609 13.2107 12.5858 13.5858C12.2107 13.9609 12 14.4696 12 15V35C12 35.5304 12.2107 36.0391 12.5858 36.4142C12.9609 36.7893 13.4696 37 14 37H18V35H14V15H18V17H20V15H28V17H30V15H34V21H36V15Z" fill="#C84F36"/>
</svg>
