<svg width="73" height="72" viewBox="0 0 73 72" fill="none" xmlns="http://www.w3.org/2000/svg">
<circle cx="36.5" cy="36" r="36" fill="#E7C3BC"/>
<path d="M51.19 38.7134V47.3934C51.19 48.5919 50.2185 49.5634 49.02 49.5634H22.98C21.7815 49.5634 20.81 48.5919 20.81 47.3934V38.7134C20.81 37.5149 21.7815 36.5433 22.98 36.5434H29.49C30.3252 36.5434 30.8473 37.4475 30.4296 38.1709C30.2358 38.5066 29.8776 38.7134 29.49 38.7134H22.98V47.3934H49.02V38.7134H42.51C41.6748 38.7134 41.1527 37.8092 41.5704 37.0859C41.7642 36.7502 42.1224 36.5434 42.51 36.5434H49.02C50.2185 36.5433 51.19 37.5149 51.19 38.7134ZM30.2576 30.801L34.915 26.1423V37.6284C34.915 38.4636 35.8192 38.9856 36.5425 38.568C36.8782 38.3742 37.085 38.016 37.085 37.6284V26.1423L41.7424 30.801C42.3333 31.3919 43.3423 31.1216 43.5586 30.3143C43.659 29.9397 43.5519 29.54 43.2776 29.2657L36.7676 22.7557C36.3438 22.3314 35.6562 22.3314 35.2324 22.7557L28.7224 29.2657C28.1314 29.8566 28.4018 30.8657 29.209 31.082C29.5837 31.1824 29.9834 31.0752 30.2576 30.801ZM45.765 43.0534C45.765 41.8005 44.4087 41.0175 43.3237 41.6439C42.2387 42.2703 42.2387 43.8364 43.3237 44.4628C43.5712 44.6057 43.8518 44.6809 44.1375 44.6809C45.0363 44.6808 45.765 43.9522 45.765 43.0534Z" fill="#C84F36" stroke="#C84F36" stroke-width="0.6"/>
</svg>
