<svg width="260" height="260" viewBox="0 0 260 260" fill="none" xmlns="http://www.w3.org/2000/svg">
<rect x="260" width="65" height="65" transform="rotate(90 260 0)" fill="#F17F5A" fill-opacity="0.4"/>
<rect x="195" y="65" width="65" height="65" transform="rotate(90 195 65)" fill="#F17F5A" fill-opacity="0.4"/>
<rect x="130" y="130" width="65" height="65" transform="rotate(90 130 130)" fill="#F17F5A" fill-opacity="0.4"/>
<rect x="65" y="195" width="65" height="65" transform="rotate(90 65 195)" fill="#F17F5A" fill-opacity="0.4"/>
<rect x="260" y="65" width="65" height="65" transform="rotate(90 260 65)" fill="#F17F5A" fill-opacity="0.4"/>
<rect x="260" y="130" width="65" height="65" transform="rotate(90 260 130)" fill="#F17F5A" fill-opacity="0.4"/>
<rect x="260" y="195" width="65" height="65" transform="rotate(90 260 195)" fill="#F17F5A" fill-opacity="0.4"/>
<rect x="195" y="130" width="65" height="65" transform="rotate(90 195 130)" fill="#F17F5A" fill-opacity="0.4"/>
<rect x="130" y="195" width="65" height="65" transform="rotate(90 130 195)" fill="#F17F5A" fill-opacity="0.4"/>
<rect x="195" y="195" width="65" height="65" transform="rotate(90 195 195)" fill="#F17F5A" fill-opacity="0.4"/>
</svg>
