<svg width="49" height="49" viewBox="0 0 49 49" fill="none" xmlns="http://www.w3.org/2000/svg">
<rect x="0.5" y="0.5" width="48" height="48" rx="8" fill="#E7C3BC"/>
<g clip-path="url(#clip0_2775_48761)">
<path d="M32 11.6641H25.3334C25.3334 12.3974 24.7334 12.9974 24 12.9974C23.2667 12.9974 22.6667 12.3974 22.6667 11.6641H16C14.5334 11.6641 13.3334 12.8641 13.3334 14.3307V35.6641C13.3334 37.1307 14.5334 38.3307 16 38.3307H32C33.4667 38.3307 34.6667 37.1307 34.6667 35.6641V14.3307C34.6667 12.8641 33.4667 11.6641 32 11.6641Z" fill="#C84F36"/>
<path d="M32 36.3307H16C15.6 36.3307 15.3334 36.0641 15.3334 35.6641V14.3307C15.3334 13.9307 15.6 13.6641 16 13.6641H32C32.4 13.6641 32.6667 13.9307 32.6667 14.3307V35.6641C32.6667 36.0641 32.4 36.3307 32 36.3307Z" fill="#E7C3BC"/>
<path d="M25.3333 11.6641C25.3333 12.3974 24.7333 12.9974 24 12.9974C23.2667 12.9974 22.6667 12.3974 22.6667 11.6641H18V14.3307C18 15.0641 18.6 15.6641 19.3333 15.6641H28.6667C29.4 15.6641 30 15.0641 30 14.3307V11.6641H25.3333Z" fill="#D77460"/>
<path d="M24 9C22.5334 9 21.3334 10.2 21.3334 11.6667C21.3334 13.1333 22.5334 14.3333 24 14.3333C25.4667 14.3333 26.6667 13.1333 26.6667 11.6667C26.6667 10.2 25.4667 9 24 9ZM24 13C23.2667 13 22.6667 12.4 22.6667 11.6667C22.6667 10.9333 23.2667 10.3333 24 10.3333C24.7334 10.3333 25.3334 10.9333 25.3334 11.6667C25.3334 12.4 24.7334 13 24 13Z" fill="#D77460"/>
<path d="M28.4 21.3984L22.4 27.3984L19.6 24.5318L17.9333 26.1984L22.4667 30.6651L30.0667 23.0651L28.4 21.3984Z" fill="#E16045"/>
</g>
<defs>
<clipPath id="clip0_2775_48761">
<rect width="32" height="32" fill="white" transform="translate(8 9)"/>
</clipPath>
</defs>
</svg>
