<svg width="73" height="72" viewBox="0 0 73 72" fill="none" xmlns="http://www.w3.org/2000/svg">
<circle cx="36.5" cy="36" r="36" fill="#E7C3BC"/>
<path d="M38.6667 29.4772C37.8147 28.6599 37.3067 28.2305 36.6627 28.0692C35.916 27.8812 35.132 28.0919 33.5627 28.5132L32 28.9319C30.516 29.3319 29.7733 29.5292 29.2587 30.0212C28.7427 30.5145 28.5427 31.2132 28.144 32.6119L26.072 39.8625C25.392 42.2465 25.0507 43.4385 25.6293 44.3785C26.1253 45.1852 28.112 46.1785 30.0013 46.6665" stroke="#C84F36" stroke-width="2.2" stroke-linecap="round" stroke-linejoin="round"/>
<path d="M39.3267 33.3303C40.448 32.5837 41.444 31.3877 42.0627 29.8997C43.34 26.8263 42.5253 23.673 40.2453 22.8583C37.964 22.0423 35.0787 23.8717 33.8013 26.945C33.5941 27.4404 33.4373 27.9555 33.3333 28.4823" stroke="#C84F36" stroke-width="2.2" stroke-linecap="round" stroke-linejoin="round"/>
<path d="M44.0773 31.3761L42.744 30.5588C41.4067 29.7388 40.7387 29.3281 40 29.3281C39.2613 29.3281 38.5933 29.7388 37.256 30.5588L35.9227 31.3761C34.6573 32.1521 34.0253 32.5401 33.68 33.1655C33.3333 33.7921 33.3333 34.5455 33.3333 36.0535V43.8735C33.3333 46.4455 33.3333 47.7308 34.1147 48.5295C34.896 49.3281 36.152 49.3281 38.6667 49.3281H41.3333C43.848 49.3281 45.104 49.3281 45.8853 48.5281C46.6667 47.7308 46.6667 46.4455 46.6667 43.8748V36.0535C46.6667 34.5455 46.6667 33.7908 46.32 33.1655C45.9733 32.5401 45.3427 32.1521 44.0773 31.3761Z" stroke="#C84F36" stroke-width="2.2" stroke-linecap="round" stroke-linejoin="round"/>
</svg>
