<svg width="57" height="32" viewBox="0 0 57 32" fill="none" xmlns="http://www.w3.org/2000/svg">
<rect x="12.5" width="32" height="32" rx="5" fill="#E6583D" fill-opacity="0.2"/>
<path d="M30.1667 11.9232C29.6342 11.4124 29.3167 11.1441 28.9142 11.0432C28.4475 10.9257 27.9575 11.0574 26.9767 11.3207L26 11.5824C25.0725 11.8324 24.6083 11.9557 24.2867 12.2632C23.9642 12.5716 23.8392 13.0082 23.59 13.8824L22.295 18.4141C21.87 19.9041 21.6567 20.6491 22.0183 21.2366C22.3283 21.7407 23.57 22.3616 24.7508 22.6666" stroke="#E6583D" stroke-width="2.2" stroke-linecap="round" stroke-linejoin="round"/>
<path d="M30.5792 14.3324C31.28 13.8658 31.9025 13.1183 32.2892 12.1883C33.0875 10.2674 32.5783 8.2966 31.1533 7.78743C29.7275 7.27743 27.9242 8.42077 27.1258 10.3416C26.9963 10.6512 26.8983 10.9731 26.8333 11.3024" stroke="#E6583D" stroke-width="2.2" stroke-linecap="round" stroke-linejoin="round"/>
<path d="M33.5483 13.112L32.715 12.6012C31.8792 12.0887 31.4617 11.832 31 11.832C30.5383 11.832 30.1208 12.0887 29.285 12.6012L28.4517 13.112C27.6608 13.597 27.2658 13.8395 27.05 14.2304C26.8333 14.622 26.8333 15.0929 26.8333 16.0354V20.9229C26.8333 22.5304 26.8333 23.3337 27.3217 23.8329C27.81 24.332 28.595 24.332 30.1667 24.332H31.8333C33.405 24.332 34.19 24.332 34.6783 23.832C35.1667 23.3337 35.1667 22.5304 35.1667 20.9237V16.0354C35.1667 15.0929 35.1667 14.6212 34.95 14.2304C34.7333 13.8395 34.3392 13.597 33.5483 13.112Z" stroke="#E6583D" stroke-width="2.2" stroke-linecap="round" stroke-linejoin="round"/>
</svg>

