<svg width="18" height="19" viewBox="0 0 18 19" fill="none" xmlns="http://www.w3.org/2000/svg">
<path d="M6 17C6.41421 17 6.75 16.6642 6.75 16.25C6.75 15.8358 6.41421 15.5 6 15.5C5.58579 15.5 5.25 15.8358 5.25 16.25C5.25 16.6642 5.58579 17 6 17Z" stroke="black" stroke-width="2" stroke-linecap="round" stroke-linejoin="round"/>
<path d="M14.25 17C14.6642 17 15 16.6642 15 16.25C15 15.8358 14.6642 15.5 14.25 15.5C13.8358 15.5 13.5 15.8358 13.5 16.25C13.5 16.6642 13.8358 17 14.25 17Z" stroke="black" stroke-width="2" stroke-linecap="round" stroke-linejoin="round"/>
<path d="M1.53711 2.03751H3.03711L5.03211 11.3525C5.10529 11.6937 5.29511 11.9986 5.56889 12.2149C5.84267 12.4312 6.18329 12.5453 6.53211 12.5375H13.8671C14.2085 12.537 14.5395 12.42 14.8054 12.2059C15.0713 11.9918 15.2562 11.6934 15.3296 11.36L16.5671 5.78751H3.83961" stroke="black" stroke-width="2" stroke-linecap="round" stroke-linejoin="round"/>
</svg>
