<svg width="25" height="24" viewBox="0 0 25 24" fill="none" xmlns="http://www.w3.org/2000/svg">
<path d="M24.5 12C24.5 5.3726 19.1274 1.52588e-05 12.5 1.52588e-05C5.87259 1.52588e-05 0.5 5.3726 0.5 12C0.5 17.6278 4.37432 22.3499 9.60108 23.6466V15.667H7.12659V12H9.60108V10.4199C9.60108 6.33548 11.4495 4.44236 15.4594 4.44236C16.2196 4.44236 17.5314 4.5914 18.068 4.74049V8.06468C17.7848 8.03487 17.2929 8.01995 16.6817 8.01995C14.714 8.01995 13.9538 8.76529 13.9538 10.7031V12H17.8734L17.2001 15.667H13.9538V23.9121C19.8955 23.1945 24.5 18.1353 24.5 12Z" fill="#0866FF"/>
</svg>
