<svg width="40" height="40" viewBox="0 0 40 40" fill="none" xmlns="http://www.w3.org/2000/svg">
<path d="M8 20C8 13.3726 13.3726 8 20 8C26.6274 8 32 13.3726 32 20C32 26.6274 26.6274 32 20 32C13.3726 32 8 26.6274 8 20Z" fill="#BEDEF0"/>
<ellipse cx="20.0003" cy="17.3333" rx="5.33333" ry="5.33333" fill="#265B79"/>
<path fill-rule="evenodd" clip-rule="evenodd" d="M28.3274 28.3829C28.3848 28.4797 28.367 28.6029 28.2856 28.6806C26.1317 30.7371 23.2134 32 20.0002 32C16.7871 32 13.8689 30.7371 11.7149 28.6807C11.6335 28.603 11.6158 28.4798 11.6732 28.383C13.2139 25.7822 16.3643 24 20.0003 24C23.6363 24 26.7867 25.7821 28.3274 28.3829Z" fill="#265B79"/>
</svg>
