<svg width="18" height="15" viewBox="0 0 18 15" fill="none" xmlns="http://www.w3.org/2000/svg">
<path d="M8.68749 13.7234L8.68265 13.7209L8.66601 13.7122C8.65188 13.7047 8.63172 13.694 8.60594 13.6801C8.5544 13.6522 8.48033 13.6116 8.38695 13.5588C8.20028 13.4531 7.93595 13.2983 7.61977 13.0985C6.98881 12.7 6.14438 12.1183 5.29665 11.3877C3.63983 9.95988 1.7998 7.81705 1.7998 5.25001C1.7998 3.01326 3.61305 1.20001 5.8498 1.20001C7.12277 1.20001 8.25769 1.78715 8.9998 2.70443C9.74192 1.78715 10.8768 1.20001 12.1498 1.20001C14.3866 1.20001 16.1998 3.01326 16.1998 5.25001C16.1998 7.81705 14.3598 9.95988 12.703 11.3877C11.8552 12.1183 11.0108 12.7 10.3798 13.0985C10.0637 13.2983 9.79933 13.4531 9.61266 13.5588C9.51928 13.6116 9.44521 13.6522 9.39367 13.6801C9.36789 13.694 9.34773 13.7047 9.3336 13.7122L9.31696 13.7209L9.31212 13.7234L9.31059 13.7242C9.11681 13.827 8.8828 13.827 8.68957 13.7245L8.68749 13.7234Z" stroke="#1A1A1A" stroke-width="2"/>
</svg>
