<svg width="32" height="32" viewBox="0 0 32 32" fill="none" xmlns="http://www.w3.org/2000/svg">
<path d="M4 16C4 9.37258 9.37258 4 16 4C22.6274 4 28 9.37258 28 16C28 22.6274 22.6274 28 16 28C9.37258 28 4 22.6274 4 16Z" fill="#E7C3BC"/>
<ellipse cx="16" cy="13.3333" rx="5.33333" ry="5.33333" fill="#E16045"/>
<path fill-rule="evenodd" clip-rule="evenodd" d="M24.3272 24.3829C24.3846 24.4797 24.3668 24.6029 24.2854 24.6806C22.1315 26.7371 19.2132 28 16 28C12.7869 28 9.86871 26.7371 7.71474 24.6807C7.63334 24.603 7.61562 24.4798 7.67298 24.383C9.21369 21.7822 12.3641 20 16.0001 20C19.6361 20 22.7865 21.7821 24.3272 24.3829Z" fill="#E16045"/>
</svg>
