<svg width="39" height="39" viewBox="0 0 39 39" fill="none" xmlns="http://www.w3.org/2000/svg">
<path fill-rule="evenodd" clip-rule="evenodd" d="M28.6188 2.90693C34.6683 6.08843 38.8008 12.4314 38.8008 19.7429C38.8008 27.0544 34.6683 33.4174 28.6188 36.5794V34.4054C30.9323 33.0214 32.8893 31.0849 34.3133 28.7929L28.6188 26.4814V22.9639L34.8663 27.8449C36.1713 25.4339 36.9028 22.6869 36.9028 19.7424C36.9028 13.5374 33.5808 8.08393 28.6188 5.07993V2.90693ZM19.8208 0.75293C22.9843 0.75293 25.9693 1.52393 28.6188 2.90693V5.08093C26.1868 3.61793 23.3398 2.74893 20.3348 2.64993L22.5093 18.2019L28.6188 22.9644V26.4819L19.7808 22.9049L11.0023 26.5014V23.0034L17.1513 18.2014L19.3063 2.64943C16.2613 2.74843 13.4343 3.61793 11.0023 5.07993V2.90693C13.6323 1.52393 16.6373 0.75293 19.8208 0.75293ZM28.6188 36.5794C25.9693 37.9624 22.9838 38.7524 19.8208 38.7524C16.6378 38.7524 13.6328 37.9624 11.0028 36.5989V34.4054C13.5733 35.9659 16.5978 36.8554 19.8208 36.8554C23.0238 36.8554 26.0293 35.9659 28.6188 34.4054V36.5794ZM11.0028 36.5989C4.93278 33.4174 0.800781 27.0544 0.800781 19.7429C0.800781 12.4314 4.93278 6.08843 11.0028 2.90693V5.08093C6.02028 8.08443 2.69878 13.5184 2.69878 19.7429C2.69878 22.6869 3.45028 25.4739 4.75528 27.8844L11.0028 23.0034V26.5014L5.32828 28.8324C6.75178 31.1059 8.68928 33.0219 11.0028 34.4054V36.5989Z" fill="#4D4D4D"/>
</svg>
