<svg width="56" height="41" viewBox="0 0 56 41" fill="none" xmlns="http://www.w3.org/2000/svg">
<path d="M24.0534 40.5087C20.0862 40.0923 16.3738 39.0316 12.7264 37.2724C9.68643 35.8062 7.75489 34.4534 5.69378 32.3471C3.38229 29.9849 2.25492 28.2575 1.19818 25.4584C-0.0648871 22.113 0.373896 17.6375 2.34725 13.7383C4.00904 10.4547 6.09401 8.15378 9.3657 5.99288C10.5824 5.18924 13.5986 3.64204 14.3913 3.41489C14.9505 3.25465 14.1143 3.5684 13.1585 4.12115C12.5689 4.44784 12.2048 4.64937 11.6609 4.9721C10.3971 5.74232 10.0694 6.01509 8.75877 7.07175C5.17727 9.95914 2.95322 13.384 2.15521 17.2406C1.8944 18.5011 1.8944 21.3255 2.15521 22.586C3.10136 27.1586 5.85065 30.9051 10.5396 34.0117C13.2368 35.7986 16.3634 37.1144 20.0081 37.9965C23.0887 38.7421 24.2506 38.8617 28.4099 38.8617C31.4415 38.8617 32.4251 38.8186 33.6378 38.6325C37.511 38.038 41.6392 36.6983 44.4046 35.1385C46.6672 33.8623 47.4194 33.4176 47.6235 33.2357C47.7401 33.1317 48.2623 32.855 48.7839 32.6208C49.4089 32.3401 49.8533 32.0456 50.0869 31.757C50.4349 31.3274 50.4584 31.3192 51.3439 31.3192C51.8743 31.3192 52.6872 30.5519 52.6872 30.6255C51.6529 32.1015 49.9424 33.7429 48.9713 34.4901C47.5292 35.6025 46.3965 36.3632 44.3424 37.3404C40.887 38.9841 38.0578 39.944 33.7 40.4678C30.5059 40.8518 27.1071 40.8295 24.0534 40.5087Z" fill="url(#paint0_linear_1427_23719)"/>
<path d="M23.7763 38.5498C21.4847 38.3058 18.1235 37.5762 16.3485 36.9375C15.092 36.4853 12.4319 35.3226 11.7425 34.9243C10.9779 34.4825 9.11652 33.0981 8.03162 32.1643C6.62467 30.9534 4.36925 28.1107 4.56463 27.7946C4.62051 27.7042 5.63046 27.3281 5.81564 27.3281C5.84916 27.3281 6.03563 27.6063 6.25723 28.0006C7.26447 29.7932 8.7637 31.4021 10.4332 32.7632C12.6672 34.5846 14.2778 35.3898 17.5412 36.3167C24.2718 38.2285 32.103 38.1398 38.3665 36.081C40.8126 35.2769 43.2878 33.9336 44.2187 32.9049C44.4712 32.626 46.4737 31.9199 46.6141 32.0603C46.7911 32.2373 46.3206 32.8365 45.3499 33.6704C43.6201 35.1564 39.3176 37.0101 35.8725 37.7536C32.7729 38.4225 31.6801 38.5342 27.8915 38.5693C25.9025 38.5878 24.0507 38.579 23.7763 38.5498Z" fill="url(#paint1_linear_1427_23719)"/>
<path d="M11.5889 34.306C10.5801 33.9853 10.024 33.6679 8.78304 32.7045C6.05547 30.587 4.0838 27.9061 3.21339 25.1314C2.69925 23.4923 2.58228 22.4187 2.6592 20.0447C2.71821 18.2229 2.77834 17.7301 3.05703 16.7833C3.7515 14.4239 4.71461 12.6298 6.32473 10.6961C9.97338 6.31419 16.789 3.00838 23.7269 2.25538C25.6479 2.0469 29.2373 2.02884 29.7897 2.22489C30.3573 2.42638 30.9511 3.08353 31.1419 3.72157C31.268 4.14323 31.2516 4.26757 31.0057 4.75032C30.8519 5.05234 30.5658 5.4968 30.37 5.73801C30.1742 5.97922 29.6639 6.63953 29.2358 7.20536C28.8078 7.77119 27.8083 9.0338 27.0146 10.0112C26.221 10.9885 24.9287 12.686 24.1428 13.7834C22.688 15.8147 19.5028 20.6335 18.8673 21.7644C18.6746 22.1073 18.3316 22.6467 18.105 22.963C17.8785 23.2793 17.49 23.9665 17.2417 24.4902C16.8261 25.3668 16.794 25.5149 16.8365 26.358C16.8943 27.5054 17.252 28.1021 18.279 28.7644C19.8249 29.7614 18.4199 29.683 34.7319 29.683H49.2823L50.5435 28.3236C51.5178 27.2735 51.9022 26.753 52.2331 26.0354C52.7169 24.9866 53.217 23.3489 53.4331 22.1058C53.6165 21.051 53.5022 18.2254 53.2469 17.5037C52.7666 15.5505 51.9168 13.6413 50.8684 11.9752C48.8707 8.85519 46.0245 6.37739 41.9105 4.1768C41.1803 3.78621 39.3151 2.88614 39.3441 2.85708C39.4336 2.76744 42.211 3.92771 43.5807 4.61012C46.9641 6.29572 49.8733 8.70869 51.8055 11.432C53.2376 13.4504 54.4255 15.7474 55.0114 18.0624C55.3374 19.3505 55.3774 20.4716 55.3735 21.8748C55.3657 24.6753 54.7813 26.5143 53.4116 29.1855C52.4506 31.0593 52.231 31.2992 50.7754 32.0653L49.1628 32.6491L34.8067 32.7382C20.154 32.8291 20.113 32.7374 18.685 32.4619C15.6291 31.8722 14.3773 31.1441 13.579 29.4923C13.183 28.6728 13.0945 27.0816 13.3814 25.9372C14.0378 23.3184 18.5409 16.3413 24.8407 8.18218C26.0403 6.62847 27.0788 5.25068 27.1484 5.12042C27.4803 4.4992 27.1483 4.08794 26.2016 3.94774C25.5412 3.84994 22.1747 4.37395 20.7176 4.80134C17.156 5.84606 15.7816 6.37816 14.0033 7.40082C11.3269 8.94003 9.13207 10.8304 7.60856 12.9086C5.98371 15.125 5.33769 16.5193 4.7234 19.1354C4.36017 20.6824 4.4444 23.0978 4.92145 24.8152C5.91582 28.3949 8.02687 31.1774 11.6823 33.7263C12.2472 34.1202 12.7093 34.4658 12.7093 34.4944C12.7093 34.5956 12.2649 34.5209 11.5889 34.306Z" fill="url(#paint2_linear_1427_23719)"/>
<path d="M11.6602 34.3304C10.6514 34.0097 10.0953 33.6923 8.85433 32.7289C6.12677 30.6114 4.15509 27.9305 3.28468 25.1558C2.77054 23.5167 2.65357 22.4432 2.73049 20.0691C2.78951 18.2473 2.84963 17.7545 3.12832 16.8077C3.82279 14.4483 4.78592 12.6542 6.39603 10.7205C10.0447 6.33861 16.8603 3.03279 23.7982 2.2798C25.7192 2.07131 29.3086 2.05326 29.861 2.2493C30.4286 2.45079 31.0224 3.10794 31.2132 3.74598C31.3393 4.16764 31.3229 4.29198 31.077 4.77474C30.9232 5.07676 30.6371 5.52122 30.4413 5.76243C30.2455 6.00364 29.7351 6.66395 29.3071 7.22978C28.8791 7.79561 27.8796 9.05822 27.0859 10.0356C26.2923 11.0129 25 12.7105 24.2141 13.8078C22.7593 15.8392 19.5741 20.6579 18.9386 21.7888C18.7459 22.1317 18.4029 22.6711 18.1763 22.9874C17.9498 23.3037 17.5613 23.9909 17.313 24.5146C16.8974 25.3912 16.8653 25.5393 16.9078 26.3825C16.9656 27.5298 17.3233 28.1265 18.3503 28.7888C19.8962 29.7858 18.4912 29.7074 34.8032 29.7074H49.3536L50.6148 28.3481C51.5891 27.298 51.9734 26.7774 52.3044 26.0598C52.7882 25.011 53.2883 23.3733 53.5044 22.1302C53.6878 21.0754 53.5735 18.2498 53.3182 17.5281C52.8378 15.5749 51.7958 13.8369 50.7473 12.1708C48.7496 9.05071 46.0958 7.01603 41.9818 4.81543C41.2516 4.42484 37.6382 2.48533 39.4154 2.88151C39.5049 2.79186 42.2823 3.95213 43.652 4.63454C47.0354 6.32014 49.9446 8.73309 51.8768 11.4564C53.3089 13.4748 54.4968 15.7718 55.0827 18.0868C55.4087 19.375 55.4487 20.496 55.4448 21.8992C55.437 24.6997 54.8526 26.5387 53.4829 29.2099C52.5219 31.0837 52.3023 31.3237 50.8467 32.0897L49.2341 32.6735L34.878 32.7626C20.2253 32.8535 20.1843 32.7619 18.7563 32.4863C15.7004 31.8966 14.4486 31.1685 13.6503 29.5167C13.2543 28.6972 13.1658 27.106 13.4527 25.9616C14.1091 23.3428 18.6122 16.3657 24.912 8.2066C26.1116 6.65289 27.1501 5.2751 27.2197 5.14484C27.5516 4.52362 27.2196 4.11235 26.2729 3.97215C25.6125 3.87435 22.246 4.39837 20.7889 4.82576C17.2273 5.87048 15.8529 6.40258 14.0746 7.42523C11.3982 8.96445 9.20337 10.8548 7.67987 12.933C6.05501 15.1495 5.40899 16.5437 4.79469 19.1599C4.43146 20.7068 4.51569 23.1223 4.99275 24.8396C5.98711 28.4193 8.09816 31.2018 11.7536 33.7507C12.3184 34.1446 12.7806 34.4902 12.7806 34.5188C12.7806 34.62 12.3362 34.5453 11.6602 34.3304Z" fill="url(#paint3_linear_1427_23719)"/>
<path d="M11.6602 34.3304C10.6514 34.0097 10.0953 33.6923 8.85433 32.7289C6.12677 30.6114 4.15509 27.9305 3.28468 25.1558C2.77054 23.5167 2.65357 22.4432 2.73049 20.0691C2.78951 18.2473 2.84963 17.7545 3.12832 16.8077C3.82279 14.4483 4.78592 12.6542 6.39603 10.7205C10.0447 6.33861 16.8603 3.03279 23.7982 2.2798C25.7192 2.07131 29.3086 2.05326 29.861 2.2493C30.4286 2.45079 31.0224 3.10794 31.2132 3.74598C31.3393 4.16764 31.3229 4.29198 31.077 4.77474C30.9232 5.07676 30.6371 5.52122 30.4413 5.76243C30.2455 6.00364 29.7351 6.66395 29.3071 7.22978C28.8791 7.79561 27.8796 9.05822 27.0859 10.0356C26.2923 11.0129 25 12.7105 24.2141 13.8078C22.7593 15.8392 19.5741 20.6579 18.9386 21.7888C18.7459 22.1317 18.4029 22.6711 18.1763 22.9874C17.9498 23.3037 17.5613 23.9909 17.313 24.5146C16.8974 25.3912 16.8653 25.5393 16.9078 26.3825C16.9656 27.5298 17.3233 28.1265 18.3503 28.7888C19.8962 29.7858 18.4912 29.7074 34.8032 29.7074H49.3536L50.6148 28.3481C51.5891 27.298 51.9734 26.7774 52.3044 26.0598C52.7882 25.011 53.2883 23.3733 53.5044 22.1302C53.6878 21.0754 53.5735 18.2498 53.3182 17.5281C52.8378 15.5749 51.9881 13.6658 50.9397 11.9997C48.9419 8.87961 46.0958 6.4018 41.9818 4.20121C41.2516 3.81062 39.3864 2.91056 39.4154 2.88151C39.5049 2.79186 42.2823 3.95213 43.652 4.63454C47.0354 6.32014 49.9446 8.73309 51.8768 11.4564C53.3089 13.4748 54.4968 15.7718 55.0827 18.0868C55.4087 19.375 55.4487 20.496 55.4448 21.8992C55.437 24.6997 54.8526 26.5387 53.4829 29.2099C52.5219 31.0837 52.3023 31.3237 50.8467 32.0897L49.2341 32.6735L34.878 32.7626C20.2253 32.8535 20.1843 32.7619 18.7563 32.4863C15.7004 31.8966 14.4486 31.1685 13.6503 29.5167C13.2543 28.6972 13.1658 27.106 13.4527 25.9616C14.1091 23.3428 18.6122 16.3657 24.912 8.2066C26.1116 6.65289 27.1501 5.2751 27.2197 5.14484C27.5516 4.52362 27.2196 4.11235 26.2729 3.97215C25.6125 3.87435 22.246 4.39837 20.7889 4.82576C17.2273 5.87048 15.8529 6.40258 14.0746 7.42523C11.3982 8.96445 9.20337 10.8548 7.67987 12.933C6.05501 15.1495 5.40899 16.5437 4.79469 19.1599C4.43146 20.7068 4.51569 23.1223 4.99275 24.8396C5.98711 28.4193 8.09816 31.2018 11.7536 33.7507C12.3184 34.1446 12.7806 34.4902 12.7806 34.5188C12.7806 34.62 12.3362 34.5453 11.6602 34.3304Z" fill="url(#paint4_linear_1427_23719)"/>
<path d="M2.66101 20.0447C2.72003 18.2229 2.78015 17.7301 3.05884 16.7833C3.75331 14.4239 4.71643 12.6298 6.32654 10.6961C9.9752 6.31419 16.7908 3.00838 23.7287 2.25538C25.6497 2.0469 29.2391 2.02884 29.7915 2.22489C30.3592 2.42638 30.9529 3.08353 31.1437 3.72156C31.2698 4.14323 31.2534 4.26757 31.0075 4.75032C30.8537 5.05234 30.5677 5.4968 30.3718 5.73801C30.1761 5.97922 29.6657 6.63953 29.2376 7.20536C28.8096 7.77119 27.8101 9.0338 27.0165 10.0112C26.2228 10.9885 24.9305 12.686 24.1446 13.7834C22.6898 15.8147 19.5046 20.6335 18.8691 21.7644C18.6764 22.1073 18.3334 22.6467 18.1068 22.963C17.8803 23.2793 17.4918 23.9665 17.2435 24.4902C16.8279 25.3668 16.7958 25.5149 16.8383 26.358C16.8961 27.5054 17.2538 28.1021 18.2808 28.7644C19.8267 29.7614 18.4217 29.683 34.7337 29.683H49.2841L50.5453 28.3236C51.5196 27.2735 51.904 26.753 52.235 26.0354C52.7187 24.9866 53.2188 23.3489 53.4349 22.1058C53.6183 21.051 53.504 18.2254 53.2488 17.5037C52.7684 15.5505 51.6824 13.8776 50.6339 12.2115C48.6362 9.09143 45.79 6.61363 41.6761 4.41304C40.9459 4.02245 39.3169 2.88614 39.3459 2.85708C39.4354 2.76744 42.2128 3.92771 43.5826 4.61012C46.9659 6.29572 49.8751 8.70868 51.8073 11.432C53.2394 13.4504 54.4273 15.7474 55.0132 18.0624C55.3392 19.3505 55.3792 20.4716 55.3753 21.8748C55.3675 24.6753 54.7831 26.5143 53.4134 29.1855C52.4524 31.0593 52.2328 31.2992 50.7773 32.0653L49.1646 32.6491L34.8085 32.7382C20.1559 32.8291 20.1148 32.7374 18.6868 32.4619C15.6309 31.8722 14.3791 31.1441 13.5808 29.4923C13.1848 28.6728 13.0963 27.0816 13.3832 25.9372C14.0396 23.3184 18.5427 16.3413 24.8425 8.18218C26.0421 6.62847 27.0806 5.25068 27.1502 5.12042C27.4821 4.4992 27.1501 4.08794 26.2034 3.94774C25.543 3.84994 22.1765 4.37395 20.7194 4.80134C17.1578 5.84606 15.7834 6.37816 14.0052 7.40082C11.3287 8.94003 9.13389 10.8304 7.61038 12.9086C5.98552 15.125 5.33952 16.5193 4.72521 19.1354C4.36199 20.6824 4.44621 23.0978 4.92326 24.8152C2.85224 23.0852 2.61617 21.5511 2.66101 20.0447Z" fill="url(#paint5_linear_1427_23719)"/>
<path d="M3.21339 25.1314C2.69925 23.4923 2.58228 22.4187 2.6592 20.0447C2.71821 18.2229 2.77834 17.7301 3.05703 16.7833C3.7515 14.4239 4.71461 12.6298 6.32473 10.6961C9.97338 6.31419 16.789 3.00838 23.7269 2.25538C25.6479 2.0469 29.2373 2.02884 29.7897 2.22489C30.3573 2.42638 30.9511 3.08353 31.1419 3.72156C31.268 4.14323 31.2516 4.26757 31.0057 4.75032C30.8519 5.05234 30.5658 5.4968 30.37 5.73801C30.1742 5.97922 29.6639 6.63953 29.2358 7.20536C28.8078 7.77119 27.8083 9.0338 27.0146 10.0112C26.221 10.9885 24.9287 12.686 24.1428 13.7834C22.688 15.8147 19.5028 20.6335 18.8673 21.7644C18.6746 22.1073 18.3316 22.6467 18.105 22.963C17.8785 23.2793 17.49 23.9665 17.2417 24.4902C16.8261 25.3668 16.794 25.5149 16.8365 26.358C16.8943 27.5054 17.252 28.1021 18.279 28.7644C19.8249 29.7614 18.4199 29.683 34.7319 29.683H49.2823L50.5435 28.3236C51.5177 27.2735 51.9022 26.753 52.2331 26.0354C52.7169 24.9866 53.217 23.3489 53.4331 22.1058C53.6165 21.051 53.5022 18.2254 53.2469 17.5037C52.7666 15.5505 51.9168 13.6413 50.8684 11.9752C48.8706 8.85519 46.0245 6.37739 41.9105 4.1768C41.1803 3.78621 39.3151 2.88614 39.3441 2.85708C39.4336 2.76744 42.211 3.92771 43.5807 4.61012C46.9641 6.29572 49.8733 8.70868 51.8055 11.432C53.2376 13.4504 54.4255 15.7474 55.0114 18.0624C55.3374 19.3505 55.3774 20.4716 55.3735 21.8748C55.3656 24.6753 54.7813 26.5143 53.4116 29.1855C52.4506 31.0593 52.231 31.2992 50.7754 32.0653L49.1628 32.6491L34.8067 32.7382C20.154 32.8291 20.113 32.7374 18.685 32.4619C15.6291 31.8722 14.3773 31.1441 13.579 29.4923C13.183 28.6728 13.0945 27.0816 13.3813 25.9372C14.0378 23.3184 18.5409 16.3413 24.8407 8.18218C26.0403 6.62847 27.0788 5.25068 27.1484 5.12042C27.4803 4.4992 27.1483 4.08794 26.2016 3.94774C25.5412 3.84994 22.1747 4.37395 20.7176 4.80134C17.156 5.84606 15.7816 6.37816 14.0033 7.40082C11.3269 8.94003 9.13207 10.8304 7.60856 12.9086C5.98371 15.125 5.33769 16.5193 4.7234 19.1354C4.36017 20.6824 4.4444 23.0978 4.92145 24.8152C4.34048 25.1556 5.89239 27.5224 3.21339 25.1314Z" fill="url(#paint6_linear_1427_23719)"/>
<path d="M3.35206 24.9946C2.83793 23.3556 2.72095 22.282 2.79787 19.908C2.85689 18.0862 2.91701 17.5933 3.1957 16.6465C3.89017 14.2872 4.85329 12.4931 6.4634 10.5594C10.1121 6.17748 16.9276 2.87166 23.8656 2.11867C25.7865 1.91018 29.376 1.89212 29.9283 2.08817C30.496 2.28966 31.0898 2.94681 31.2806 3.58485C31.4067 4.00651 31.3902 4.13085 31.1444 4.61361C30.9906 4.91562 30.7045 5.36009 30.5087 5.6013C30.3129 5.84251 29.8025 6.50282 29.3745 7.06865C28.9465 7.63448 27.9469 8.89709 27.1533 9.87445C26.3597 10.8518 25.0674 12.5493 24.2815 13.6467C22.8267 15.678 19.6415 20.4967 19.006 21.6277C18.8133 21.9706 18.4702 22.51 18.2437 22.8263C18.0171 23.1425 17.6286 23.8298 17.3804 24.3534C16.9648 25.2301 16.9326 25.3782 16.9751 26.2213C17.033 27.3686 17.3907 27.9653 18.4177 28.6277C19.9635 29.6247 18.5586 29.5463 34.8706 29.5463H49.421L50.6822 28.1869C51.6564 27.1368 52.0408 26.6162 52.3718 25.8987C52.8556 24.8499 53.3557 23.2121 53.5718 21.9691C53.7551 20.9143 53.6409 18.0887 53.3856 17.367C52.9052 15.4138 51.8193 13.7409 50.7708 12.0748C48.7731 8.95471 45.9269 6.47691 41.813 4.27632C41.0827 3.88573 39.4537 2.74943 39.4827 2.72037C39.5722 2.63072 42.3497 3.791 43.7194 4.47341C47.1028 6.15901 50.012 8.57197 51.9442 11.2953C53.3762 13.3137 54.5642 15.6107 55.1501 17.9257C55.4761 19.2138 55.5161 20.3349 55.5122 21.738C55.5043 24.5386 54.92 26.3776 53.5502 29.0487C52.5893 30.9226 52.3697 31.1625 50.9141 31.9286L49.3014 32.5124L34.9454 32.6015C20.2927 32.6924 20.2517 32.6007 18.8236 32.3252C15.7678 31.7354 14.516 31.0074 13.7177 29.3556C13.3217 28.5361 13.2332 26.9448 13.52 25.8005C14.1765 23.1817 18.6796 16.2046 24.9794 8.04547C26.179 6.49175 27.2175 5.11396 27.2871 4.9837C27.619 4.36248 27.2869 3.95122 26.3402 3.81102C25.6799 3.71322 22.3134 4.23723 20.8563 4.66463C17.2946 5.70934 15.9203 6.24145 14.142 7.2641C11.4656 8.80332 9.27075 10.6937 7.74724 12.7719C6.12238 14.9883 5.47636 16.3826 4.86207 18.9987C4.49885 20.5456 4.58307 22.9611 5.06012 24.6785C4.47916 25.0189 4.60552 24.8815 3.35206 24.9946Z" fill="url(#paint7_linear_1427_23719)"/>
<g opacity="0.8">
<path d="M23.9727 2.36463C25.7799 2.16481 29.1569 2.14751 29.6765 2.33541C30.2106 2.52852 30.7692 3.15835 30.9487 3.76986C31.0674 4.17399 31.0519 4.29316 30.8206 4.75585C30.6759 5.04531 30.4068 5.47129 30.2226 5.70247C30.0384 5.93366 29.5582 6.56651 29.1555 7.10882C26.2435 10.0391 26.7912 8.37388 27.1916 5.11056C27.5039 4.51516 27.1915 4.121 26.3008 3.98663C25.1652 3.08792 26.249 3.23796 23.9727 2.36463Z" fill="url(#paint8_linear_1427_23719)"/>
</g>
<path d="M26.2406 10.7725C25.4939 11.7092 24.2781 13.3362 23.5387 14.3879C22.1701 16.3348 19.1734 20.9532 18.5755 22.0371C18.3942 22.3657 18.0715 22.8827 17.8583 23.1858C17.6452 23.489 17.2797 24.1476 17.0461 24.6495C16.6551 25.4897 16.6249 25.6317 16.6649 26.4397C16.7193 27.5394 17.0558 28.1112 18.022 28.7461C19.4764 29.7016 18.1546 29.6265 33.501 29.6265C35.4972 30.5146 51.0681 31.9925 33.5713 32.5546C19.7861 32.6418 19.7474 32.5539 18.4039 32.2898C15.529 31.7246 14.3513 31.0268 13.6003 29.4437C13.2277 28.6583 13.1444 27.1332 13.4143 26.0364C16.8168 14.2121 27.8624 8.25021 26.2406 10.7725Z" fill="url(#paint9_linear_1427_23719)"/>
<path d="M22.9735 27.3056C22.3525 26.4354 22.3353 25.4146 22.9192 24.0866C23.9459 21.7514 29.7578 13.6229 34.145 8.38593C36.6768 5.36387 37.6987 3.9255 37.6987 3.38421C37.6987 3.14601 37.5464 2.85579 37.2478 2.52528L36.4504 1.80566L37.1628 2.02611C37.6054 2.16308 38.8689 2.58438 39.2465 2.83176C39.8653 3.23725 39.7585 4.3669 39.1259 5.46825C38.8244 5.99315 37.6268 7.54192 36.5804 8.76005C33.7211 12.0885 30.3414 16.6468 27.1956 21.4173C25.5246 23.9514 24.9902 25.0291 25.171 25.5002C25.2645 25.7439 23.6784 27.5918 23.3805 27.5862C23.2652 27.5841 23.0821 27.4578 22.9735 27.3056Z" fill="#505050"/>
<path d="M49.635 28.1523C49.3664 27.8551 48.701 26.4622 48.701 26.2338C48.701 26.1344 48.9717 26.1342 49.0849 26.0426C49.4267 25.7663 49.6639 25.2062 50.0009 23.8793C50.7889 20.7765 50.4603 17.7027 49.0206 14.7096C47.2477 11.0239 43.5781 7.87848 39.4833 6.53467C38.9051 6.34492 38.7219 6.27655 38.5999 6.13779C38.39 5.89911 38.4172 5.81033 38.7615 5.05756C39.0173 4.49854 39.0755 4.20446 39.2665 4.1769C39.4159 4.15532 40.1425 4.44582 41.2211 4.97213C46.5069 7.55122 49.9751 10.8083 51.7204 14.8324C52.6346 16.9403 52.833 17.7735 52.913 19.8405C53.0122 22.4002 52.6059 24.2838 51.477 26.4977C50.5658 28.2849 50.0795 28.6441 49.635 28.1523Z" fill="url(#paint10_linear_1427_23719)"/>
<path d="M24.5378 28.297C23.8927 28.2163 23.2969 27.7995 23.2969 27.5512C23.2969 27.304 24.954 25.3936 25.1614 25.3936C25.2314 25.3936 25.2674 25.6648 25.4906 25.7786C25.8578 25.9657 27.0023 25.9902 37.4964 26.036L49.0963 26.0866L49.5964 26.9933C49.8991 27.5421 50.1552 28.0711 50.1062 28.1967C50.0313 28.3885 42.9694 28.5027 31.4512 28.4854C24.5966 28.4751 24.747 28.3232 24.5378 28.297V28.297Z" fill="url(#paint11_linear_1427_23719)"/>
<path opacity="0.5" d="M24.5378 28.297C23.8927 28.2163 23.2969 27.7995 23.2969 27.5512C23.2969 27.304 24.954 25.3936 25.1614 25.3936C25.2314 25.3936 25.2674 25.6648 25.4906 25.7786C25.8578 25.9657 27.0023 25.9902 37.4964 26.036L49.0963 26.0866L49.5964 26.9933C49.8991 27.5421 50.1552 28.0711 50.1062 28.1967C50.0313 28.3885 42.9694 28.5027 31.4512 28.4854C24.5966 28.4751 24.747 28.3232 24.5378 28.297V28.297Z" fill="url(#paint12_linear_1427_23719)"/>
<path d="M24.5513 39.2901C12.4964 38.2384 2.85703 31.1736 1.42448 22.3401C0.529309 16.8202 2.89777 11.4333 8.12033 7.11075C9.91785 5.62299 10.3908 5.31707 12.7045 4.14551C17.0299 1.95536 21.23 0.956426 26.7336 0.808856C29.695 0.729451 31.8441 0.86337 34.2736 1.27871C36.3893 1.64041 36.6423 1.72973 37.2376 2.325C37.6638 2.75123 37.7697 2.94511 37.7697 3.2992C37.7697 3.84001 37.1778 4.66504 34.0336 8.5066C30.2999 13.0684 28.0053 16.1564 25.0275 20.6267C22.5586 24.3332 22.2171 25.1591 22.6037 26.489C22.8892 27.4712 23.7834 27.9268 24.6619 28.094C25.7996 28.3105 27.0805 28.2596 35.6991 28.2459C40.2264 28.2388 49.8293 28.2594 50.1271 28.2375C50.5144 28.2091 50.7403 28.0969 50.9997 27.8484C51.8896 26.6964 52.2388 26.2151 51.0617 28.3072C50.5579 29.2027 49.7898 29.8967 48.9439 30.0723C47.9643 30.2757 22.1848 30.1753 20.7674 29.9626C19.5292 29.7768 18.8119 29.5034 17.8522 28.8517C17.2507 28.4433 17.0181 28.1875 16.7502 27.6399C16.4491 27.0244 16.4193 26.8534 16.4869 26.1289C16.5718 25.2198 16.9507 24.2914 17.6702 23.2296C17.9307 22.8451 18.333 22.1939 18.5641 21.7824C18.7953 21.3709 19.7768 19.8277 20.7452 18.3531C23.3149 14.44 25.931 10.8759 27.7932 8.75098C28.9648 7.41406 30.6555 5.10006 30.7772 4.66697C31.0132 3.82642 30.3529 2.6912 29.4396 2.36759C28.8173 2.14708 25.5083 2.19448 23.5156 2.45245C12.5709 3.86928 4.31162 10.1795 2.91432 18.1922C2.67681 19.5541 2.67535 22.2577 2.91125 23.6054C3.56289 27.3263 5.94558 30.7793 9.71907 33.4713C11.0936 34.4519 14.1026 35.9949 15.8843 36.6327C23.967 39.5264 34.2088 39.0656 41.9062 35.4622C43.7574 34.5956 44.5509 34.0578 45.704 32.8885L46.7173 31.8608L48.4654 31.7774C50.1345 31.6977 51.0577 31.7838 50.9354 31.9816C50.8239 32.1621 48.4699 33.0829 47.5282 33.4171C46.9963 33.6059 46.5018 33.9471 45.749 34.4204C39.9768 38.0489 31.9613 39.9366 24.5511 39.2901L24.5513 39.2901Z" fill="url(#paint13_linear_1427_23719)"/>
<path opacity="0.3" d="M24.689 39.2684C12.6341 38.2167 2.99473 31.1518 1.56217 22.3184C0.667005 16.7985 3.03547 11.4116 8.25802 7.08901C10.0555 5.60125 10.5285 5.29533 12.8422 4.12377C17.1676 1.93362 21.3677 0.934681 26.8713 0.787109C25.069 1.66834 26.0498 2.3294 23.6533 2.4307C12.7086 3.84754 4.44929 10.1578 3.05201 18.1705C2.81452 19.5324 2.81305 22.2359 3.04895 23.5837C3.70059 27.3045 6.08326 30.7575 9.85676 33.4496C11.2313 34.4302 14.2403 35.9731 16.022 36.611C24.1047 39.5046 34.3465 39.0439 42.0439 35.4404C43.8951 34.5738 44.6886 34.0361 45.8417 32.8667L46.855 31.8391L48.6031 31.7556C50.2722 31.6759 51.1954 31.7621 51.0731 31.9599C50.9616 32.1404 48.6076 33.0612 47.6659 33.3954C47.134 33.5841 46.6395 33.9254 45.8867 34.3987C40.1145 38.0272 32.099 39.9149 24.6888 39.2684L24.689 39.2684Z" fill="url(#paint14_linear_1427_23719)"/>
<path d="M24.6066 39.2833C12.5518 38.2316 3.1959 31.6392 1.76335 22.8057C0.868177 17.2859 3.23662 11.9934 8.45917 7.67089C10.2567 6.18312 10.7884 5.87246 12.9604 4.6064C17.149 2.16487 21.2853 0.94959 26.7889 0.802021C29.7504 0.722616 31.8995 0.856529 34.3289 1.27187C36.4447 1.63357 36.6977 1.72289 37.293 2.31817C37.7192 2.74439 37.8251 2.93828 37.8251 3.29237C37.8251 3.83317 37.2332 4.65821 34.089 8.49976C30.3552 13.0616 28.0606 16.1496 25.0829 20.6199C22.6139 24.3263 22.2725 25.1522 22.6591 26.4822C22.9446 27.4644 23.8388 27.92 24.7173 28.0871C25.855 28.3037 27.1359 28.2527 35.7545 28.2391C40.2818 28.2319 49.8847 28.2525 50.1825 28.2307C50.5698 28.2022 50.7956 28.0901 51.0551 27.8416C51.945 26.6896 52.2942 26.2083 51.1171 28.3004C50.6133 29.1958 49.8452 29.8899 48.9993 30.0655C48.0196 30.2689 22.2401 30.1685 20.8227 29.9558C19.5845 29.77 18.8672 29.4966 17.9076 28.8449C17.3061 28.4364 17.0735 28.1807 16.8056 27.6331C16.5044 27.0176 16.4746 26.8466 16.5423 26.1221C16.6272 25.213 17.0061 24.2845 17.7255 23.2228C17.986 22.8383 18.3883 22.1871 18.6195 21.7756C18.8507 21.364 19.8321 19.8208 20.8005 18.3462C23.3703 14.4331 25.9863 10.8691 27.8485 8.74414C29.0202 7.40722 30.7109 5.09323 30.8325 4.66013C31.0686 3.81959 30.4083 2.68436 29.495 2.36075C28.8727 2.14024 25.5637 2.18764 23.5709 2.44561C12.6263 3.86245 4.36698 10.1727 2.96968 18.1854C2.73219 19.5473 2.73072 22.2509 2.96662 23.5986C3.61827 27.3195 6.00095 30.7724 9.77443 33.4645C11.149 34.4451 14.158 35.988 15.9397 36.6259C24.0223 39.5195 34.2642 39.0588 41.9616 35.4553C43.8127 34.5887 44.6063 34.051 45.7593 32.8817L46.7727 31.854L48.5208 31.7705C50.1899 31.6909 51.1131 31.777 50.9908 31.9748C50.8793 32.1553 48.5253 33.0761 47.5836 33.4103C47.0517 33.599 46.5572 33.9403 45.8044 34.4136C40.0322 38.0421 32.0167 39.9298 24.6065 39.2833L24.6066 39.2833Z" fill="url(#paint15_linear_1427_23719)"/>
<path opacity="0.5" d="M24.5513 39.2899C12.4964 38.2382 2.85703 31.1733 1.42448 22.3398C0.529309 16.82 2.89777 11.433 8.12033 7.11049C9.91785 5.62273 10.3908 5.3168 12.7045 4.14525C17.0299 1.9551 21.23 0.956163 26.7336 0.808594C26.6176 2.00748 24.72 2.45724 23.5156 2.45218C12.5709 3.86902 4.31162 10.1793 2.91432 18.1919C2.67681 19.5539 2.67535 22.2574 2.91125 23.6051C3.56289 27.326 5.94558 30.779 9.71907 33.471C11.0936 34.4516 14.1026 35.9946 15.8843 36.6325C23.967 39.5261 34.2088 39.0654 41.9062 35.4619C43.7574 34.5953 44.5509 34.0576 45.704 32.8882L46.7173 31.8605L48.4654 31.7771C50.1345 31.6974 51.0577 31.7835 50.9354 31.9813C50.8239 32.1618 48.4699 33.0826 47.5282 33.4168C46.9963 33.6056 46.5018 33.9469 45.749 34.4201C39.9768 38.0486 31.9613 39.9363 24.5511 39.2899H24.5513Z" fill="url(#paint16_linear_1427_23719)"/>
<path opacity="0.3" d="M24.689 39.2684C12.6341 38.2167 2.99473 31.1518 1.56217 22.3184C0.667005 16.7985 3.03547 11.4116 8.25802 7.08901C10.0555 5.60125 10.5285 5.29533 12.8422 4.12377C17.1676 1.93362 21.3677 0.934681 26.8713 0.787109C25.069 1.66834 26.0498 2.3294 23.6533 2.4307C12.7086 3.84754 4.44929 10.1578 3.05201 18.1705C2.81452 19.5324 2.81305 22.2359 3.04895 23.5837C3.70059 27.3045 6.08326 30.7575 9.85676 33.4496C11.2313 34.4302 14.2403 35.9731 16.022 36.611C24.1047 39.5046 34.3465 39.0439 42.0439 35.4404C43.8951 34.5738 44.6886 34.0361 45.8417 32.8667L46.855 31.8391L48.6031 31.7556C50.2722 31.6759 51.1954 31.7621 51.0731 31.9599C50.9616 32.1404 48.6076 33.0612 47.6659 33.3954C47.134 33.5841 46.6395 33.9254 45.8867 34.3987C40.1145 38.0272 32.099 39.9149 24.6888 39.2684L24.689 39.2684Z" fill="url(#paint17_linear_1427_23719)"/>
<path opacity="0.3" d="M25.9355 28.833C24.9448 28.8091 23.1044 27.3664 23.2406 27.4819C24.2794 28.3635 28.6415 28.2834 37.1767 28.2624L50.1292 28.2307L50.4592 27.9145C50.6407 27.7406 51.0484 27.0535 51.3652 26.3875C53.2442 22.4375 53.251 18.4327 51.3855 14.5357C50.627 12.9513 49.7403 11.7007 48.3334 10.2309C46.2931 8.09958 44.369 6.65149 41.2877 5.29157C39.1024 4.3271 39.0392 4.54059 39.1291 3.93421C39.1291 3.78394 39.0473 3.59133 38.9807 3.35369C38.6931 2.32705 38.8258 2.55307 41.4195 3.90818C44.9048 5.72907 46.7858 6.96918 48.9797 9.25487C53.8257 14.3037 55.0308 20.8188 52.2016 26.673C51.6605 27.7928 50.8844 28.5575 50.0206 28.8223C49.6356 28.9402 47.3764 28.9494 38.3479 28.939C31.8665 28.9315 31.0127 28.9555 25.9355 28.833Z" fill="url(#paint18_linear_1427_23719)"/>
<path d="M25.937 28.4989C24.2113 28.4753 22.6553 27.0652 22.7915 27.1793C23.8303 28.0494 28.643 27.9564 37.1782 27.9358L50.1307 27.9044L50.4607 27.5924C50.6422 27.4208 51.0499 26.7426 51.3667 26.0853C53.2457 22.1869 53.2525 18.2343 51.387 14.3882C50.6285 12.8245 49.7418 11.5902 48.3349 10.1397C46.2946 8.03617 44.3705 6.60699 41.2892 5.26482C39.1039 4.31295 39.0407 4.52364 39.1306 3.92518C39.1306 3.77687 39.0488 3.58678 38.9822 3.35224C38.6946 2.33901 38.9609 3.08964 41.5547 4.42706C45.0399 6.22418 46.52 7.18431 48.7139 9.44016C53.5599 14.4231 55.0323 20.5893 52.2031 26.3671C51.662 27.4723 50.8859 28.227 50.0221 28.4883C49.6371 28.6047 47.3779 28.6138 38.3494 28.6035C31.868 28.596 31.0152 28.5683 25.937 28.4989Z" fill="url(#paint19_linear_1427_23719)"/>
<path opacity="0.5" d="M51.3886 14.5361C50.6301 12.9517 49.7434 11.701 48.3365 10.2313C46.2962 8.09997 44.3721 6.65188 41.2908 5.29196C39.1055 4.32749 39.0423 4.54097 39.1322 3.9346C39.1322 3.78433 39.0504 3.59172 38.9838 3.35407C38.6962 2.32744 38.6618 2.88755 41.2556 4.24266C44.7408 6.06355 46.7889 6.96957 48.9827 9.25526C50.8552 11.8049 49.6145 10.4431 51.3886 14.5361Z" fill="url(#paint20_linear_1427_23719)"/>
<path opacity="0.3" d="M45.8418 32.8662L46.8551 31.8386L48.6032 31.7551C50.2723 31.6754 51.1955 31.7616 51.0732 31.9594C49.9013 33.2856 44.7108 34.2275 45.8418 32.8662Z" fill="url(#paint21_linear_1427_23719)"/>
<path opacity="0.6" d="M24.6067 39.255C12.5518 38.2033 3.19591 31.6109 1.76335 22.7774C0.868164 17.2576 3.23663 11.9651 8.45918 7.64257C10.2567 6.15481 10.7884 5.84414 12.9604 4.57808C17.149 2.13655 21.2853 0.92127 26.7889 0.7737C29.7504 0.694295 31.8995 0.828214 34.3289 1.24355C36.4447 1.60526 36.6977 1.69457 37.293 2.28985C37.7192 2.71608 37.8251 2.90996 37.8251 3.26405C37.8251 3.80485 37.2332 4.62988 34.089 8.47143C30.3552 13.0332 28.0606 16.1212 25.0829 20.5916C22.6139 24.298 22.2725 25.1239 22.6591 26.4538C22.9446 27.4361 23.8388 27.8916 24.7173 28.0588C25.855 28.2754 27.1359 28.2244 35.7545 28.2108C40.2818 28.2036 49.8847 28.2242 50.1825 28.2023C50.5698 28.1739 50.7956 28.0618 51.0551 27.8133C51.945 26.6612 52.2942 26.18 51.1171 28.2721C50.6133 29.1675 49.8452 29.8616 48.9993 30.0372C48.0196 30.2406 22.2401 30.1402 20.8227 29.9274C19.5845 29.7416 18.8672 29.4683 17.9076 28.8166C17.3061 28.4081 17.0735 28.1524 16.8056 27.6048C16.5045 26.9893 16.4746 26.8183 16.5423 26.0938C16.6272 25.1847 17.0061 24.2562 17.7256 23.1944C17.986 22.81 18.3883 22.1587 18.6195 21.7472C18.8507 21.3357 19.8321 19.7925 20.8005 18.3179C23.3703 14.4048 25.9863 10.8408 27.8485 8.71582C29.0202 7.37891 30.7109 5.06491 30.8325 4.63181C31.0686 3.79127 30.4083 2.65604 29.495 2.33243C28.8727 2.11192 25.5637 2.15932 23.5709 2.41729C12.6263 3.83413 4.36699 10.1444 2.96969 18.1571C2.7322 19.519 2.73072 22.2225 2.96662 23.5702C3.61828 27.2911 6.00095 30.7441 9.77444 33.4361C11.149 34.4168 14.158 35.9597 15.9397 36.5976C24.0223 39.4912 34.2642 39.0305 41.9616 35.427C43.8127 34.5604 44.6063 34.0227 45.7593 32.8533L46.7727 31.8257L48.5208 31.7422C50.1899 31.6625 51.1131 31.7487 50.9908 31.9465C50.8793 32.127 48.5253 33.0477 47.5836 33.382C47.0517 33.5707 46.5572 33.912 45.8044 34.3852C40.0322 38.0138 32.0167 39.9014 24.6065 39.255H24.6067Z" fill="url(#paint22_radial_1427_23719)"/>
<defs>
<linearGradient id="paint0_linear_1427_23719" x1="0.240488" y1="12.5819" x2="49.4666" y2="44.6532" gradientUnits="userSpaceOnUse">
<stop stop-color="#000032"/>
<stop offset="0.25" stop-color="#646464"/>
<stop offset="0.423823"/>
<stop offset="1" stop-color="#787878"/>
</linearGradient>
<linearGradient id="paint1_linear_1427_23719" x1="2.50983" y1="36.0312" x2="52.9706" y2="35.6532" gradientUnits="userSpaceOnUse">
<stop stop-color="#999999"/>
<stop offset="0.220528" stop-color="#3C3C3C" stop-opacity="0.87451"/>
<stop offset="0.515847" stop-color="#969696"/>
<stop offset="0.752781" stop-color="#828282"/>
<stop offset="1" stop-color="#5A5A5A"/>
</linearGradient>
<linearGradient id="paint2_linear_1427_23719" x1="35.6767" y1="40.4719" x2="35.5819" y2="28.0929" gradientUnits="userSpaceOnUse">
<stop/>
<stop offset="1" stop-opacity="0"/>
</linearGradient>
<linearGradient id="paint3_linear_1427_23719" x1="18.4783" y1="2.57812" x2="54.6446" y2="43.7178" gradientUnits="userSpaceOnUse">
<stop stop-color="#5A5A5A"/>
<stop offset="0.268765" stop-color="#505050"/>
<stop offset="0.632019" stop-color="#666666"/>
<stop offset="0.667453" stop-color="#666666"/>
<stop offset="1" stop-color="#666666"/>
</linearGradient>
<linearGradient id="paint4_linear_1427_23719" x1="18.4783" y1="2.57812" x2="54.6446" y2="43.7178" gradientUnits="userSpaceOnUse">
<stop stop-color="#5A5A5A"/>
<stop offset="0.268765" stop-color="#505050"/>
<stop offset="0.632019" stop-color="#666666"/>
<stop offset="0.667453" stop-color="#666666"/>
<stop offset="1" stop-color="#666666"/>
</linearGradient>
<linearGradient id="paint5_linear_1427_23719" x1="4.53343" y1="6.645" x2="41.5341" y2="22.6048" gradientUnits="userSpaceOnUse">
<stop stop-color="#323232" stop-opacity="0"/>
<stop offset="0.39399" stop-color="#323232" stop-opacity="0.94902"/>
<stop offset="0.466851" stop-color="#323232" stop-opacity="0.901961"/>
<stop offset="0.704071" stop-color="#E1E1E1" stop-opacity="0.498039"/>
<stop offset="1" stop-color="#C8C8C8" stop-opacity="0"/>
</linearGradient>
<linearGradient id="paint6_linear_1427_23719" x1="35.3932" y1="34.1406" x2="35.5828" y2="28.0929" gradientUnits="userSpaceOnUse">
<stop/>
<stop offset="1" stop-opacity="0"/>
</linearGradient>
<linearGradient id="paint7_linear_1427_23719" x1="2.96535" y1="10.1116" x2="8.02825" y2="15.4506" gradientUnits="userSpaceOnUse">
<stop stop-color="#28170B"/>
<stop offset="1" stop-color="#28170B" stop-opacity="0"/>
</linearGradient>
<linearGradient id="paint8_linear_1427_23719" x1="27.3073" y1="6.71432" x2="25.4203" y2="2.44463" gradientUnits="userSpaceOnUse">
<stop stop-color="#B3B3B3" stop-opacity="0"/>
<stop offset="0.160949" stop-color="#B3B3B3" stop-opacity="0.300885"/>
<stop offset="0.341789" stop-color="#B3B3B3" stop-opacity="0.87451"/>
<stop offset="0.405936" stop-color="#B3B3B3" stop-opacity="0.74902"/>
<stop offset="0.658295" stop-color="#B3B3B3" stop-opacity="0"/>
<stop offset="1" stop-color="#B3B3B3" stop-opacity="0"/>
</linearGradient>
<linearGradient id="paint9_linear_1427_23719" x1="15.5926" y1="30.1879" x2="13.1638" y2="22.7681" gradientUnits="userSpaceOnUse">
<stop stop-color="#B3B3B3" stop-opacity="0"/>
<stop offset="0.12143" stop-color="#B3B3B3" stop-opacity="0.368627"/>
<stop offset="0.285824" stop-color="#B3B3B3" stop-opacity="0.87451"/>
<stop offset="0.383948" stop-color="#B3B3B3" stop-opacity="0.74902"/>
<stop offset="0.516942" stop-color="#B3B3B3" stop-opacity="0.498039"/>
<stop offset="1" stop-color="#B3B3B3" stop-opacity="0"/>
</linearGradient>
<linearGradient id="paint10_linear_1427_23719" x1="42.3339" y1="2.95699" x2="49.7756" y2="25.1799" gradientUnits="userSpaceOnUse">
<stop/>
<stop offset="0.552013" stop-color="#7D7D7D"/>
<stop offset="0.693304" stop-color="#969696"/>
<stop offset="0.857541" stop-color="#8A8A8A"/>
<stop offset="1" stop-color="#505050"/>
</linearGradient>
<linearGradient id="paint11_linear_1427_23719" x1="22.8526" y1="26.0191" x2="47.3233" y2="31.8075" gradientUnits="userSpaceOnUse">
<stop stop-color="#323232"/>
<stop offset="0.105545" stop-color="#B4B4B6"/>
<stop offset="0.253205" stop-color="#B4B4B4"/>
<stop offset="1" stop-color="#AAAAAA"/>
</linearGradient>
<linearGradient id="paint12_linear_1427_23719" x1="38.1924" y1="25.0087" x2="38.1924" y2="29.0847" gradientUnits="userSpaceOnUse">
<stop stop-color="#505050"/>
<stop offset="1" stop-color="#FAFAFA" stop-opacity="0"/>
</linearGradient>
<linearGradient id="paint13_linear_1427_23719" x1="6.32787" y1="-1.38331" x2="17.1004" y2="15.8149" gradientUnits="userSpaceOnUse">
<stop stop-color="#8282A9"/>
<stop offset="1" stop-color="#A9A9A9" stop-opacity="0"/>
</linearGradient>
<linearGradient id="paint14_linear_1427_23719" x1="49.1108" y1="31.7488" x2="35.902" y2="36.2791" gradientUnits="userSpaceOnUse">
<stop stop-color="#FAFAFA"/>
<stop offset="0.25" stop-color="#FAFAFA" stop-opacity="0.901961"/>
<stop offset="0.5" stop-color="#E1E1E1" stop-opacity="0.498039"/>
<stop offset="1" stop-color="#C8C8C8" stop-opacity="0"/>
</linearGradient>
<linearGradient id="paint15_linear_1427_23719" x1="29.5347" y1="-1.20116" x2="29.2441" y2="45.5324" gradientUnits="userSpaceOnUse">
<stop stop-color="#AAAAAA"/>
<stop offset="0.101807" stop-color="#BEBEBE"/>
<stop offset="0.211525" stop-color="#BEBEBE"/>
<stop offset="0.549206" stop-color="#B4B4B4"/>
<stop offset="0.673505" stop-color="#878787"/>
<stop offset="0.778718" stop-color="#969696"/>
<stop offset="1" stop-color="#AAAAAA"/>
</linearGradient>
<linearGradient id="paint16_linear_1427_23719" x1="0.0516023" y1="31.21" x2="10.9186" y2="21.7604" gradientUnits="userSpaceOnUse">
<stop stop-color="#E6E6E6"/>
<stop offset="1" stop-color="#FAFAFA" stop-opacity="0"/>
</linearGradient>
<linearGradient id="paint17_linear_1427_23719" x1="49.1108" y1="31.7488" x2="35.902" y2="36.2791" gradientUnits="userSpaceOnUse">
<stop stop-color="#FAFAFA"/>
<stop offset="0.25" stop-color="#FAFAFA" stop-opacity="0.901961"/>
<stop offset="0.5" stop-color="#E1E1E1" stop-opacity="0.498039"/>
<stop offset="1" stop-color="#C8C8C8" stop-opacity="0"/>
</linearGradient>
<linearGradient id="paint18_linear_1427_23719" x1="38.1638" y1="2.6931" x2="40.8556" y2="4.58302" gradientUnits="userSpaceOnUse">
<stop stop-color="#FAFAFA"/>
<stop offset="0.25" stop-color="#EDEDED" stop-opacity="0.74902"/>
<stop offset="0.5" stop-color="#E1E1E1" stop-opacity="0.498039"/>
<stop offset="1" stop-color="#C8C8C8" stop-opacity="0"/>
</linearGradient>
<linearGradient id="paint19_linear_1427_23719" x1="24.7148" y1="29.9799" x2="49.7562" y2="4.08806" gradientUnits="userSpaceOnUse">
<stop stop-color="#969696"/>
<stop offset="0.132623" stop-color="#C0BEBE"/>
<stop offset="0.5" stop-color="#B4B4B4"/>
<stop offset="1" stop-color="#BEBEBE"/>
</linearGradient>
<linearGradient id="paint20_linear_1427_23719" x1="37.7569" y1="4.0899" x2="43.1431" y2="5.12935" gradientUnits="userSpaceOnUse">
<stop stop-opacity="0"/>
<stop offset="0.109171" stop-color="#323232" stop-opacity="0.94902"/>
<stop offset="0.218341" stop-color="#323232" stop-opacity="0.901961"/>
<stop offset="0.506057" stop-color="#E1E1E1" stop-opacity="0.498039"/>
<stop offset="1" stop-color="#C8C8C8" stop-opacity="0"/>
</linearGradient>
<linearGradient id="paint21_linear_1427_23719" x1="48.4021" y1="31.7483" x2="48.3754" y2="33.3964" gradientUnits="userSpaceOnUse">
<stop stop-color="#FAFAFA"/>
<stop offset="0.5" stop-color="#FAFAFA" stop-opacity="0.901961"/>
<stop offset="0.697845" stop-color="#E1E1E1" stop-opacity="0.498039"/>
<stop offset="1" stop-color="#C8C8C8" stop-opacity="0"/>
</linearGradient>
<radialGradient id="paint22_radial_1427_23719" cx="0" cy="0" r="1" gradientUnits="userSpaceOnUse" gradientTransform="translate(27.6767 12.4786) rotate(76.732) scale(12.9459 16.4591)">
<stop stop-color="#DCDCDC" stop-opacity="0.901961"/>
<stop offset="0.752174" stop-color="#E1E1E1" stop-opacity="0.45098"/>
<stop offset="1" stop-color="#C8C8C8" stop-opacity="0"/>
</radialGradient>
</defs>
</svg>
