<svg width="24" height="22" viewBox="0 0 24 22" fill="none" xmlns="http://www.w3.org/2000/svg">
<path d="M23.3925 13.035V19.545C23.3925 20.4439 22.6639 21.1726 21.765 21.1725H2.23504C1.33617 21.1726 0.607544 20.4439 0.607544 19.545V13.035C0.607544 12.1361 1.33617 11.4075 2.23504 11.4075H7.11754C7.74397 11.4075 8.13548 12.0856 7.82227 12.6281C7.67691 12.8799 7.40827 13.035 7.11754 13.035H2.23504V19.545H21.765V13.035H16.8825C16.2561 13.035 15.8646 12.3569 16.1778 11.8144C16.3232 11.5626 16.5918 11.4075 16.8825 11.4075H21.765C22.6639 11.4075 23.3925 12.1361 23.3925 13.035ZM7.69327 7.10074L11.1863 3.6067V12.2213C11.1863 12.8477 11.8644 13.2392 12.4069 12.926C12.6587 12.7806 12.8138 12.512 12.8138 12.2213V3.6067L16.3068 7.10074C16.75 7.54394 17.5068 7.34116 17.669 6.73575C17.7443 6.45478 17.664 6.15498 17.4583 5.94929L12.5758 1.06679C12.2579 0.748571 11.7422 0.748571 11.4243 1.06679L6.54182 5.94929C6.09862 6.39248 6.3014 7.14926 6.90681 7.31147C7.18778 7.38676 7.48758 7.30643 7.69327 7.10074ZM19.3238 16.29C19.3238 15.3504 18.3066 14.7631 17.4929 15.2329C16.6791 15.7027 16.6791 16.8773 17.4929 17.3471C17.6784 17.4543 17.8889 17.5106 18.1032 17.5106C18.7773 17.5106 19.3238 16.9641 19.3238 16.29Z" fill="#808080"/>
</svg>
