<svg width="33" height="32" viewBox="0 0 33 32" fill="none" xmlns="http://www.w3.org/2000/svg">
<rect x="0.5" width="32" height="32" rx="6" fill="#34B233"/>
<path d="M18.4998 11.1079C17.8608 10.4949 17.4798 10.1729 16.9968 10.0519C16.4368 9.91089 15.8488 10.0689 14.6718 10.3849L13.4998 10.6989C12.3868 10.9989 11.8298 11.1469 11.4438 11.5159C11.0568 11.8859 10.9068 12.4099 10.6078 13.4589L9.05382 18.8969C8.54382 20.6849 8.28782 21.5789 8.72182 22.2839C9.09382 22.8889 10.5838 23.6339 12.0008 23.9999" stroke="white" stroke-width="1.5" stroke-linecap="round" stroke-linejoin="round"/>
<path d="M18.995 13.9997C19.836 13.4397 20.583 12.5427 21.047 11.4267C22.005 9.1217 21.394 6.7567 19.684 6.1457C17.973 5.5337 15.809 6.9057 14.851 9.2107C14.6956 9.58228 14.578 9.96856 14.5 10.3637" stroke="white" stroke-width="1.5" stroke-linecap="round" stroke-linejoin="round"/>
<path d="M22.558 12.536L21.558 11.923C20.555 11.308 20.054 11 19.5 11C18.946 11 18.445 11.308 17.442 11.923L16.442 12.536C15.493 13.118 15.019 13.409 14.76 13.878C14.5 14.348 14.5 14.913 14.5 16.044V21.909C14.5 23.838 14.5 24.802 15.086 25.401C15.672 26 16.614 26 18.5 26H20.5C22.386 26 23.328 26 23.914 25.4C24.5 24.802 24.5 23.838 24.5 21.91V16.044C24.5 14.913 24.5 14.347 24.24 13.878C23.98 13.409 23.507 13.118 22.558 12.536Z" stroke="white" stroke-width="1.5" stroke-linecap="round" stroke-linejoin="round"/>
</svg>
