<svg width="32" height="32" viewBox="0 0 32 32" fill="none" xmlns="http://www.w3.org/2000/svg">
<rect width="32" height="32" rx="6" fill="#E16045"/>
<path fill-rule="evenodd" clip-rule="evenodd" d="M22.3757 11.2184L20.1365 11.3363L19.4708 11.3713L19.5058 10.7056L19.6237 8.46639L20.822 8.52946L20.7863 9.20722L23.2163 6.7773C23.4506 6.54298 23.8305 6.54298 24.0648 6.7773C24.2991 7.01161 24.2991 7.39151 24.0648 7.62583L21.6349 10.0557L22.3126 10.0201L22.3757 11.2184ZM7.75879 10.6556C7.75879 9.13682 8.99 7.9056 10.5088 7.9056H18.2231C18.6373 7.9056 18.9731 8.24139 18.9731 8.6556C18.9731 9.06982 18.6373 9.4056 18.2231 9.4056H10.5088C9.81843 9.4056 9.25879 9.96525 9.25879 10.6556V22.6556C9.25879 23.346 9.81843 23.9056 10.5088 23.9056H19.6516C20.342 23.9056 20.9016 23.346 20.9016 22.6556V13.227C20.9016 12.8128 21.2374 12.477 21.6516 12.477C22.0659 12.477 22.4016 12.8128 22.4016 13.227V22.6556C22.4016 24.1744 21.1704 25.4056 19.6516 25.4056H10.5088C8.99001 25.4056 7.75879 24.1744 7.75879 22.6556V10.6556ZM19.4193 15.1158V15.9681H18.665V16.9567H19.4193V17.809H18.665V20.6556H17.2588L15.2876 17.809H13.0741V20.6556H11.4889V17.809H10.7261V16.9567H11.4889V15.9681H10.7261V15.1158H11.4889V11.9283H12.9079L15.1068 15.1158H17.0926V11.9283H18.665V15.1158H19.4193ZM15.6947 15.9681H17.0926V16.9567H16.3767L15.6947 15.9681ZM16.9646 17.809H17.0926V17.8772H17.0116L16.9646 17.809ZM14.0128 15.9681L14.6974 16.9567H13.0741V15.9681H14.0128ZM13.4226 15.1158H13.0741V14.711H13.1423L13.4226 15.1158Z" fill="white"/>
</svg>
