<svg width="33" height="32" viewBox="0 0 33 32" fill="none" xmlns="http://www.w3.org/2000/svg">
<rect x="0.5" width="32" height="32" rx="16" fill="#C3F6C2"/>
<path d="M17.3329 12.7386C16.9069 12.3299 16.6529 12.1153 16.3309 12.0346C15.9576 11.9406 15.5656 12.0459 14.7809 12.2566L13.9996 12.4659C13.2576 12.6659 12.8862 12.7646 12.6289 13.0106C12.3709 13.2573 12.2709 13.6066 12.0716 14.3059L11.0356 17.9313C10.6956 19.1233 10.5249 19.7193 10.8142 20.1893C11.0622 20.5926 12.0556 21.0893 13.0002 21.3333" stroke="#34B233" stroke-width="1.5" stroke-linecap="round" stroke-linejoin="round"/>
<path d="M17.6627 14.6652C18.2233 14.2918 18.7213 13.6938 19.0307 12.9498C19.6693 11.4132 19.262 9.8365 18.122 9.42916C16.9813 9.02116 15.5387 9.93583 14.9 11.4725C14.7964 11.7202 14.718 11.9777 14.666 12.2412" stroke="#34B233" stroke-width="1.5" stroke-linecap="round" stroke-linejoin="round"/>
<path d="M20.038 13.6881L19.3713 13.2794C18.7027 12.8694 18.3687 12.6641 17.9993 12.6641C17.63 12.6641 17.296 12.8694 16.6273 13.2794L15.9607 13.6881C15.328 14.0761 15.012 14.2701 14.8393 14.5827C14.666 14.8961 14.666 15.2727 14.666 16.0267V19.9367C14.666 21.2227 14.666 21.8654 15.0567 22.2647C15.4473 22.6641 16.0753 22.6641 17.3327 22.6641H18.666C19.9233 22.6641 20.5513 22.6641 20.942 22.2641C21.3327 21.8654 21.3327 21.2227 21.3327 19.9374V16.0267C21.3327 15.2727 21.3327 14.8954 21.1593 14.5827C20.986 14.2701 20.6707 14.0761 20.038 13.6881Z" stroke="#34B233" stroke-width="1.5" stroke-linecap="round" stroke-linejoin="round"/>
</svg>
