<svg width="33" height="32" viewBox="0 0 33 32" fill="none" xmlns="http://www.w3.org/2000/svg">
<rect x="0.75" width="32" height="32" rx="6" fill="#276BBB"/>
<g clip-path="url(#clip0_2812_52123)">
<path d="M28.1424 18.035V24.545C28.1424 25.4439 27.4138 26.1726 26.5149 26.1725H6.98492C6.08605 26.1726 5.35742 25.4439 5.35742 24.545V18.035C5.35742 17.1361 6.08605 16.4075 6.98492 16.4075H11.8674C12.4938 16.4075 12.8854 17.0856 12.5722 17.6281C12.4268 17.8799 12.1581 18.035 11.8674 18.035H6.98492V24.545H26.5149V18.035H21.6324C21.006 18.035 20.6145 17.3569 20.9277 16.8144C21.0731 16.5626 21.3417 16.4075 21.6324 16.4075H26.5149C27.4138 16.4075 28.1424 17.1361 28.1424 18.035ZM12.4431 12.1007L15.9362 8.6067V17.2213C15.9362 17.8477 16.6143 18.2392 17.1568 17.926C17.4086 17.7806 17.5637 17.512 17.5637 17.2213V8.6067L21.0567 12.1007C21.4999 12.5439 22.2567 12.3412 22.4189 11.7357C22.4942 11.4548 22.4138 11.155 22.2081 10.9493L17.3256 6.06679C17.0078 5.74857 16.4921 5.74857 16.1742 6.06679L11.2917 10.9493C10.8485 11.3925 11.0513 12.1493 11.6567 12.3115C11.9377 12.3868 12.2375 12.3064 12.4431 12.1007ZM24.0737 21.29C24.0737 20.3504 23.0565 19.7631 22.2427 20.2329C21.429 20.7027 21.429 21.8773 22.2427 22.3471C22.4283 22.4543 22.6388 22.5106 22.853 22.5106C23.5272 22.5106 24.0737 21.9641 24.0737 21.29Z" fill="white"/>
</g>
<defs>
<clipPath id="clip0_2812_52123">
<rect width="24" height="24" fill="white" transform="translate(4.75 4)"/>
</clipPath>
</defs>
</svg>
