<svg width="41" height="40" viewBox="0 0 41 40" fill="none" xmlns="http://www.w3.org/2000/svg">
<path d="M33.3993 13.8862L24.3327 3.88624C24.1769 3.71358 23.9866 3.57545 23.7742 3.48073C23.5618 3.38601 23.3319 3.33679 23.0993 3.33624H11.4327C10.8789 3.32963 10.3293 3.43217 9.81518 3.638C9.30106 3.84382 8.83252 4.14891 8.43632 4.53583C8.04011 4.92275 7.72401 5.38392 7.50605 5.89302C7.28809 6.40211 7.17254 6.94915 7.16602 7.5029V32.5029C7.17254 33.0567 7.28809 33.6037 7.50605 34.1128C7.72401 34.6219 8.04011 35.0831 8.43632 35.47C8.83252 35.8569 9.30106 36.162 9.81518 36.3678C10.3293 36.5736 10.8789 36.6762 11.4327 36.6696H29.566C30.1198 36.6762 30.6694 36.5736 31.1835 36.3678C31.6976 36.162 32.1662 35.8569 32.5624 35.47C32.9586 35.0831 33.2747 34.6219 33.4927 34.1128C33.7106 33.6037 33.8262 33.0567 33.8327 32.5029V15.0029C33.8316 14.5898 33.6772 14.1919 33.3993 13.8862ZM23.8327 8.33624L28.3993 13.3362H25.066C24.8915 13.3257 24.7208 13.2805 24.5639 13.2033C24.407 13.1261 24.2671 13.0184 24.1523 12.8865C24.0375 12.7546 23.9501 12.6012 23.8952 12.4352C23.8403 12.2692 23.8191 12.0939 23.8327 11.9196V8.33624ZM29.566 33.3362H11.4327C11.3166 33.343 11.2004 33.3268 11.0906 33.2885C10.9809 33.2503 10.8797 33.1907 10.793 33.1133C10.7063 33.0359 10.6358 32.9421 10.5854 32.8374C10.535 32.7326 10.5057 32.619 10.4993 32.5029V7.5029C10.5057 7.38684 10.535 7.27318 10.5854 7.16843C10.6358 7.06369 10.7063 6.96992 10.793 6.8925C10.8797 6.81508 10.9809 6.75554 11.0906 6.71729C11.2004 6.67903 11.3166 6.66282 11.4327 6.66957H20.4993V11.9196C20.4724 13.1473 20.9323 14.3358 21.7785 15.2257C22.6247 16.1156 23.7885 16.6347 25.016 16.6696H30.4993V32.5029C30.493 32.619 30.4637 32.7326 30.4133 32.8374C30.3629 32.9421 30.2924 33.0359 30.2057 33.1133C30.119 33.1907 30.0178 33.2503 29.9081 33.2885C29.7983 33.3268 29.6821 33.343 29.566 33.3362Z" fill="#E6583D"/>
<path d="M23.8333 21.6693H22.1667V20.0026C22.1667 19.5606 21.9911 19.1367 21.6785 18.8241C21.366 18.5115 20.942 18.3359 20.5 18.3359C20.058 18.3359 19.634 18.5115 19.3215 18.8241C19.0089 19.1367 18.8333 19.5606 18.8333 20.0026V21.6693H17.1667C16.7246 21.6693 16.3007 21.8449 15.9882 22.1574C15.6756 22.47 15.5 22.8939 15.5 23.3359C15.5 23.778 15.6756 24.2019 15.9882 24.5144C16.3007 24.827 16.7246 25.0026 17.1667 25.0026H18.8333V26.6693C18.8333 27.1113 19.0089 27.5352 19.3215 27.8478C19.634 28.1603 20.058 28.3359 20.5 28.3359C20.942 28.3359 21.366 28.1603 21.6785 27.8478C21.9911 27.5352 22.1667 27.1113 22.1667 26.6693V25.0026H23.8333C24.2754 25.0026 24.6993 24.827 25.0118 24.5144C25.3244 24.2019 25.5 23.778 25.5 23.3359C25.5 22.8939 25.3244 22.47 25.0118 22.1574C24.6993 21.8449 24.2754 21.6693 23.8333 21.6693Z" fill="#E6583D"/>
</svg>
