<svg width="24" height="24" viewBox="0 0 24 24" fill="none" xmlns="http://www.w3.org/2000/svg">
<path d="M5 4.375H4.375V5V19V19.625H5H11C11.2048 19.625 11.375 19.7952 11.375 20C11.375 20.2048 11.2048 20.375 11 20.375H5C4.24518 20.375 3.625 19.7548 3.625 19V5C3.625 4.24518 4.24518 3.625 5 3.625H11C11.2048 3.625 11.375 3.79518 11.375 4C11.375 4.20482 11.2048 4.375 11 4.375H5Z" fill="#E6583D" stroke="#E6583D" stroke-width="1.25"/>
<path d="M20.65 11.6486L17.86 8.85857C17.7905 8.78713 17.7012 8.73806 17.6036 8.71764C17.506 8.69723 17.4045 8.7064 17.3121 8.74399C17.2198 8.78158 17.1408 8.84586 17.0851 8.92863C17.0295 9.01139 16.9999 9.10887 17 9.20857V10.9986H10C9.45 10.9986 9 11.4486 9 11.9986C9 12.5486 9.45 12.9986 10 12.9986H17V14.7886C17 15.2386 17.54 15.4586 17.85 15.1386L20.64 12.3486C20.84 12.1586 20.84 11.8386 20.65 11.6486Z" fill="#E6583D"/>
</svg>
