<svg width="33" height="32" viewBox="0 0 33 32" fill="none" xmlns="http://www.w3.org/2000/svg">
<rect x="0.25" width="32" height="32" rx="16" fill="#E4E4E4"/>
<path d="M19.3327 16.0013C17.4927 16.0013 15.9993 17.4946 15.9993 19.3346C15.9993 21.1746 17.4927 22.668 19.3327 22.668C21.1727 22.668 22.666 21.1746 22.666 19.3346C22.666 17.4946 21.1727 16.0013 19.3327 16.0013ZM20.4327 20.9013L18.9993 19.468V17.3346H19.666V19.1946L20.8993 20.428L20.4327 20.9013ZM19.9993 10.0013H17.8793C17.5993 9.22797 16.866 8.66797 15.9993 8.66797C15.1327 8.66797 14.3993 9.22797 14.1193 10.0013H11.9993C11.266 10.0013 10.666 10.6013 10.666 11.3346V21.3346C10.666 22.068 11.266 22.668 11.9993 22.668H16.0727C15.6778 22.2856 15.3568 21.8335 15.126 21.3346H11.9993V11.3346H13.3327V13.3346H18.666V11.3346H19.9993V14.7213C20.4727 14.788 20.9193 14.928 21.3327 15.1213V11.3346C21.3327 10.6013 20.7327 10.0013 19.9993 10.0013ZM15.9993 11.3346C15.6327 11.3346 15.3327 11.0346 15.3327 10.668C15.3327 10.3013 15.6327 10.0013 15.9993 10.0013C16.366 10.0013 16.666 10.3013 16.666 10.668C16.666 11.0346 16.366 11.3346 15.9993 11.3346Z" fill="#4D4C4C"/>
</svg>
