<svg width="32" height="32" viewBox="0 0 32 32" fill="none" xmlns="http://www.w3.org/2000/svg">
<path fill-rule="evenodd" clip-rule="evenodd" d="M31.6837 19.1641V18.9968V12.8264C31.6837 5.7718 25.9124 0.000488281 18.8577 0.000488281H12.8259C7.15978 0.000488281 2.32048 3.72376 0.635681 8.84506C1.60354 5.30341 3.61574 2.3831 6.54083 0.000488281H0V12.8264V13.0033V19.1617C0 26.2164 5.77132 31.9877 12.8259 31.9877H18.8577C24.5454 31.9877 29.3967 28.2357 31.0647 23.0881C30.104 26.6585 28.0847 29.6027 25.1429 31.9996H31.6837V19.1617V19.1641ZM24.4307 15.9953C24.4307 11.2516 20.5856 7.40641 15.8418 7.40641C11.0981 7.40641 7.25298 11.2516 7.25298 15.9953C7.25298 20.739 11.0981 24.5841 15.8418 24.5841C20.5856 24.5841 24.4307 20.739 24.4307 15.9953Z" fill="#0066CB"/>
</svg>
