<svg width="40" height="40" viewBox="0 0 40 40" fill="none" xmlns="http://www.w3.org/2000/svg">
<rect width="40" height="40" rx="20" fill="#EDF4FF"/>
<mask id="path-2-inside-1_4511_82967" fill="white">
<path d="M19.8484 10.6948C17.0531 10.6538 13.1701 10.7138 12.3707 12.8613L10.4065 17.4702C10.3194 17.3706 10.2052 17.2984 10.0777 17.2626L9.28693 17.0402C9.19997 17.0155 9.10901 17.0083 9.01924 17.0189C8.92948 17.0294 8.8427 17.0577 8.76387 17.1019C8.68504 17.1461 8.61572 17.2055 8.55989 17.2765C8.50406 17.3476 8.46282 17.429 8.43853 17.5161L8.02597 18.981C8.00135 19.068 7.99414 19.1589 8.00475 19.2487C8.01536 19.3384 8.04358 19.4251 8.0878 19.5039C8.13202 19.5827 8.19136 19.652 8.26242 19.7079C8.33348 19.7637 8.41486 19.8049 8.50189 19.8292L9.29293 20.0519C9.31933 20.0591 9.34573 20.0615 9.37213 20.0658C9.22093 20.4426 9.12685 20.8569 9.12685 21.1034V26.4602C9.12685 26.7347 9.24205 26.8619 9.42493 26.9214V28.3485C9.42465 28.4752 9.44939 28.6007 9.49774 28.7178C9.54609 28.8348 9.61709 28.9412 9.70667 29.0308C9.79625 29.1204 9.90264 29.1914 10.0197 29.2398C10.1368 29.2881 10.2623 29.3128 10.389 29.3126H12.9755C13.1022 29.3128 13.2277 29.2881 13.3448 29.2398C13.4619 29.1914 13.5683 29.1204 13.6578 29.0308C13.7474 28.9412 13.8184 28.8348 13.8668 28.7178C13.9151 28.6007 13.9399 28.4752 13.9396 28.3485V26.9738H26.0603V28.3485C26.0601 28.4752 26.0849 28.6006 26.1332 28.7177C26.1816 28.8348 26.2527 28.9412 26.3423 29.0308C26.4318 29.1203 26.5382 29.1913 26.6553 29.2397C26.7724 29.288 26.8979 29.3128 27.0246 29.3126H29.6106C29.7373 29.3128 29.8628 29.2881 29.98 29.2398C30.0971 29.1914 30.2035 29.1204 30.2931 29.0308C30.3827 28.9413 30.4538 28.8349 30.5022 28.7178C30.5506 28.6007 30.5754 28.4752 30.5752 28.3485V26.9217C30.7583 26.8622 30.8728 26.735 30.8728 26.4604V21.1036C30.8728 20.8571 30.7785 20.4429 30.6275 20.0661C30.6539 20.062 30.6803 20.0596 30.7067 20.0522L31.498 19.8294C31.585 19.8051 31.6663 19.7639 31.7374 19.708C31.8084 19.6522 31.8677 19.5829 31.9119 19.5041C31.9561 19.4253 31.9843 19.3386 31.9949 19.2489C32.0055 19.1591 31.9983 19.0682 31.9737 18.9813L31.5616 17.5163C31.5373 17.4292 31.496 17.3478 31.4401 17.2768C31.3843 17.2057 31.3149 17.1463 31.2361 17.1021C31.1572 17.0579 31.0704 17.0297 30.9807 17.0191C30.8909 17.0085 30.7999 17.0157 30.7129 17.0404L29.9221 17.2629C29.7947 17.2988 29.6804 17.3709 29.5931 17.4705L27.6289 12.8615C26.7721 10.6814 22.6434 10.7361 19.8481 10.695M27.8538 17.7616C27.9004 17.8998 27.7612 17.992 27.6155 18.0004C27.6155 18.0004 27.1393 18.0407 26.4827 18.0938C25.983 16.9264 24.8219 16.1037 23.4767 16.1037C22.0005 16.1037 20.7472 17.0949 20.3452 18.4446C20.2338 18.4461 20.1045 18.4509 20.001 18.4509C17.4577 18.4509 12.3837 18.0004 12.3837 18.0004C12.2382 17.9918 12.0988 17.8996 12.1453 17.7616C14.0994 11.8046 14.1577 12.2524 19.8916 12.315C25.6252 12.3774 25.6585 11.9519 27.8538 17.7616ZM23.4767 17.2295C23.8307 17.2283 24.1794 17.3152 24.4915 17.4824C24.8035 17.6496 25.069 17.8919 25.264 18.1874C24.1156 18.2726 22.7939 18.3597 21.5622 18.4103C21.7394 18.0545 22.0127 17.7554 22.351 17.5467C22.6893 17.3381 23.0792 17.2282 23.4767 17.2295ZM10.2575 19.1625C10.2748 19.1882 10.2916 19.2138 10.3108 19.2386H10.2364L10.2575 19.1625ZM11.5281 20.6586C12.0311 20.6505 14.7316 21.5594 14.7316 21.5594C15.0688 21.6544 15.3657 22.2918 15.364 22.6422C15.3589 23.8223 12.3138 23.4126 11.0776 23.4174C10.9945 23.4176 10.9122 23.4014 10.8354 23.3696C10.7586 23.3379 10.6889 23.2914 10.6301 23.2326C10.5714 23.1739 10.5248 23.1042 10.4931 23.0274C10.4613 22.9506 10.445 22.8683 10.4452 22.7853V21.2913C10.4452 20.9409 11.025 20.6673 11.5281 20.6586ZM28.4716 20.6586C28.9746 20.667 29.5545 20.9409 29.5545 21.2913V22.7853C29.5546 22.8684 29.5384 22.9507 29.5066 23.0275C29.4749 23.1043 29.4283 23.174 29.3696 23.2328C29.3108 23.2916 29.241 23.3381 29.1642 23.3699C29.0875 23.4016 29.0051 23.4178 28.9221 23.4177C27.6861 23.4129 24.6407 23.8223 24.6357 22.6422C24.634 22.2918 24.9309 21.6544 25.2681 21.5594C25.2681 21.5594 27.9685 20.6505 28.4716 20.6586Z"/>
</mask>
<path d="M19.8484 10.6948C17.0531 10.6538 13.1701 10.7138 12.3707 12.8613L10.4065 17.4702C10.3194 17.3706 10.2052 17.2984 10.0777 17.2626L9.28693 17.0402C9.19997 17.0155 9.10901 17.0083 9.01924 17.0189C8.92948 17.0294 8.8427 17.0577 8.76387 17.1019C8.68504 17.1461 8.61572 17.2055 8.55989 17.2765C8.50406 17.3476 8.46282 17.429 8.43853 17.5161L8.02597 18.981C8.00135 19.068 7.99414 19.1589 8.00475 19.2487C8.01536 19.3384 8.04358 19.4251 8.0878 19.5039C8.13202 19.5827 8.19136 19.652 8.26242 19.7079C8.33348 19.7637 8.41486 19.8049 8.50189 19.8292L9.29293 20.0519C9.31933 20.0591 9.34573 20.0615 9.37213 20.0658C9.22093 20.4426 9.12685 20.8569 9.12685 21.1034V26.4602C9.12685 26.7347 9.24205 26.8619 9.42493 26.9214V28.3485C9.42465 28.4752 9.44939 28.6007 9.49774 28.7178C9.54609 28.8348 9.61709 28.9412 9.70667 29.0308C9.79625 29.1204 9.90264 29.1914 10.0197 29.2398C10.1368 29.2881 10.2623 29.3128 10.389 29.3126H12.9755C13.1022 29.3128 13.2277 29.2881 13.3448 29.2398C13.4619 29.1914 13.5683 29.1204 13.6578 29.0308C13.7474 28.9412 13.8184 28.8348 13.8668 28.7178C13.9151 28.6007 13.9399 28.4752 13.9396 28.3485V26.9738H26.0603V28.3485C26.0601 28.4752 26.0849 28.6006 26.1332 28.7177C26.1816 28.8348 26.2527 28.9412 26.3423 29.0308C26.4318 29.1203 26.5382 29.1913 26.6553 29.2397C26.7724 29.288 26.8979 29.3128 27.0246 29.3126H29.6106C29.7373 29.3128 29.8628 29.2881 29.98 29.2398C30.0971 29.1914 30.2035 29.1204 30.2931 29.0308C30.3827 28.9413 30.4538 28.8349 30.5022 28.7178C30.5506 28.6007 30.5754 28.4752 30.5752 28.3485V26.9217C30.7583 26.8622 30.8728 26.735 30.8728 26.4604V21.1036C30.8728 20.8571 30.7785 20.4429 30.6275 20.0661C30.6539 20.062 30.6803 20.0596 30.7067 20.0522L31.498 19.8294C31.585 19.8051 31.6663 19.7639 31.7374 19.708C31.8084 19.6522 31.8677 19.5829 31.9119 19.5041C31.9561 19.4253 31.9843 19.3386 31.9949 19.2489C32.0055 19.1591 31.9983 19.0682 31.9737 18.9813L31.5616 17.5163C31.5373 17.4292 31.496 17.3478 31.4401 17.2768C31.3843 17.2057 31.3149 17.1463 31.2361 17.1021C31.1572 17.0579 31.0704 17.0297 30.9807 17.0191C30.8909 17.0085 30.7999 17.0157 30.7129 17.0404L29.9221 17.2629C29.7947 17.2988 29.6804 17.3709 29.5931 17.4705L27.6289 12.8615C26.7721 10.6814 22.6434 10.7361 19.8481 10.695M27.8538 17.7616C27.9004 17.8998 27.7612 17.992 27.6155 18.0004C27.6155 18.0004 27.1393 18.0407 26.4827 18.0938C25.983 16.9264 24.8219 16.1037 23.4767 16.1037C22.0005 16.1037 20.7472 17.0949 20.3452 18.4446C20.2338 18.4461 20.1045 18.4509 20.001 18.4509C17.4577 18.4509 12.3837 18.0004 12.3837 18.0004C12.2382 17.9918 12.0988 17.8996 12.1453 17.7616C14.0994 11.8046 14.1577 12.2524 19.8916 12.315C25.6252 12.3774 25.6585 11.9519 27.8538 17.7616ZM23.4767 17.2295C23.8307 17.2283 24.1794 17.3152 24.4915 17.4824C24.8035 17.6496 25.069 17.8919 25.264 18.1874C24.1156 18.2726 22.7939 18.3597 21.5622 18.4103C21.7394 18.0545 22.0127 17.7554 22.351 17.5467C22.6893 17.3381 23.0792 17.2282 23.4767 17.2295ZM10.2575 19.1625C10.2748 19.1882 10.2916 19.2138 10.3108 19.2386H10.2364L10.2575 19.1625ZM11.5281 20.6586C12.0311 20.6505 14.7316 21.5594 14.7316 21.5594C15.0688 21.6544 15.3657 22.2918 15.364 22.6422C15.3589 23.8223 12.3138 23.4126 11.0776 23.4174C10.9945 23.4176 10.9122 23.4014 10.8354 23.3696C10.7586 23.3379 10.6889 23.2914 10.6301 23.2326C10.5714 23.1739 10.5248 23.1042 10.4931 23.0274C10.4613 22.9506 10.445 22.8683 10.4452 22.7853V21.2913C10.4452 20.9409 11.025 20.6673 11.5281 20.6586ZM28.4716 20.6586C28.9746 20.667 29.5545 20.9409 29.5545 21.2913V22.7853C29.5546 22.8684 29.5384 22.9507 29.5066 23.0275C29.4749 23.1043 29.4283 23.174 29.3696 23.2328C29.3108 23.2916 29.241 23.3381 29.1642 23.3699C29.0875 23.4016 29.0051 23.4178 28.9221 23.4177C27.6861 23.4129 24.6407 23.8223 24.6357 22.6422C24.634 22.2918 24.9309 21.6544 25.2681 21.5594C25.2681 21.5594 27.9685 20.6505 28.4716 20.6586Z" fill="#3385FF"/>
<path d="M12.3707 12.8613L12.5917 12.9555L12.5956 12.945L12.3707 12.8613ZM10.4065 17.4702L10.2258 17.6282L10.4774 17.916L10.6273 17.5643L10.4065 17.4702ZM10.0777 17.2626L10.0127 17.4937L10.0128 17.4937L10.0777 17.2626ZM9.28693 17.0402L9.22146 17.2711L9.22193 17.2712L9.28693 17.0402ZM8.43853 17.5161L8.66955 17.5811L8.6697 17.5806L8.43853 17.5161ZM8.02597 18.981L8.25689 19.0464L8.25698 19.0461L8.02597 18.981ZM8.50189 19.8292L8.56693 19.5982L8.5664 19.598L8.50189 19.8292ZM9.29293 20.0519L9.22788 20.2829L9.22978 20.2835L9.29293 20.0519ZM9.37213 20.0658L9.59487 20.1552L9.70637 19.8773L9.41089 19.829L9.37213 20.0658ZM9.42493 26.9214H9.66493V26.7472L9.49921 26.6932L9.42493 26.9214ZM9.42493 28.3485L9.66493 28.349V28.3485H9.42493ZM10.389 29.3126V29.0726H10.3885L10.389 29.3126ZM12.9755 29.3126L12.976 29.0726H12.9755V29.3126ZM13.9396 28.3485H13.6996L13.6996 28.349L13.9396 28.3485ZM13.9396 26.9738V26.7338H13.6996V26.9738H13.9396ZM26.0603 26.9738H26.3003V26.7338H26.0603V26.9738ZM26.0603 28.3485L26.3003 28.3489V28.3485H26.0603ZM27.0246 29.3126V29.0726H27.0241L27.0246 29.3126ZM29.6106 29.3126L29.6112 29.0726H29.6106V29.3126ZM30.5752 28.3485H30.3352V28.3489L30.5752 28.3485ZM30.5752 26.9217L30.501 26.6934L30.3352 26.7473V26.9217H30.5752ZM30.6275 20.0661L30.5908 19.8289L30.2924 19.875L30.4047 20.1553L30.6275 20.0661ZM30.7067 20.0522L30.6417 19.8211L30.6416 19.8212L30.7067 20.0522ZM31.498 19.8294L31.4334 19.5983L31.4329 19.5984L31.498 19.8294ZM31.9737 18.9813L31.7426 19.0463L31.7427 19.0467L31.9737 18.9813ZM31.5616 17.5163L31.3304 17.5809L31.3305 17.5813L31.5616 17.5163ZM30.7129 17.0404L30.7779 17.2714L30.7784 17.2713L30.7129 17.0404ZM29.9221 17.2629L29.8571 17.0318L29.857 17.0319L29.9221 17.2629ZM29.5931 17.4705L29.3723 17.5646L29.5219 17.9156L29.7735 17.6287L29.5931 17.4705ZM27.6289 12.8615L27.4055 12.9493L27.4081 12.9556L27.6289 12.8615ZM27.8538 17.7616L28.0814 17.6849L28.0783 17.6768L27.8538 17.7616ZM27.6155 18.0004L27.6017 17.7607L27.5952 17.7613L27.6155 18.0004ZM26.4827 18.0938L26.2621 18.1882L26.33 18.3469L26.502 18.333L26.4827 18.0938ZM20.3452 18.4446L20.3483 18.6846L20.5248 18.6823L20.5752 18.5131L20.3452 18.4446ZM12.3837 18.0004L12.4049 17.7612L12.3979 17.7608L12.3837 18.0004ZM12.1453 17.7616L12.3727 17.8383L12.3734 17.8364L12.1453 17.7616ZM19.8916 12.315L19.8889 12.555L19.889 12.555L19.8916 12.315ZM23.4767 17.2295L23.4759 17.4695L23.4775 17.4695L23.4767 17.2295ZM25.264 18.1874L25.2817 18.4267L25.6895 18.3964L25.4643 18.0551L25.264 18.1874ZM21.5622 18.4103L21.3474 18.3033L21.1663 18.6668L21.5721 18.6501L21.5622 18.4103ZM10.2575 19.1625L10.4566 19.0285L10.1656 18.5961L10.0262 19.0983L10.2575 19.1625ZM10.3108 19.2386V19.4786H10.8011L10.5003 19.0913L10.3108 19.2386ZM10.2364 19.2386L10.0051 19.1744L9.92067 19.4786H10.2364V19.2386ZM11.5281 20.6586L11.5242 20.4187L11.5239 20.4187L11.5281 20.6586ZM14.7316 21.5594L14.6549 21.7871L14.6665 21.7904L14.7316 21.5594ZM15.364 22.6422L15.124 22.6411L15.124 22.6412L15.364 22.6422ZM11.0776 23.4174L11.078 23.6574L11.0785 23.6574L11.0776 23.4174ZM10.4452 22.7853L10.6852 22.7856V22.7853H10.4452ZM28.4716 20.6586L28.4756 20.4187L28.4755 20.4187L28.4716 20.6586ZM29.5545 22.7853H29.3145V22.7857L29.5545 22.7853ZM28.9221 23.4177L28.9211 23.6577L28.9216 23.6577L28.9221 23.4177ZM24.6357 22.6422L24.8757 22.6412V22.6411L24.6357 22.6422ZM25.2681 21.5594L25.3332 21.7906L25.3446 21.7868L25.2681 21.5594ZM19.8519 10.4548C18.4557 10.4343 16.7627 10.4381 15.3149 10.7218C13.8834 11.0024 12.593 11.5761 12.1458 12.7775L12.5956 12.945C12.9478 11.999 13.9986 11.4689 15.4072 11.1928C16.7996 10.92 18.4458 10.9142 19.8448 10.9348L19.8519 10.4548ZM12.1499 12.7672L10.1857 17.3761L10.6273 17.5643L12.5915 12.9554L12.1499 12.7672ZM10.5872 17.3123C10.4694 17.1775 10.315 17.08 10.1427 17.0316L10.0128 17.4937C10.0954 17.5169 10.1694 17.5636 10.2258 17.6282L10.5872 17.3123ZM10.1427 17.0316L9.35193 16.8091L9.22193 17.2712L10.0127 17.4937L10.1427 17.0316ZM9.3524 16.8093C9.23504 16.776 9.11226 16.7662 8.99112 16.7805L9.04737 17.2572C9.10575 17.2503 9.16491 17.255 9.22146 17.2711L9.3524 16.8093ZM8.99112 16.7805C8.86997 16.7948 8.75284 16.8329 8.64645 16.8926L8.88129 17.3112C8.93255 17.2824 8.98899 17.2641 9.04737 17.2572L8.99112 16.7805ZM8.64645 16.8926C8.54006 16.9522 8.4465 17.0324 8.37115 17.1283L8.74863 17.4248C8.78494 17.3786 8.83002 17.34 8.88129 17.3112L8.64645 16.8926ZM8.37115 17.1283C8.2958 17.2242 8.24014 17.3341 8.20736 17.4516L8.6697 17.5806C8.6855 17.5239 8.71232 17.471 8.74863 17.4248L8.37115 17.1283ZM8.20752 17.451L7.79496 18.916L8.25698 19.0461L8.66954 17.5811L8.20752 17.451ZM7.79505 18.9156C7.76182 19.033 7.75209 19.1557 7.76641 19.2768L8.24309 19.2205C8.23619 19.1621 8.24088 19.103 8.25689 19.0464L7.79505 18.9156ZM7.76641 19.2768C7.78073 19.3979 7.81882 19.515 7.8785 19.6214L8.2971 19.3865C8.26834 19.3353 8.24999 19.2788 8.24309 19.2205L7.76641 19.2768ZM7.8785 19.6214C7.93817 19.7277 8.01826 19.8213 8.11417 19.8966L8.41066 19.5191C8.36445 19.4828 8.32586 19.4378 8.2971 19.3865L7.8785 19.6214ZM8.11417 19.8966C8.21008 19.9719 8.31991 20.0276 8.43738 20.0604L8.5664 19.598C8.5098 19.5822 8.45688 19.5554 8.41066 19.5191L8.11417 19.8966ZM8.43685 20.0602L9.22789 20.2829L9.35797 19.8209L8.56693 19.5982L8.43685 20.0602ZM9.22978 20.2835C9.27202 20.295 9.32926 20.302 9.33337 20.3027L9.41089 19.829C9.40172 19.8275 9.39306 19.8262 9.38635 19.8253C9.37896 19.8242 9.37411 19.8235 9.36918 19.8228C9.3597 19.8213 9.35663 19.8205 9.35608 19.8204L9.22978 20.2835ZM9.14939 19.9765C8.99198 20.3688 8.88685 20.8149 8.88685 21.1034H9.36685C9.36685 20.8989 9.44989 20.5165 9.59487 20.1552L9.14939 19.9765ZM8.88685 21.1034V26.4602H9.36685V21.1034H8.88685ZM8.88685 26.4602C8.88685 26.63 8.92253 26.7835 9.01091 26.9094C9.1004 27.0368 9.22487 27.1087 9.35066 27.1497L9.49921 26.6932C9.44212 26.6746 9.41754 26.6532 9.40372 26.6335C9.38877 26.6122 9.36685 26.5649 9.36685 26.4602H8.88685ZM9.18493 26.9214V28.3485H9.66493V26.9214H9.18493ZM9.18493 28.3479C9.18458 28.5062 9.21549 28.663 9.2759 28.8093L9.71957 28.6262C9.68329 28.5383 9.66472 28.4441 9.66493 28.349L9.18493 28.3479ZM9.2759 28.8093C9.33631 28.9557 9.42503 29.0886 9.53696 29.2005L9.87637 28.8611C9.80914 28.7939 9.75586 28.714 9.71957 28.6262L9.2759 28.8093ZM9.53696 29.2005C9.64889 29.3125 9.78183 29.4012 9.92814 29.4616L10.1113 29.0179C10.0235 28.9816 9.9436 28.9283 9.87637 28.8611L9.53696 29.2005ZM9.92814 29.4616C10.0745 29.522 10.2313 29.5529 10.3896 29.5526L10.3885 29.0726C10.2934 29.0728 10.1992 29.0542 10.1113 29.0179L9.92814 29.4616ZM10.389 29.5526H12.9755V29.0726H10.389V29.5526ZM12.975 29.5526C13.1332 29.5529 13.29 29.522 13.4364 29.4616L13.2532 29.0179C13.1653 29.0542 13.0711 29.0728 12.976 29.0726L12.975 29.5526ZM13.4364 29.4616C13.5827 29.4012 13.7156 29.3125 13.8275 29.2005L13.4881 28.8611C13.4209 28.9283 13.3411 28.9816 13.2532 29.0179L13.4364 29.4616ZM13.8275 29.2005C13.9395 29.0886 14.0282 28.9557 14.0886 28.8093L13.6449 28.6262C13.6086 28.714 13.5554 28.7939 13.4881 28.8611L13.8275 29.2005ZM14.0886 28.8093C14.149 28.663 14.1799 28.5062 14.1796 28.3479L13.6996 28.349C13.6998 28.4441 13.6812 28.5383 13.6449 28.6262L14.0886 28.8093ZM14.1796 28.3485V26.9738H13.6996V28.3485H14.1796ZM13.9396 27.2138H26.0603V26.7338H13.9396V27.2138ZM25.8203 26.9738V28.3485H26.3003V26.9738H25.8203ZM25.8203 28.3481C25.82 28.5063 25.851 28.6631 25.9114 28.8094L26.3551 28.6261C26.3187 28.5382 26.3001 28.444 26.3003 28.3489L25.8203 28.3481ZM25.9114 28.8094C25.9719 28.9557 26.0606 29.0886 26.1726 29.2005L26.5119 28.861C26.4447 28.7938 26.3914 28.714 26.3551 28.6261L25.9114 28.8094ZM26.1726 29.2005C26.2845 29.3124 26.4174 29.4011 26.5637 29.4615L26.7469 29.0179C26.6591 28.9816 26.5792 28.9283 26.5119 28.861L26.1726 29.2005ZM26.5637 29.4615C26.71 29.5219 26.8668 29.5529 27.0251 29.5526L27.0241 29.0726C26.929 29.0727 26.8348 29.0542 26.7469 29.0179L26.5637 29.4615ZM27.0246 29.5526H29.6106V29.0726H27.0246V29.5526ZM29.6101 29.5526C29.7684 29.5529 29.9252 29.522 30.0715 29.4616L29.8884 29.0179C29.8005 29.0542 29.7063 29.0728 29.6112 29.0726L29.6101 29.5526ZM30.0715 29.4616C30.2179 29.4012 30.3508 29.3125 30.4628 29.2006L30.1235 28.8611C30.0562 28.9283 29.9763 28.9816 29.8884 29.0179L30.0715 29.4616ZM30.4628 29.2006C30.5748 29.0887 30.6635 28.9558 30.724 28.8095L30.2804 28.6261C30.2441 28.714 30.1907 28.7939 30.1235 28.8611L30.4628 29.2006ZM30.724 28.8095C30.7845 28.6632 30.8154 28.5064 30.8152 28.3481L30.3352 28.3489C30.3353 28.444 30.3167 28.5382 30.2804 28.6261L30.724 28.8095ZM30.8152 28.3485V26.9217H30.3352V28.3485H30.8152ZM30.6494 27.1499C30.7754 27.109 30.8999 27.037 30.9892 26.9093C31.0774 26.7834 31.1128 26.6299 31.1128 26.4604H30.6328C30.6328 26.5654 30.6109 26.6128 30.5961 26.634C30.5824 26.6535 30.5581 26.6749 30.501 26.6934L30.6494 27.1499ZM31.1128 26.4604V21.1036H30.6328V26.4604H31.1128ZM31.1128 21.1036C31.1128 20.815 31.0074 20.3689 30.8503 19.9768L30.4047 20.1553C30.5495 20.5168 30.6328 20.8992 30.6328 21.1036H31.1128ZM30.6641 20.3033C30.6713 20.3021 30.7267 20.2959 30.7718 20.2832L30.6416 19.8212C30.6417 19.8211 30.6392 19.8218 30.6304 19.8232C30.626 19.8239 30.6212 19.8245 30.6143 19.8255C30.608 19.8264 30.5996 19.8275 30.5908 19.8289L30.6641 20.3033ZM30.7717 20.2832L31.563 20.0605L31.4329 19.5984L30.6417 19.8211L30.7717 20.2832ZM31.5626 20.0606C31.68 20.0278 31.7898 19.9721 31.8857 19.8967L31.5891 19.5193C31.5429 19.5556 31.49 19.5825 31.4334 19.5983L31.5626 20.0606ZM31.8857 19.8967C31.9815 19.8214 32.0616 19.7279 32.1212 19.6215L31.7026 19.3867C31.6738 19.438 31.6353 19.483 31.5891 19.5193L31.8857 19.8967ZM32.1212 19.6215C32.1809 19.5152 32.219 19.3981 32.2332 19.277L31.7566 19.2207C31.7497 19.2791 31.7313 19.3355 31.7026 19.3867L32.1212 19.6215ZM32.2332 19.277C32.2475 19.1559 32.2378 19.0332 32.2046 18.9159L31.7427 19.0467C31.7588 19.1032 31.7635 19.1624 31.7566 19.2207L32.2332 19.277ZM32.2047 18.9163L31.7926 17.4513L31.3305 17.5813L31.7426 19.0463L32.2047 18.9163ZM31.7927 17.4518C31.7599 17.3343 31.7042 17.2244 31.6288 17.1285L31.2514 17.425C31.2878 17.4713 31.3146 17.5242 31.3304 17.5809L31.7927 17.4518ZM31.6288 17.1285C31.5535 17.0325 31.4599 16.9524 31.3535 16.8928L31.1187 17.3114C31.17 17.3402 31.2151 17.3788 31.2514 17.425L31.6288 17.1285ZM31.3535 16.8928C31.2471 16.8331 31.1299 16.795 31.0088 16.7807L30.9526 17.2574C31.011 17.2643 31.0674 17.2827 31.1187 17.3114L31.3535 16.8928ZM31.0088 16.7807C30.8876 16.7664 30.7648 16.7762 30.6475 16.8095L30.7784 17.2713C30.835 17.2553 30.8942 17.2505 30.9526 17.2574L31.0088 16.7807ZM30.6479 16.8094L29.8571 17.0318L29.9871 17.4939L30.7779 17.2714L30.6479 16.8094ZM29.857 17.0319C29.6849 17.0804 29.5306 17.1778 29.4127 17.3122L29.7735 17.6287C29.8302 17.5641 29.9045 17.5172 29.9873 17.4939L29.857 17.0319ZM29.8139 17.3764L27.8497 12.7674L27.4081 12.9556L29.3723 17.5646L29.8139 17.3764ZM27.8523 12.7737C27.3728 11.5537 26.001 11.0046 24.5074 10.7398C22.9949 10.4716 21.2404 10.4755 19.8517 10.4551L19.8446 10.935C21.2511 10.9557 22.9586 10.9527 24.4236 11.2124C25.9073 11.4755 27.0282 11.9892 27.4056 12.9493L27.8523 12.7737ZM27.6264 17.8382C27.6231 17.8286 27.6202 17.8084 27.6275 17.7847C27.6343 17.763 27.6455 17.7519 27.6485 17.7492C27.6511 17.7469 27.6487 17.7498 27.6384 17.7535C27.6285 17.7571 27.6157 17.76 27.6017 17.7608L27.6293 18.24C27.7418 18.2335 27.8683 18.1949 27.965 18.1102C28.0735 18.015 28.1401 17.8596 28.0813 17.685L27.6264 17.8382ZM27.6155 18.0004C27.5952 17.7613 27.5952 17.7613 27.5952 17.7613C27.5952 17.7613 27.5952 17.7613 27.5952 17.7613C27.5952 17.7613 27.5952 17.7613 27.5952 17.7613C27.5951 17.7613 27.595 17.7613 27.5949 17.7613C27.5947 17.7613 27.5943 17.7613 27.5939 17.7614C27.593 17.7614 27.5916 17.7616 27.5898 17.7617C27.5861 17.762 27.5807 17.7625 27.5736 17.7631C27.5593 17.7643 27.5382 17.7661 27.5108 17.7684C27.4559 17.773 27.3759 17.7797 27.2755 17.788C27.0745 17.8047 26.7915 17.828 26.4634 17.8545L26.502 18.333C26.8306 18.3064 27.1139 18.2831 27.3152 18.2664C27.4158 18.258 27.4959 18.2513 27.5509 18.2467C27.5784 18.2444 27.5996 18.2426 27.6139 18.2414C27.6211 18.2408 27.6265 18.2403 27.6302 18.24C27.632 18.2399 27.6334 18.2397 27.6343 18.2397C27.6348 18.2396 27.6352 18.2396 27.6354 18.2396C27.6355 18.2396 27.6356 18.2396 27.6357 18.2395C27.6357 18.2395 27.6357 18.2395 27.6357 18.2395C27.6357 18.2395 27.6357 18.2395 27.6357 18.2395C27.6357 18.2395 27.6357 18.2395 27.6155 18.0004ZM26.7033 17.9993C26.1675 16.7474 24.922 15.8637 23.4767 15.8637V16.3437C24.7218 16.3437 25.7986 17.1054 26.2621 18.1882L26.7033 17.9993ZM23.4767 15.8637C21.8907 15.8637 20.5464 16.9282 20.1152 18.3761L20.5752 18.5131C20.9479 17.2616 22.1102 16.3437 23.4767 16.3437V15.8637ZM20.3421 18.2047C20.2193 18.2062 20.105 18.2109 20.001 18.2109V18.6909C20.1039 18.6909 20.2483 18.6859 20.3483 18.6846L20.3421 18.2047ZM20.001 18.2109C18.7389 18.2109 16.8423 18.0989 15.2556 17.9862C14.4635 17.93 13.7506 17.8738 13.2358 17.8316C12.9784 17.8105 12.7706 17.7929 12.6271 17.7806C12.5554 17.7745 12.4998 17.7697 12.4621 17.7664C12.4433 17.7647 12.429 17.7635 12.4193 17.7626C12.4145 17.7622 12.4109 17.7619 12.4085 17.7617C12.4073 17.7615 12.4064 17.7615 12.4058 17.7614C12.4055 17.7614 12.4052 17.7614 12.4051 17.7614C12.405 17.7613 12.405 17.7613 12.4049 17.7613C12.4049 17.7613 12.4049 17.7613 12.3837 18.0004C12.3624 18.2395 12.3625 18.2395 12.3625 18.2395C12.3625 18.2395 12.3626 18.2395 12.3627 18.2395C12.3628 18.2395 12.3631 18.2395 12.3634 18.2395C12.364 18.2396 12.365 18.2397 12.3662 18.2398C12.3687 18.24 12.3724 18.2403 12.3772 18.2408C12.387 18.2416 12.4014 18.2429 12.4204 18.2445C12.4583 18.2479 12.5142 18.2527 12.5861 18.2589C12.7301 18.2712 12.9386 18.2888 13.1966 18.31C13.7127 18.3523 14.4273 18.4086 15.2216 18.465C16.8078 18.5776 18.7199 18.6909 20.001 18.6909V18.2109ZM12.3979 17.7608C12.3839 17.76 12.371 17.7571 12.361 17.7535C12.3507 17.7497 12.3481 17.7468 12.3506 17.749C12.3536 17.7516 12.3648 17.7627 12.3716 17.7844C12.379 17.8082 12.376 17.8285 12.3727 17.8383L11.9179 17.6849C11.8589 17.8597 11.926 18.0151 12.0343 18.11C12.1308 18.1946 12.2572 18.2333 12.3694 18.24L12.3979 17.7608ZM12.3734 17.8364C12.863 16.3437 13.2287 15.2692 13.5913 14.4899C13.953 13.7127 14.2983 13.2598 14.7305 12.983C15.1648 12.7049 15.7194 12.5833 16.5491 12.5416C17.3816 12.4998 18.4451 12.5392 19.8889 12.555L19.8942 12.0751C18.4712 12.0595 17.3771 12.0195 16.525 12.0622C15.67 12.1051 15.0129 12.2321 14.4716 12.5788C13.9282 12.9269 13.5342 13.475 13.1561 14.2874C12.7791 15.0976 12.4047 16.201 11.9173 17.6868L12.3734 17.8364ZM19.889 12.555C21.3323 12.5707 22.3947 12.5558 23.2289 12.6148C24.0597 12.6735 24.6224 12.8041 25.0719 13.0863C25.5195 13.3674 25.8841 13.8176 26.2766 14.5784C26.6704 15.3418 27.0792 16.3907 27.6293 17.8464L28.0783 17.6768C27.5308 16.2277 27.1122 15.1511 26.7032 14.3583C26.2928 13.563 25.8791 13.0264 25.3272 12.6798C24.7772 12.3345 24.1194 12.1966 23.2628 12.136C22.4095 12.0757 21.3176 12.0905 19.8942 12.0751L19.889 12.555ZM23.4775 17.4695C23.7917 17.4684 24.1012 17.5456 24.3781 17.694L24.6048 17.2709C24.2577 17.0849 23.8697 16.9882 23.4759 16.9895L23.4775 17.4695ZM24.3781 17.694C24.655 17.8424 24.8906 18.0574 25.0637 18.3196L25.4643 18.0551C25.2473 17.7264 24.952 17.4569 24.6048 17.2709L24.3781 17.694ZM25.2462 17.948C24.099 18.0331 22.7803 18.12 21.5524 18.1705L21.5721 18.6501C22.8075 18.5993 24.1322 18.512 25.2817 18.4267L25.2462 17.948ZM21.777 18.5173C21.9343 18.2016 22.1767 17.9362 22.477 17.751L22.225 17.3425C21.8486 17.5746 21.5446 17.9074 21.3474 18.3033L21.777 18.5173ZM22.477 17.751C22.7772 17.5658 23.1232 17.4683 23.4759 17.4695L23.4775 16.9895C23.0352 16.9881 22.6014 17.1103 22.225 17.3425L22.477 17.751ZM10.0584 19.2965C10.0731 19.3184 10.0957 19.3529 10.1212 19.3858L10.5003 19.0913C10.4875 19.0748 10.4764 19.0579 10.4566 19.0285L10.0584 19.2965ZM10.3108 18.9986H10.2364V19.4786H10.3108V18.9986ZM10.4676 19.3028L10.4887 19.2267L10.0262 19.0983L10.0051 19.1744L10.4676 19.3028ZM11.5319 20.8986C11.5673 20.898 11.6429 20.9066 11.7637 20.9305C11.8792 20.9533 12.0209 20.9868 12.1805 21.0282C12.4995 21.111 12.8804 21.2227 13.2481 21.3354C13.6153 21.448 13.9672 21.5608 14.2274 21.6457C14.3574 21.688 14.4645 21.7234 14.5389 21.7481C14.5762 21.7605 14.6053 21.7702 14.625 21.7768C14.6349 21.7801 14.6424 21.7826 14.6475 21.7843C14.65 21.7851 14.6519 21.7858 14.6532 21.7862C14.6538 21.7864 14.6543 21.7866 14.6546 21.7867C14.6547 21.7867 14.6548 21.7868 14.6549 21.7868C14.655 21.7868 14.655 21.7868 14.655 21.7868C14.655 21.7868 14.655 21.7868 14.7316 21.5594C14.8081 21.3319 14.8081 21.3319 14.8081 21.3319C14.8081 21.3319 14.808 21.3319 14.808 21.3318C14.8079 21.3318 14.8078 21.3318 14.8076 21.3317C14.8072 21.3316 14.8067 21.3314 14.8061 21.3312C14.8047 21.3308 14.8027 21.3301 14.8001 21.3292C14.7949 21.3275 14.7873 21.3249 14.7772 21.3215C14.7572 21.3148 14.7277 21.305 14.6902 21.2925C14.615 21.2676 14.5071 21.232 14.3761 21.1893C14.1143 21.1039 13.7596 20.9901 13.3888 20.8765C13.0185 20.763 12.6299 20.649 12.3011 20.5636C12.1368 20.521 11.985 20.4849 11.8566 20.4595C11.7334 20.4352 11.6146 20.4172 11.5242 20.4187L11.5319 20.8986ZM14.6665 21.7904C14.6945 21.7983 14.7409 21.8241 14.7995 21.8853C14.8563 21.9447 14.9131 22.0254 14.9637 22.1191C15.0682 22.3126 15.1246 22.5193 15.124 22.6411L15.604 22.6434C15.6051 22.4148 15.5138 22.1276 15.386 21.891C15.3205 21.7696 15.2399 21.6513 15.1463 21.5534C15.0544 21.4575 14.9372 21.368 14.7967 21.3284L14.6665 21.7904ZM15.124 22.6412C15.1233 22.8002 15.0333 22.9305 14.7734 23.0391C14.5076 23.1501 14.1222 23.2083 13.6705 23.2309C13.224 23.2531 12.7366 23.2397 12.2782 23.2204C11.8261 23.2015 11.393 23.1762 11.0766 23.1774L11.0785 23.6574C11.3802 23.6563 11.7914 23.6804 12.2581 23.7C12.7186 23.7194 13.2245 23.7337 13.6944 23.7103C14.1592 23.6871 14.6132 23.6262 14.9584 23.482C15.3096 23.3353 15.6021 23.0743 15.604 22.6433L15.124 22.6412ZM11.0771 23.1774C11.0256 23.1775 10.9746 23.1675 10.927 23.1478L10.7438 23.5915C10.8498 23.6352 10.9634 23.6577 11.078 23.6574L11.0771 23.1774ZM10.927 23.1478C10.8795 23.1282 10.8362 23.0993 10.7998 23.0629L10.4605 23.4024C10.5415 23.4834 10.6378 23.5477 10.7438 23.5915L10.927 23.1478ZM10.7998 23.0629C10.7634 23.0265 10.7345 22.9833 10.7148 22.9357L10.2713 23.1191C10.3151 23.2251 10.3794 23.3213 10.4605 23.4024L10.7998 23.0629ZM10.7148 22.9357C10.6952 22.8881 10.6851 22.8371 10.6852 22.7856L10.2052 22.7849C10.205 22.8996 10.2275 23.0131 10.2713 23.1191L10.7148 22.9357ZM10.6852 22.7853V21.2913H10.2052V22.7853H10.6852ZM10.6852 21.2913C10.6852 21.2542 10.7246 21.1601 10.9128 21.0575C11.0852 20.9636 11.3177 20.9023 11.5322 20.8986L11.5239 20.4187C11.2354 20.4236 10.9264 20.5034 10.6831 20.6361C10.4557 20.76 10.2052 20.9779 10.2052 21.2913H10.6852ZM28.4676 20.8986C28.682 20.9022 28.9144 20.9635 29.0868 21.0574C29.275 21.16 29.3145 21.2542 29.3145 21.2913H29.7945C29.7945 20.978 29.544 20.76 29.3165 20.636C29.0732 20.5033 28.7642 20.4235 28.4756 20.4187L28.4676 20.8986ZM29.3145 21.2913V22.7853H29.7945V21.2913H29.3145ZM29.3145 22.7857C29.3146 22.8372 29.3045 22.8882 29.2848 22.9358L29.7285 23.1191C29.7722 23.0131 29.7947 22.8995 29.7945 22.7848L29.3145 22.7857ZM29.2848 22.9358C29.2652 22.9834 29.2363 23.0267 29.1999 23.0631L29.5393 23.4025C29.6204 23.3214 29.6847 23.2251 29.7285 23.1191L29.2848 22.9358ZM29.1999 23.0631C29.1635 23.0995 29.1202 23.1284 29.0726 23.148L29.2559 23.5917C29.3619 23.5479 29.4582 23.4836 29.5393 23.4025L29.1999 23.0631ZM29.0726 23.148C29.025 23.1677 28.974 23.1778 28.9225 23.1777L28.9216 23.6577C29.0363 23.6579 29.1499 23.6355 29.2559 23.5917L29.0726 23.148ZM28.923 23.1777C28.6067 23.1764 28.1737 23.2017 27.7215 23.2206C27.2632 23.2399 26.7758 23.2533 26.3292 23.231C25.8775 23.2084 25.492 23.1502 25.2262 23.0391C24.9663 22.9305 24.8763 22.8002 24.8757 22.6412L24.3957 22.6433C24.3975 23.0743 24.69 23.3353 25.0412 23.482C25.3864 23.6262 25.8405 23.6872 26.3053 23.7104C26.7752 23.7338 27.2812 23.7195 27.7416 23.7002C28.2083 23.6807 28.6195 23.6565 28.9211 23.6577L28.923 23.1777ZM24.8757 22.6411C24.8751 22.5193 24.9314 22.3126 25.0359 22.1191C25.0866 22.0254 25.1433 21.9447 25.2001 21.8853C25.2587 21.8241 25.3051 21.7983 25.3332 21.7904L25.2029 21.3284C25.0624 21.368 24.9452 21.4575 24.8534 21.5534C24.7597 21.6513 24.6791 21.7696 24.6136 21.891C24.4858 22.1276 24.3946 22.4148 24.3957 22.6434L24.8757 22.6411ZM25.2681 21.5594C25.3446 21.7868 25.3446 21.7868 25.3446 21.7868C25.3446 21.7868 25.3447 21.7868 25.3447 21.7868C25.3448 21.7868 25.3449 21.7867 25.345 21.7867C25.3454 21.7866 25.3458 21.7864 25.3465 21.7862C25.3477 21.7858 25.3496 21.7851 25.3522 21.7843C25.3572 21.7826 25.3647 21.7801 25.3746 21.7768C25.3944 21.7702 25.4234 21.7605 25.4607 21.7481C25.5351 21.7234 25.6422 21.688 25.7722 21.6457C26.0324 21.5608 26.3843 21.448 26.7515 21.3354C27.1192 21.2227 27.5001 21.111 27.8191 21.0282C27.9787 20.9868 28.1204 20.9533 28.236 20.9305C28.3568 20.9066 28.4323 20.898 28.4677 20.8986L28.4755 20.4187C28.3851 20.4172 28.2662 20.4352 28.143 20.4595C28.0146 20.4849 27.8628 20.521 27.6985 20.5636C27.3697 20.649 26.9811 20.763 26.6108 20.8765C26.2401 20.9901 25.8854 21.1039 25.6235 21.1893C25.4925 21.232 25.3846 21.2676 25.3095 21.2925C25.2719 21.305 25.2425 21.3148 25.2224 21.3215C25.2124 21.3249 25.2047 21.3275 25.1995 21.3292C25.1969 21.3301 25.1949 21.3308 25.1936 21.3312C25.1929 21.3314 25.1924 21.3316 25.192 21.3317C25.1919 21.3318 25.1917 21.3318 25.1916 21.3318C25.1916 21.3319 25.1916 21.3319 25.1915 21.3319C25.1915 21.3319 25.1915 21.3319 25.2681 21.5594Z" fill="#3385FF" mask="url(#path-2-inside-1_4511_82967)"/>
</svg>
