<svg width="40" height="40" viewBox="0 0 40 40" fill="none" xmlns="http://www.w3.org/2000/svg">
<rect width="40" height="40" rx="20" fill="#EDF4FF"/>
<path d="M17.6853 29H24.9397C25.1367 29.0006 25.332 28.9621 25.514 28.8866C25.696 28.8111 25.8612 28.7002 26 28.5603L17.6853 29ZM17.6853 29C17.4883 29.0006 17.293 28.9621 17.111 28.8866C16.929 28.8111 16.7638 28.7002 16.625 28.5603L17.6853 29ZM29.3103 25.2031H29.2909L29.2772 25.2169L25.9669 28.5272L25.9667 28.5273C25.8323 28.6628 25.6723 28.7702 25.496 28.8433C25.3197 28.9164 25.1307 28.9537 24.9398 28.9531H24.9397H17.6853H17.6852C17.4943 28.9537 17.3053 28.9164 17.129 28.8433C16.9527 28.7702 16.7927 28.6628 16.6583 28.5273L16.6581 28.5272L12.9728 24.8419L12.9727 24.8417C12.8372 24.7073 12.7298 24.5473 12.6567 24.371C12.5836 24.1947 12.5463 24.0057 12.5469 23.8148V23.8147V21.875V21.8281H12.5H10.25H10.2031V21.875V24.125C10.2031 24.3115 10.129 24.4903 9.99718 24.6222C9.86532 24.754 9.68648 24.8281 9.5 24.8281C9.31352 24.8281 9.13468 24.754 9.00282 24.6222C8.87095 24.4903 8.79688 24.3115 8.79688 24.125V18.125C8.79688 17.9385 8.87095 17.7597 9.00282 17.6278C9.13468 17.496 9.31352 17.4219 9.5 17.4219C9.68648 17.4219 9.86532 17.496 9.99718 17.6278C10.129 17.7597 10.2031 17.9385 10.2031 18.125V20.375V20.4219H10.25H12.5H12.5469V20.375V15.5C12.5469 15.1146 12.7 14.745 12.9725 14.4725C13.245 14.2 13.6146 14.0469 14 14.0469H19.625H19.6719V14V11.75V11.7031H19.625H17.375C17.1885 11.7031 17.0097 11.629 16.8778 11.4972C16.746 11.3653 16.6719 11.1865 16.6719 11C16.6719 10.8135 16.746 10.6347 16.8778 10.5028C17.0097 10.371 17.1885 10.2969 17.375 10.2969H23.375C23.5615 10.2969 23.7403 10.371 23.8722 10.5028C24.004 10.6347 24.0781 10.8135 24.0781 11C24.0781 11.1865 24.004 11.3653 23.8722 11.4972C23.7403 11.629 23.5615 11.7031 23.375 11.7031H21.125H21.0781V11.75V14V14.0469H21.125L24.9397 14.0469L24.9398 14.0469C25.1307 14.0463 25.3197 14.0836 25.496 14.1567C25.6723 14.2298 25.8323 14.3372 25.9667 14.4727L25.9669 14.4728L29.2772 17.7831L29.2909 17.7969H29.3103H30.5C30.8854 17.7969 31.255 17.95 31.5275 18.2225C31.8 18.495 31.9531 18.8646 31.9531 19.25V23.75C31.9531 24.1354 31.8 24.505 31.5275 24.7775C31.255 25.05 30.8854 25.2031 30.5 25.2031H29.3103ZM12.5 21.875H12.4531L12.9397 24.875C12.7998 24.7362 12.6889 24.571 12.6134 24.389C12.5379 24.207 12.4994 24.0117 12.5 23.8147V21.9219V21.875Z" fill="#3385FF" stroke="#3385FF" stroke-width="0.09375"/>
</svg>
