<svg width="49" height="48" viewBox="0 0 49 48" fill="none" xmlns="http://www.w3.org/2000/svg">
<circle cx="24.5" cy="24" r="24" fill="#CCE0FF"/>
<path d="M25.1127 36.2253C31.7916 36.2253 37.2253 30.7916 37.2253 24.1127C37.2253 17.4337 31.7916 12 25.1127 12C18.4337 12 13 17.4337 13 24.1127C13 30.7916 18.4337 36.2253 25.1127 36.2253ZM29.3436 20.4789C29.5851 20.4727 29.8254 20.515 30.0504 20.6031C30.2753 20.6913 30.4803 20.8236 30.6532 20.9923C30.8262 21.1609 30.9636 21.3625 31.0574 21.5852C31.1513 21.8078 31.1996 22.0469 31.1995 22.2885C31.1994 22.5301 31.1509 22.7692 31.057 22.9918C30.963 23.2143 30.8254 23.4158 30.6523 23.5844C30.4793 23.7529 30.2742 23.8851 30.0492 23.9731C29.8242 24.0612 29.5839 24.1033 29.3424 24.0969C28.8707 24.0846 28.4225 23.8885 28.0934 23.5504C27.7642 23.2124 27.58 22.7591 27.5802 22.2873C27.5804 21.8155 27.7648 21.3624 28.0942 21.0245C28.4236 20.6867 28.8719 20.4909 29.3436 20.4789ZM24.134 28.8596C24.78 28.9892 25.4453 28.9892 26.0914 28.8596C26.3978 28.7966 26.7031 28.701 26.9998 28.5774C27.2833 28.4563 27.5619 28.3061 27.8223 28.1317C28.0742 27.9597 28.3153 27.761 28.5381 27.5394C28.7598 27.3189 28.9584 27.0779 29.1304 26.8223L31.1387 28.1753C30.6166 28.9491 29.9509 29.6156 29.1777 30.1387C28.3899 30.6703 27.5056 31.0423 26.5747 31.2337C25.6096 31.4276 24.6156 31.4272 23.6507 31.2325C22.7195 31.0439 21.8351 30.6721 21.0489 30.1387C20.2757 29.6144 19.6093 28.9476 19.0854 28.1741L21.0937 26.8211C21.2669 27.0766 21.4655 27.3177 21.6848 27.5357C22.3536 28.2078 23.2053 28.6683 24.134 28.8596ZM20.8732 20.4789C21.1119 20.479 21.3482 20.526 21.5687 20.6175C21.7892 20.7089 21.9895 20.8428 22.1582 21.0116C22.3269 21.1805 22.4608 21.3809 22.552 21.6014C22.6433 21.8219 22.6902 22.0583 22.6901 22.297C22.6901 22.5357 22.643 22.772 22.5516 22.9925C22.4601 23.2129 22.3262 23.4133 22.1574 23.582C21.9885 23.7507 21.7881 23.8845 21.5676 23.9758C21.3471 24.067 21.1107 24.114 20.872 24.1139C20.39 24.1137 19.9278 23.9221 19.587 23.5811C19.2463 23.2402 19.055 22.7778 19.0551 22.2958C19.0553 21.8137 19.2469 21.3515 19.5879 21.0108C19.9289 20.67 20.3912 20.4787 20.8732 20.4789Z" fill="#3385FF"/>
</svg>
