<svg width="40" height="40" viewBox="0 0 40 40" fill="none" xmlns="http://www.w3.org/2000/svg">
<rect width="40" height="40" rx="20" fill="#EDF4FF"/>
<g clip-path="url(#clip0_4511_82982)">
<path fill-rule="evenodd" clip-rule="evenodd" d="M20.0002 31.7583C26.495 31.7583 31.7602 26.4931 31.7602 19.9983C31.7602 13.5034 26.495 8.23828 20.0002 8.23828C13.5053 8.23828 8.24023 13.5034 8.24023 19.9983C8.24023 26.4931 13.5053 31.7583 20.0002 31.7583ZM27.0016 20.8802H23.4171C23.2548 21.5108 22.9226 22.0732 22.472 22.5156L24.2646 25.6204C25.7401 24.4994 26.7609 22.8109 27.0016 20.8802ZM22.7376 26.5037L20.9448 23.3985C20.6442 23.4817 20.3274 23.5263 20.0002 23.5263C19.673 23.5263 19.3562 23.4817 19.0555 23.3983L17.2627 26.5036C18.1045 26.8583 19.0294 27.0543 20.0002 27.0543C20.971 27.0543 21.8959 26.8583 22.7376 26.5037ZM15.7358 25.6203L17.5283 22.5155C17.0778 22.0731 16.7456 21.5108 16.5833 20.8802H12.9988C13.2395 22.8109 14.2603 24.4994 15.7358 25.6203ZM27.0016 19.1162H23.4171C23.2547 18.4856 22.9224 17.9232 22.4719 17.4809L24.2645 14.3762C25.74 15.497 26.7608 17.1855 27.0016 19.1162ZM22.7376 13.4929C21.8958 13.1383 20.9709 12.9423 20.0002 12.9423C19.0295 12.9423 18.1045 13.1383 17.2628 13.493L19.0556 16.5982C19.3562 16.5148 19.673 16.4703 20.0002 16.4703C20.3274 16.4703 20.6441 16.5148 20.9448 16.5982L22.7376 13.4929ZM17.5284 17.481L15.7359 14.3762C14.2604 15.4971 13.2396 17.1855 12.9988 19.1162H16.5834C16.7457 18.4856 17.078 17.9234 17.5284 17.481Z" fill="#3385FF"/>
</g>
<defs>
<clipPath id="clip0_4511_82982">
<rect width="24" height="24" fill="white" transform="translate(8 8)"/>
</clipPath>
</defs>
</svg>
