<svg width="33" height="33" viewBox="0 0 33 33" fill="none" xmlns="http://www.w3.org/2000/svg">
<path d="M32.0155 16.98C32.0155 25.0611 26.0271 31.7418 18.2477 32.8259C17.5203 32.9268 16.7761 32.9795 16.0207 32.9795C15.1488 32.9795 14.2925 32.91 13.4586 32.7755C5.84288 31.549 0.026001 24.9433 0.026001 16.98C0.026001 8.14342 7.18782 0.979492 16.0219 0.979492C24.8559 0.979492 32.0177 8.14342 32.0177 16.98H32.0155Z" fill="white"/>
<path d="M17.7648 11.5293V14.2081H22.0753L21.3927 17.8164H17.7648V26.13C17.0374 26.2076 16.2932 26.248 15.5378 26.248C14.6658 26.248 13.8095 26.1946 12.9756 26.0912V17.8164H9.00021V14.2081H12.9756V10.9305C12.9756 8.89715 15.1197 7.24805 17.7659 7.24805V7.24977C17.7737 7.24977 17.7804 7.24805 17.7883 7.24805H22.0764V10.3688H19.2745C18.4417 10.3688 17.7659 10.8883 17.7659 11.5285L17.7648 11.5293Z" fill="#1A1A1A"/>
</svg>
