<svg width="32" height="33" viewBox="0 0 32 33" fill="none" xmlns="http://www.w3.org/2000/svg">
<path d="M16.0494 0.979492H15.9766C7.16273 0.979492 0.0177002 8.12663 0.0177002 16.9431V17.0159C0.0177002 25.8324 7.16273 32.9795 15.9766 32.9795H16.0494C24.8633 32.9795 32.0083 25.8324 32.0083 17.0159V16.9431C32.0083 8.12663 24.8633 0.979492 16.0494 0.979492Z" fill="white"/>
<path d="M20.8584 7.25049H10.9596C8.22488 7.25049 6.00012 9.4759 6.00012 12.2114V21.27C6.00012 24.0056 8.22488 26.231 10.9596 26.231H20.8584C23.5931 26.231 25.8179 24.0056 25.8179 21.27V12.2114C25.8179 9.4759 23.5931 7.25049 20.8584 7.25049ZM7.74967 12.2114C7.74967 10.4412 9.18988 9.00055 10.9596 9.00055H20.8584C22.6281 9.00055 24.0683 10.4412 24.0683 12.2114V21.27C24.0683 23.0403 22.6281 24.4809 20.8584 24.4809H10.9596C9.18988 24.4809 7.74967 23.0403 7.74967 21.27V12.2114Z" fill="#1A1A1A"/>
<path d="M15.9102 21.3545C18.4532 21.3545 20.5233 19.2849 20.5233 16.74C20.5233 14.1951 18.4543 12.1255 15.9102 12.1255C13.366 12.1255 11.297 14.1951 11.297 16.74C11.297 19.2849 13.366 21.3545 15.9102 21.3545ZM15.9102 13.8767C17.4893 13.8767 18.7738 15.1615 18.7738 16.7411C18.7738 18.3208 17.4893 19.6056 15.9102 19.6056C14.331 19.6056 13.0465 18.3208 13.0465 16.7411C13.0465 15.1615 14.331 13.8767 15.9102 13.8767Z" fill="#1A1A1A"/>
<path d="M20.9497 12.8721C21.6347 12.8721 22.193 12.3148 22.193 11.6285C22.193 10.9421 21.6358 10.3848 20.9497 10.3848C20.2636 10.3848 19.7064 10.9421 19.7064 11.6285C19.7064 12.3148 20.2636 12.8721 20.9497 12.8721Z" fill="#1A1A1A"/>
</svg>
