<svg width="32" height="33" viewBox="0 0 32 33" fill="none" xmlns="http://www.w3.org/2000/svg">
<path d="M31.9977 16.98C31.9977 25.0611 26.0094 31.7418 18.23 32.8259C17.5026 32.9268 16.7584 32.9795 16.003 32.9795C15.131 32.9795 14.2748 32.91 13.4409 32.7755C5.82516 31.549 0.00828552 24.9433 0.00828552 16.98C0.00828552 8.14342 7.1701 0.979492 16.0041 0.979492C24.8382 0.979492 32 8.14342 32 16.98H31.9977Z" fill="white"/>
<path d="M6.04614 8.25049L13.4231 18.1163L6.00018 26.1379H7.67128L14.1707 19.1152L19.4216 26.1379H25.1073L17.3156 15.7171L24.2253 8.25049H22.5542L16.5692 14.7182L11.733 8.25049H6.04725H6.04614ZM8.50289 9.48147H11.1143L22.6483 24.9069H20.0369L8.50289 9.48147Z" fill="#1A1A1A"/>
</svg>
