<svg width="24" height="24" viewBox="0 0 24 24" fill="none" xmlns="http://www.w3.org/2000/svg">
<path d="M5 4.375H4.375V5V19V19.625H5H11C11.2048 19.625 11.375 19.7952 11.375 20C11.375 20.2048 11.2048 20.375 11 20.375H5C4.24518 20.375 3.625 19.7548 3.625 19V5C3.625 4.24518 4.24518 3.625 5 3.625H11C11.2048 3.625 11.375 3.79518 11.375 4C11.375 4.20482 11.2048 4.375 11 4.375H5Z" fill="white" stroke="white" stroke-width="1.25"/>
<path d="M20.65 11.6525L17.86 8.86248C17.7905 8.79103 17.7012 8.74196 17.6036 8.72155C17.506 8.70114 17.4045 8.71031 17.3121 8.7479C17.2198 8.78548 17.1408 8.84977 17.0851 8.93253C17.0295 9.0153 16.9999 9.11277 17 9.21248V11.0025H10C9.45 11.0025 9 11.4525 9 12.0025C9 12.5525 9.45 13.0025 10 13.0025H17V14.7925C17 15.2425 17.54 15.4625 17.85 15.1425L20.64 12.3525C20.84 12.1625 20.84 11.8425 20.65 11.6525Z" fill="white"/>
</svg>
