<svg width="24" height="24" viewBox="0 0 24 24" fill="none" xmlns="http://www.w3.org/2000/svg">
<path d="M11.5836 20.2994L11.5771 20.2961L11.555 20.2844C11.5361 20.2745 11.5092 20.2602 11.4749 20.2416C11.4062 20.2045 11.3074 20.1504 11.1829 20.0799C10.934 19.9391 10.5816 19.7326 10.16 19.4663C9.3187 18.9348 8.19279 18.1592 7.06249 17.1852C4.85339 15.2814 2.40002 12.4243 2.40002 9.00156C2.40002 6.01922 4.81769 3.60156 7.80002 3.60156C9.49731 3.60156 11.0105 4.38441 12 5.60746C12.9895 4.38441 14.5027 3.60156 16.2 3.60156C19.1824 3.60156 21.6 6.01922 21.6 9.00156C21.6 12.4243 19.1467 15.2814 16.9376 17.1852C15.8073 18.1592 14.6813 18.9348 13.8401 19.4663C13.4185 19.7326 13.0661 19.9391 12.8172 20.0799C12.6927 20.1504 12.5939 20.2045 12.5252 20.2416C12.4908 20.2602 12.4639 20.2745 12.4451 20.2844L12.4229 20.2961L12.4164 20.2994L12.4144 20.3005C12.156 20.4376 11.844 20.4376 11.5864 20.3009L11.5836 20.2994Z" stroke="#808080" stroke-width="2"/>
</svg>
