<svg width="300" height="300" viewBox="0 0 300 300" fill="none" xmlns="http://www.w3.org/2000/svg">
<path d="M213.127 150.187C213.456 150.187 213.724 149.92 213.72 149.59C213.72 149.581 213.72 149.571 213.72 149.561C213.717 149.232 213.444 148.97 213.115 148.977C212.786 148.984 212.525 149.259 212.528 149.588C212.531 149.917 212.798 150.187 213.127 150.187Z" fill="#3385FF"/>
<path d="M227.156 150C227.426 150 227.644 149.782 227.642 149.513C227.641 149.243 227.419 149.027 227.15 149.031L217.188 149.156C216.956 149.159 216.771 149.349 216.772 149.581C216.774 149.813 216.961 150 217.193 150H227.156Z" fill="#3385FF"/>
<path d="M212.906 144.684C213.234 144.655 213.477 144.366 213.445 144.038C213.444 144.029 213.443 144.019 213.442 144.009C213.41 143.681 213.115 143.445 212.788 143.48C212.461 143.516 212.224 143.812 212.257 144.14C212.289 144.467 212.578 144.713 212.906 144.684Z" fill="#3385FF"/>
<path d="M226.864 143.276C227.132 143.252 227.331 143.016 227.306 142.748C227.28 142.479 227.041 142.284 226.773 142.311L216.86 143.304C216.629 143.327 216.461 143.532 216.483 143.763C216.504 143.994 216.708 144.164 216.939 144.144L226.864 143.276Z" fill="#3385FF"/>
<path d="M212.201 139.221C212.525 139.164 212.742 138.855 212.682 138.531C212.68 138.522 212.678 138.512 212.676 138.502C212.616 138.179 212.302 137.969 211.979 138.032C211.656 138.096 211.447 138.412 211.507 138.736C211.568 139.06 211.877 139.279 212.201 139.221Z" fill="#3385FF"/>
<path d="M225.984 136.602C226.249 136.555 226.426 136.302 226.378 136.037C226.329 135.772 226.074 135.598 225.809 135.648L216.02 137.502C215.792 137.545 215.643 137.764 215.685 137.992C215.726 138.22 215.944 138.372 216.172 138.332L225.984 136.602Z" fill="#3385FF"/>
<path d="M211.026 133.841C211.344 133.756 211.533 133.429 211.445 133.112C211.442 133.102 211.439 133.093 211.437 133.083C211.348 132.766 211.017 132.584 210.701 132.676C210.385 132.768 210.204 133.101 210.292 133.418C210.381 133.735 210.708 133.926 211.026 133.841Z" fill="#3385FF"/>
<path d="M224.527 130.031C224.788 129.961 224.942 129.693 224.871 129.433C224.799 129.174 224.53 129.023 224.27 129.096L214.68 131.795C214.457 131.858 214.327 132.089 214.389 132.313C214.45 132.536 214.68 132.669 214.904 132.609L224.527 130.031Z" fill="#3385FF"/>
<path d="M209.384 128.584C209.694 128.471 209.854 128.129 209.738 127.821C209.734 127.811 209.731 127.802 209.728 127.793C209.612 127.485 209.266 127.332 208.959 127.451C208.652 127.57 208.501 127.918 208.617 128.226C208.732 128.534 209.075 128.696 209.384 128.584Z" fill="#3385FF"/>
<path d="M222.503 123.611C222.756 123.519 222.887 123.239 222.793 122.986C222.699 122.734 222.417 122.607 222.165 122.702L212.847 126.227C212.63 126.309 212.521 126.551 212.602 126.768C212.682 126.985 212.923 127.098 213.141 127.018L222.503 123.611Z" fill="#3385FF"/>
<path d="M207.293 123.49C207.592 123.35 207.721 122.996 207.579 122.699C207.575 122.69 207.57 122.681 207.566 122.672C207.424 122.375 207.066 122.253 206.771 122.399C206.475 122.544 206.355 122.903 206.497 123.2C206.639 123.497 206.995 123.629 207.293 123.49Z" fill="#3385FF"/>
<path d="M219.928 117.392C220.172 117.278 220.278 116.988 220.162 116.745C220.047 116.501 219.755 116.399 219.512 116.516L210.536 120.84C210.328 120.94 210.24 121.191 210.339 121.4C210.439 121.61 210.688 121.701 210.898 121.603L219.928 117.392Z" fill="#3385FF"/>
<path d="M204.764 118.597C205.049 118.432 205.147 118.067 204.98 117.784C204.975 117.775 204.97 117.767 204.965 117.758C204.797 117.475 204.43 117.385 204.149 117.555C203.867 117.726 203.778 118.094 203.946 118.378C204.113 118.661 204.479 118.761 204.764 118.597Z" fill="#3385FF"/>
<path d="M216.819 111.421C217.053 111.287 217.133 110.988 216.997 110.756C216.86 110.523 216.561 110.447 216.329 110.585L207.764 115.674C207.565 115.793 207.5 116.05 207.617 116.25C207.734 116.45 207.99 116.519 208.191 116.403L216.819 111.421Z" fill="#3385FF"/>
<path d="M201.82 113.943C202.09 113.754 202.156 113.382 201.964 113.115C201.958 113.107 201.953 113.099 201.947 113.091C201.755 112.823 201.382 112.765 201.116 112.96C200.85 113.154 200.794 113.529 200.986 113.797C201.177 114.064 201.55 114.132 201.82 113.943Z" fill="#3385FF"/>
<path d="M213.204 105.745C213.424 105.59 213.478 105.286 213.322 105.066C213.166 104.846 212.861 104.797 212.643 104.954L204.554 110.77C204.366 110.906 204.323 111.168 204.457 111.357C204.591 111.546 204.853 111.592 205.043 111.459L213.204 105.745Z" fill="#3385FF"/>
<path d="M198.478 109.564C198.73 109.353 198.763 108.976 198.549 108.726C198.543 108.719 198.536 108.711 198.53 108.704C198.316 108.454 197.939 108.429 197.691 108.646C197.443 108.862 197.42 109.241 197.634 109.491C197.848 109.741 198.226 109.776 198.478 109.564Z" fill="#3385FF"/>
<path d="M209.105 100.404C209.311 100.231 209.338 99.9234 209.163 99.7181C208.989 99.5128 208.681 99.4898 208.477 99.6656L200.926 106.165C200.75 106.316 200.73 106.581 200.88 106.758C201.03 106.934 201.295 106.957 201.472 106.809L209.105 100.404Z" fill="#3385FF"/>
<path d="M194.77 105.493C195.002 105.26 195.003 104.882 194.767 104.652C194.76 104.645 194.753 104.638 194.746 104.631C194.511 104.401 194.133 104.409 193.905 104.646C193.677 104.884 193.687 105.263 193.922 105.493C194.158 105.724 194.537 105.726 194.77 105.493Z" fill="#3385FF"/>
<path d="M204.557 95.4416C204.747 95.2511 204.748 94.9421 204.556 94.7528C204.364 94.5635 204.055 94.5675 203.867 94.7604L196.911 101.893C196.749 102.059 196.753 102.325 196.918 102.487C197.083 102.65 197.348 102.65 197.512 102.487L204.557 95.4416Z" fill="#3385FF"/>
<path d="M190.719 101.76C190.931 101.508 190.898 101.131 190.644 100.922C190.636 100.916 190.629 100.91 190.621 100.904C190.366 100.695 189.991 100.735 189.785 100.992C189.578 101.248 189.621 101.625 189.875 101.834C190.13 102.043 190.507 102.012 190.719 101.76Z" fill="#3385FF"/>
<path d="M199.594 90.8941C199.767 90.6877 199.741 90.3799 199.533 90.208C199.326 90.0361 199.018 90.067 198.848 90.2755L192.54 97.9875C192.393 98.1669 192.42 98.4311 192.598 98.5789C192.777 98.7267 193.041 98.7037 193.19 98.5262L199.594 90.8941Z" fill="#3385FF"/>
<path d="M181.405 204.765C181.569 205.05 181.934 205.148 182.217 204.981C182.226 204.976 182.234 204.971 182.243 204.966C182.526 204.798 182.616 204.431 182.446 204.15C182.275 203.868 181.907 203.779 181.623 203.947C181.34 204.114 181.24 204.48 181.405 204.765Z" fill="#3385FF"/>
<path d="M188.58 216.821C188.714 217.054 189.013 217.134 189.245 216.998C189.478 216.862 189.554 216.562 189.416 216.331L184.327 207.766C184.208 207.567 183.951 207.501 183.751 207.618C183.551 207.735 183.482 207.992 183.598 208.193L188.58 216.821Z" fill="#3385FF"/>
<path d="M186.056 201.82C186.245 202.089 186.617 202.155 186.885 201.964C186.893 201.958 186.901 201.952 186.909 201.946C187.177 201.755 187.234 201.382 187.04 201.116C186.846 200.85 186.471 200.794 186.203 200.985C185.935 201.177 185.867 201.55 186.056 201.82Z" fill="#3385FF"/>
<path d="M194.255 213.204C194.41 213.425 194.714 213.478 194.934 213.323C195.154 213.167 195.203 212.862 195.046 212.643L189.23 204.554C189.094 204.366 188.832 204.323 188.643 204.457C188.454 204.591 188.408 204.853 188.541 205.043L194.255 213.204Z" fill="#3385FF"/>
<path d="M190.438 198.48C190.649 198.733 191.026 198.766 191.276 198.552C191.283 198.545 191.291 198.539 191.298 198.532C191.548 198.318 191.573 197.941 191.356 197.693C191.14 197.446 190.761 197.422 190.511 197.636C190.261 197.851 190.226 198.228 190.438 198.48Z" fill="#3385FF"/>
<path d="M199.597 209.107C199.77 209.313 200.078 209.34 200.283 209.166C200.489 208.991 200.512 208.683 200.336 208.479L193.836 200.928C193.685 200.752 193.42 200.732 193.244 200.883C193.067 201.033 193.044 201.297 193.193 201.475L199.597 209.107Z" fill="#3385FF"/>
<path d="M194.508 194.771C194.741 195.004 195.119 195.004 195.349 194.769C195.356 194.762 195.363 194.755 195.37 194.748C195.6 194.513 195.592 194.135 195.355 193.907C195.117 193.679 194.738 193.689 194.508 193.924C194.278 194.16 194.276 194.539 194.508 194.771Z" fill="#3385FF"/>
<path d="M204.56 204.559C204.75 204.75 205.059 204.75 205.249 204.558C205.438 204.366 205.434 204.057 205.241 203.869L198.108 196.913C197.942 196.752 197.677 196.755 197.514 196.92C197.351 197.085 197.351 197.35 197.515 197.514L204.56 204.559Z" fill="#3385FF"/>
<path d="M198.241 190.722C198.493 190.933 198.869 190.9 199.078 190.646C199.085 190.639 199.091 190.631 199.097 190.623C199.306 190.369 199.265 189.993 199.009 189.787C198.752 189.581 198.376 189.623 198.167 189.878C197.958 190.132 197.989 190.51 198.241 190.722Z" fill="#3385FF"/>
<path d="M209.106 199.596C209.313 199.769 209.621 199.742 209.793 199.535C209.964 199.327 209.934 199.02 209.725 198.849L202.013 192.542C201.834 192.395 201.569 192.422 201.422 192.6C201.274 192.778 201.297 193.043 201.474 193.192L209.106 199.596Z" fill="#3385FF"/>
<path d="M201.607 186.362C201.876 186.551 202.248 186.486 202.434 186.214C202.44 186.206 202.445 186.198 202.451 186.19C202.637 185.918 202.564 185.548 202.29 185.365C202.017 185.181 201.645 185.257 201.459 185.528C201.273 185.8 201.337 186.174 201.607 186.362Z" fill="white"/>
<path d="M213.204 194.256C213.424 194.41 213.729 194.357 213.882 194.135C214.035 193.914 213.977 193.61 213.755 193.458L205.522 187.847C205.331 187.716 205.07 187.766 204.938 187.956C204.807 188.147 204.853 188.408 205.042 188.541L213.204 194.256Z" fill="white"/>
<path d="M204.579 181.726C204.864 181.891 205.229 181.793 205.391 181.507C205.395 181.498 205.4 181.489 205.405 181.481C205.567 181.194 205.461 180.831 205.173 180.673C204.884 180.514 204.521 180.621 204.359 180.908C204.198 181.195 204.294 181.562 204.579 181.726Z" fill="#3385FF"/>
<path d="M216.821 188.579C217.054 188.714 217.353 188.634 217.486 188.4C217.619 188.166 217.536 187.868 217.301 187.736L208.61 182.864C208.408 182.75 208.153 182.822 208.038 183.024C207.924 183.225 207.992 183.482 208.193 183.598L216.821 188.579Z" fill="#3385FF"/>
<path d="M207.135 176.849C207.433 176.988 207.788 176.859 207.924 176.559C207.928 176.55 207.932 176.541 207.936 176.532C208.072 176.232 207.936 175.88 207.635 175.747C207.333 175.614 206.981 175.753 206.845 176.053C206.709 176.353 206.836 176.709 207.135 176.849Z" fill="#3385FF"/>
<path d="M219.927 182.608C220.171 182.722 220.461 182.617 220.574 182.372C220.686 182.127 220.576 181.838 220.331 181.727L211.249 177.63C211.038 177.535 210.79 177.629 210.693 177.84C210.596 178.05 210.687 178.3 210.897 178.398L219.927 182.608Z" fill="#3385FF"/>
<path d="M209.259 171.767C209.569 171.879 209.911 171.72 210.021 171.41C210.024 171.4 210.027 171.391 210.03 171.382C210.14 171.071 209.973 170.732 209.661 170.626C209.35 170.52 209.01 170.689 208.901 170.999C208.792 171.31 208.95 171.654 209.259 171.767Z" fill="#3385FF"/>
<path d="M222.504 176.39C222.757 176.482 223.037 176.351 223.128 176.098C223.219 175.844 223.084 175.566 222.83 175.477L213.426 172.187C213.207 172.11 212.968 172.226 212.89 172.444C212.812 172.662 212.924 172.903 213.142 172.982L222.504 176.39Z" fill="#3385FF"/>
<path d="M210.931 166.519C211.249 166.604 211.576 166.416 211.658 166.097C211.661 166.087 211.663 166.078 211.666 166.068C211.747 165.749 211.552 165.426 211.232 165.348C210.912 165.269 210.589 165.467 210.507 165.786C210.425 166.105 210.613 166.434 210.931 166.519Z" fill="#3385FF"/>
<path d="M224.529 169.97C224.789 170.04 225.057 169.886 225.125 169.625C225.193 169.364 225.035 169.099 224.774 169.032L215.119 166.575C214.895 166.517 214.666 166.653 214.608 166.877C214.549 167.102 214.682 167.332 214.906 167.392L224.529 169.97Z" fill="#3385FF"/>
<path d="M212.139 161.146C212.463 161.203 212.773 160.987 212.827 160.662C212.828 160.652 212.83 160.642 212.832 160.633C212.885 160.308 212.662 160.003 212.337 159.952C212.011 159.902 211.707 160.127 211.653 160.452C211.599 160.777 211.815 161.089 212.139 161.146Z" fill="#3385FF"/>
<path d="M225.986 163.398C226.252 163.445 226.505 163.268 226.55 163.002C226.595 162.737 226.415 162.486 226.149 162.442L216.316 160.836C216.087 160.798 215.872 160.953 215.833 161.182C215.794 161.41 215.946 161.628 216.175 161.668L225.986 163.398Z" fill="#3385FF"/>
<path d="M212.873 155.688C213.201 155.716 213.49 155.474 213.515 155.145C213.516 155.136 213.517 155.126 213.518 155.116C213.543 154.788 213.294 154.504 212.966 154.482C212.637 154.46 212.353 154.711 212.328 155.039C212.303 155.367 212.545 155.659 212.873 155.688Z" fill="#3385FF"/>
<path d="M226.864 156.725C227.133 156.748 227.369 156.55 227.391 156.281C227.413 156.013 227.211 155.779 226.943 155.758L217.007 155.015C216.776 154.998 216.575 155.171 216.556 155.402C216.538 155.633 216.708 155.836 216.939 155.857L226.864 156.725Z" fill="#3385FF"/>
<path d="M186.362 98.3945C186.551 98.1248 186.485 97.7528 186.214 97.5667C186.206 97.5611 186.198 97.5555 186.189 97.5499C185.918 97.3639 185.547 97.4373 185.364 97.7109C185.181 97.9844 185.256 98.3558 185.528 98.5419C185.799 98.728 186.173 98.6642 186.362 98.3945Z" fill="#3385FF"/>
<path d="M194.256 86.7965C194.41 86.5758 194.357 86.2714 194.135 86.1183C193.913 85.9651 193.61 86.0227 193.458 86.2453L187.846 94.4777C187.716 94.6691 187.765 94.9301 187.956 95.0618C188.147 95.1935 188.408 95.1475 188.541 94.9577L194.256 86.7965Z" fill="#3385FF"/>
<path d="M181.725 95.4217C181.889 95.1366 181.792 94.7717 181.505 94.61C181.496 94.6051 181.488 94.6003 181.479 94.5954C181.192 94.4338 180.83 94.5392 180.671 94.8277C180.512 95.1161 180.62 95.4796 180.906 95.6413C181.193 95.803 181.56 95.7068 181.725 95.4217Z" fill="#3385FF"/>
<path d="M188.578 83.1799C188.712 82.9466 188.632 82.6481 188.398 82.5148C188.164 82.3816 187.867 82.4654 187.735 82.7004L182.862 91.3905C182.749 91.5927 182.821 91.8483 183.022 91.9629C183.224 92.0774 183.48 92.0088 183.596 91.8081L188.578 83.1799Z" fill="#3385FF"/>
<path d="M181.725 95.4217C181.889 95.1366 181.792 94.7717 181.505 94.61C181.496 94.6051 181.488 94.6003 181.479 94.5954C181.192 94.4338 180.83 94.5392 180.671 94.8277C180.512 95.1161 180.62 95.4796 180.906 95.6413C181.193 95.803 181.56 95.7068 181.725 95.4217Z" fill="#3385FF"/>
<path d="M188.578 83.1799C188.712 82.9466 188.632 82.6481 188.398 82.5148C188.164 82.3816 187.867 82.4654 187.735 82.7004L182.862 91.3905C182.749 91.5926 182.821 91.8482 183.022 91.9628C183.224 92.0774 183.48 92.0088 183.596 91.8081L188.578 83.1799Z" fill="#3385FF"/>
<path d="M176.847 92.8644C176.987 92.566 176.858 92.211 176.558 92.0748C176.549 92.0708 176.54 92.0667 176.531 92.0626C176.231 91.9266 175.879 92.0632 175.746 92.3644C175.613 92.6656 175.752 93.0183 176.052 93.1544C176.351 93.2905 176.708 93.1627 176.847 92.8644Z" fill="#3385FF"/>
<path d="M182.607 80.0719C182.721 79.8278 182.615 79.5373 182.371 79.425C182.126 79.3127 181.837 79.4221 181.726 79.6677L177.629 88.7494C177.534 88.9606 177.628 89.209 177.839 89.3056C178.049 89.4022 178.299 89.3115 178.397 89.1015L182.607 80.0719Z" fill="#3385FF"/>
<path d="M171.764 90.7414C171.877 90.432 171.718 90.0896 171.407 89.9801C171.398 89.9768 171.388 89.9736 171.379 89.9703C171.069 89.8609 170.73 90.0277 170.624 90.3394C170.517 90.651 170.686 90.9903 170.997 91.0997C171.307 91.2091 171.652 91.0508 171.764 90.7414Z" fill="#3385FF"/>
<path d="M176.388 77.4958C176.48 77.2427 176.349 76.9625 176.095 76.872C175.842 76.7814 175.563 76.9156 175.474 77.17L172.185 86.5742C172.108 86.7929 172.224 87.0321 172.442 87.11C172.66 87.1879 172.901 87.0757 172.98 86.858L176.388 77.4958Z" fill="#3385FF"/>
<path d="M166.518 89.07C166.604 88.752 166.415 88.4248 166.096 88.3427C166.087 88.3403 166.077 88.3378 166.068 88.3354C165.749 88.2535 165.426 88.4492 165.347 88.7689C165.268 89.0886 165.466 89.4119 165.785 89.4938C166.104 89.5758 166.433 89.388 166.518 89.07Z" fill="#3385FF"/>
<path d="M169.969 75.4717C170.039 75.2115 169.885 74.9438 169.624 74.8757C169.363 74.8076 169.098 74.9655 169.031 75.2267L166.574 84.8818C166.517 85.1064 166.652 85.3346 166.877 85.3932C167.101 85.4517 167.331 85.319 167.391 85.0952L169.969 75.4717Z" fill="#3385FF"/>
<path d="M161.143 87.8622C161.2 87.538 160.983 87.2285 160.659 87.1745C160.649 87.1729 160.639 87.1713 160.629 87.1697C160.305 87.1159 160 87.339 159.949 87.6644C159.899 87.9897 160.124 88.2945 160.449 88.3484C160.774 88.4022 161.085 88.1864 161.143 87.8622Z" fill="#3385FF"/>
<path d="M163.396 74.0149C163.443 73.7496 163.266 73.4964 163 73.4513C162.735 73.4061 162.484 73.5866 162.44 73.8526L160.834 83.6851C160.796 83.9138 160.952 84.1294 161.18 84.1682C161.408 84.207 161.626 84.0547 161.666 83.8265L163.396 74.0149Z" fill="#3385FF"/>
<path d="M155.687 87.1274C155.715 86.7994 155.473 86.51 155.144 86.4845C155.135 86.4838 155.125 86.483 155.115 86.4823C154.787 86.457 154.503 86.7058 154.481 87.0343C154.459 87.3628 154.71 87.6468 155.038 87.6722C155.366 87.6975 155.658 87.4554 155.687 87.1274Z" fill="#3385FF"/>
<path d="M156.724 73.1365C156.748 72.8681 156.549 72.6313 156.28 72.6095C156.012 72.5877 155.778 72.7894 155.758 73.0581L155.014 82.9933C154.997 83.2243 155.17 83.4255 155.401 83.4443C155.632 83.463 155.836 83.2924 155.856 83.0616L156.724 73.1365Z" fill="#3385FF"/>
<path d="M150.185 86.8706C150.185 86.5414 149.918 86.2742 149.589 86.2775C149.579 86.2776 149.57 86.2777 149.56 86.2778C149.23 86.2812 148.969 86.5539 148.976 86.883C148.983 87.2122 149.257 87.4732 149.587 87.4699C149.916 87.4665 150.185 87.1999 150.185 86.8706Z" fill="#3385FF"/>
<path d="M149.999 72.8427C149.999 72.5732 149.781 72.3546 149.511 72.3563C149.242 72.358 149.026 72.5793 149.03 72.8488L149.155 82.811C149.158 83.0426 149.348 83.228 149.58 83.2265C149.811 83.2251 149.999 83.0374 149.999 82.8056L149.999 72.8427Z" fill="#3385FF"/>
<path d="M144.683 87.0946C144.654 86.7666 144.365 86.5237 144.037 86.5557C144.027 86.5566 144.017 86.5576 144.008 86.5586C143.68 86.5907 143.443 86.8851 143.479 87.2124C143.514 87.5397 143.811 87.7758 144.138 87.7437C144.466 87.7117 144.711 87.4226 144.683 87.0946Z" fill="#3385FF"/>
<path d="M143.274 73.1361C143.251 72.8677 143.014 72.669 142.746 72.6942C142.478 72.7194 142.282 72.9586 142.309 73.2267L143.302 83.1401C143.325 83.3707 143.531 83.5387 143.761 83.5171C143.992 83.4954 144.163 83.2921 144.143 83.0612L143.274 73.1361Z" fill="#3385FF"/>
<path d="M139.22 87.7976C139.163 87.4734 138.854 87.2566 138.53 87.317C138.521 87.3188 138.511 87.3206 138.501 87.3224C138.178 87.383 137.968 87.6969 138.031 88.0199C138.095 88.3429 138.411 88.5522 138.735 88.4917C139.059 88.4312 139.278 88.1219 139.22 87.7976Z" fill="#3385FF"/>
<path d="M136.601 74.0149C136.555 73.7496 136.301 73.5722 136.036 73.6207C135.771 73.6691 135.597 73.9245 135.648 74.1893L137.501 83.9784C137.544 84.2061 137.763 84.3555 137.991 84.3139C138.219 84.2722 138.372 84.0547 138.331 83.8265L136.601 74.0149Z" fill="#3385FF"/>
<path d="M133.84 88.9737C133.755 88.6556 133.428 88.4666 133.111 88.555C133.102 88.5577 133.092 88.5603 133.083 88.5629C132.766 88.6515 132.584 88.9825 132.675 89.2987C132.767 89.6149 133.1 89.7959 133.417 89.7074C133.734 89.6189 133.926 89.2917 133.84 88.9737Z" fill="#3385FF"/>
<path d="M130.03 75.4717C129.96 75.2115 129.692 75.0569 129.432 75.1282C129.173 75.1996 129.022 75.4692 129.095 75.7286L131.794 85.3189C131.857 85.5419 132.088 85.6717 132.312 85.6104C132.535 85.549 132.668 85.319 132.608 85.0952L130.03 75.4717Z" fill="#3385FF"/>
<path d="M128.583 90.6143C128.47 90.3049 128.128 90.1451 127.82 90.2608C127.811 90.2643 127.802 90.2678 127.792 90.2712C127.484 90.3871 127.332 90.7327 127.451 91.0397C127.57 91.3467 127.917 91.4979 128.225 91.3822C128.534 91.2664 128.696 90.9237 128.583 90.6143Z" fill="#3385FF"/>
<path d="M123.61 77.4958C123.518 77.2427 123.238 77.112 122.985 77.2057C122.733 77.2995 122.606 77.5812 122.701 77.8332L126.226 87.1518C126.308 87.3685 126.55 87.4776 126.767 87.397C126.984 87.3164 127.097 87.0757 127.017 86.858L123.61 77.4958Z" fill="#3385FF"/>
<path d="M123.487 92.7068C123.348 92.4084 122.993 92.279 122.696 92.4212C122.688 92.4254 122.679 92.4297 122.67 92.4339C122.373 92.5762 122.251 92.9338 122.396 93.2292C122.542 93.5247 122.901 93.6451 123.198 93.5029C123.495 93.3607 123.627 93.0052 123.487 92.7068Z" fill="#3385FF"/>
<path d="M117.39 80.0719C117.277 79.8277 116.986 79.7219 116.743 79.8373C116.499 79.9527 116.397 80.2444 116.514 80.4871L120.838 89.463C120.939 89.6718 121.189 89.7594 121.399 89.6601C121.608 89.5609 121.699 89.3114 121.601 89.1014L117.39 80.0719Z" fill="#3385FF"/>
<path d="M118.595 95.2354C118.431 94.9502 118.066 94.8523 117.783 95.0197C117.774 95.0247 117.766 95.0298 117.757 95.0348C117.474 95.2024 117.384 95.5692 117.554 95.8509C117.725 96.1326 118.093 96.2212 118.377 96.0536C118.66 95.8861 118.76 95.5205 118.595 95.2354Z" fill="#3385FF"/>
<path d="M111.42 83.1797C111.286 82.9464 110.987 82.8663 110.755 83.0025C110.522 83.1387 110.446 83.4382 110.584 83.6698L115.673 92.2347C115.792 92.4339 116.049 92.4993 116.249 92.3822C116.449 92.2651 116.518 92.0086 116.402 91.8079L111.42 83.1797Z" fill="#3385FF"/>
<path d="M118.595 95.2356C118.431 94.9505 118.066 94.8525 117.783 95.02C117.774 95.025 117.766 95.03 117.757 95.035C117.474 95.2026 117.384 95.5694 117.554 95.8511C117.725 96.1328 118.093 96.2214 118.377 96.0539C118.66 95.8863 118.76 95.5207 118.595 95.2356Z" fill="#3385FF"/>
<path d="M111.42 83.18C111.286 82.9467 110.987 82.8666 110.755 83.0027C110.522 83.1389 110.446 83.4384 110.584 83.67L115.673 92.235C115.792 92.4342 116.049 92.4996 116.249 92.3824C116.449 92.2653 116.518 92.0089 116.402 91.8082L111.42 83.18Z" fill="#3385FF"/>
<path d="M113.942 98.1808C113.753 97.9111 113.381 97.8453 113.113 98.0369C113.105 98.0426 113.097 98.0483 113.089 98.0541C112.821 98.2457 112.764 98.619 112.958 98.8848C113.152 99.1505 113.527 99.2067 113.795 99.0151C114.063 98.8235 114.131 98.4505 113.942 98.1808Z" fill="#3385FF"/>
<path d="M105.743 86.7965C105.588 86.5758 105.284 86.522 105.064 86.6779C104.844 86.8339 104.795 87.1388 104.952 87.3576L110.769 95.4463C110.904 95.6345 111.166 95.6772 111.355 95.5431C111.544 95.409 111.59 95.1475 111.457 94.9577L105.743 86.7965Z" fill="#3385FF"/>
<path d="M109.563 101.52C109.352 101.268 108.975 101.235 108.725 101.449C108.718 101.456 108.71 101.462 108.703 101.468C108.453 101.683 108.428 102.06 108.645 102.307C108.861 102.555 109.24 102.578 109.49 102.364C109.74 102.15 109.775 101.773 109.563 101.52Z" fill="#3385FF"/>
<path d="M100.404 90.894C100.231 90.6877 99.9229 90.6606 99.7176 90.8351C99.5123 91.0096 99.4893 91.3177 99.6651 91.5219L106.165 99.0729C106.316 99.2486 106.581 99.2683 106.757 99.1182C106.934 98.9682 106.957 98.7036 106.808 98.5261L100.404 90.894Z" fill="#3385FF"/>
<path d="M105.493 105.229C105.26 104.996 104.882 104.996 104.652 105.231C104.645 105.238 104.638 105.245 104.631 105.252C104.401 105.487 104.409 105.865 104.646 106.093C104.884 106.321 105.263 106.311 105.493 106.076C105.723 105.841 105.725 105.462 105.493 105.229Z" fill="#3385FF"/>
<path d="M95.4411 95.4414C95.2506 95.2509 94.9416 95.2508 94.7523 95.4425C94.563 95.6342 94.567 95.9432 94.7599 96.1313L101.893 103.087C102.059 103.249 102.324 103.245 102.487 103.081C102.65 102.916 102.65 102.65 102.486 102.486L95.4411 95.4414Z" fill="#3385FF"/>
<path d="M101.759 109.279C101.507 109.067 101.131 109.1 100.922 109.354C100.915 109.362 100.909 109.369 100.903 109.377C100.694 109.631 100.735 110.007 100.991 110.213C101.248 110.42 101.624 110.377 101.833 110.122C102.042 109.868 102.011 109.49 101.759 109.279Z" fill="#3385FF"/>
<path d="M90.8936 100.404C90.6872 100.231 90.3793 100.258 90.2075 100.465C90.0356 100.673 90.0665 100.98 90.275 101.151L97.987 107.459C98.1664 107.605 98.4306 107.579 98.5784 107.4C98.7262 107.222 98.7032 106.957 98.5257 106.808L90.8936 100.404Z" fill="#3385FF"/>
<path d="M98.3915 113.638C98.1218 113.449 97.7498 113.515 97.5637 113.786C97.5581 113.795 97.5526 113.803 97.547 113.811C97.361 114.082 97.4344 114.453 97.7079 114.636C97.9814 114.82 98.3529 114.744 98.539 114.472C98.725 114.201 98.6612 113.827 98.3915 113.638Z" fill="#3385FF"/>
<path d="M86.7945 105.745C86.5738 105.59 86.2694 105.644 86.1163 105.866C85.9631 106.087 86.0207 106.391 86.2434 106.543L94.4757 112.154C94.6672 112.285 94.9281 112.235 95.0598 112.044C95.1915 111.854 95.1455 111.592 94.9557 111.459L86.7945 105.745Z" fill="#3385FF"/>
<path d="M95.4212 118.274C95.1361 118.11 94.7712 118.207 94.6095 118.494C94.6046 118.502 94.5998 118.511 94.5949 118.52C94.4333 118.806 94.5387 119.169 94.8272 119.328C95.1156 119.487 95.4791 119.379 95.6408 119.092C95.8025 118.805 95.7063 118.439 95.4212 118.274Z" fill="#3385FF"/>
<path d="M83.1789 111.421C82.9456 111.287 82.6471 111.367 82.5138 111.601C82.3806 111.835 82.4644 112.132 82.6995 112.264L91.3896 117.137C91.5917 117.25 91.8473 117.178 91.9619 116.977C92.0765 116.775 92.0078 116.519 91.8071 116.403L83.1789 111.421Z" fill="#3385FF"/>
<path d="M92.8624 123.152C92.564 123.013 92.209 123.142 92.0729 123.442C92.0688 123.451 92.0647 123.46 92.0607 123.469C91.9247 123.768 92.0613 124.121 92.3625 124.254C92.6636 124.387 93.0164 124.248 93.1525 123.948C93.2885 123.648 93.1608 123.291 92.8624 123.152Z" fill="#3385FF"/>
<path d="M80.0705 117.392C79.8263 117.278 79.5359 117.384 79.4235 117.629C79.3112 117.874 79.4206 118.163 79.6663 118.274L88.748 122.37C88.9592 122.466 89.2075 122.372 89.3041 122.161C89.4007 121.95 89.31 121.701 89.1 121.603L80.0705 117.392Z" fill="#3385FF"/>
<path d="M90.7407 128.234C90.4313 128.121 90.0889 128.281 89.9794 128.591C89.9761 128.601 89.9728 128.61 89.9696 128.619C89.8602 128.93 90.027 129.269 90.3386 129.375C90.6502 129.481 90.9895 129.312 91.099 129.001C91.2084 128.691 91.05 128.347 90.7407 128.234Z" fill="#3385FF"/>
<path d="M77.4958 123.611C77.2427 123.519 76.9626 123.649 76.872 123.903C76.7814 124.157 76.9156 124.435 77.17 124.524L86.5742 127.814C86.7929 127.89 87.0321 127.775 87.11 127.557C87.1879 127.338 87.0757 127.098 86.858 127.019L77.4958 123.611Z" fill="#3385FF"/>
<path d="M89.067 133.481C88.749 133.396 88.4218 133.585 88.3398 133.904C88.3374 133.913 88.3349 133.923 88.3324 133.932C88.2506 134.251 88.4463 134.574 88.766 134.653C89.0857 134.732 89.4089 134.534 89.4909 134.215C89.5728 133.896 89.3851 133.567 89.067 133.481Z" fill="#3385FF"/>
<path d="M75.4688 130.03C75.2086 129.961 74.9409 130.115 74.8728 130.376C74.8047 130.636 74.9626 130.902 75.2238 130.968L84.8789 133.426C85.1034 133.483 85.3317 133.347 85.3903 133.123C85.4488 132.899 85.3161 132.669 85.0923 132.609L75.4688 130.03Z" fill="#3385FF"/>
<path d="M87.86 138.855C87.5358 138.798 87.2263 139.014 87.1723 139.339C87.1707 139.349 87.1691 139.359 87.1675 139.368C87.1137 139.693 87.3368 139.998 87.6622 140.048C87.9875 140.099 88.2923 139.874 88.3462 139.549C88.4 139.224 88.1842 138.912 87.86 138.855Z" fill="#3385FF"/>
<path d="M74.0127 136.602C73.7474 136.556 73.4942 136.733 73.4491 136.998C73.404 137.264 73.5845 137.515 73.8504 137.558L83.683 139.165C83.9116 139.202 84.1272 139.047 84.166 138.819C84.2048 138.59 84.0526 138.373 83.8244 138.333L74.0127 136.602Z" fill="#3385FF"/>
<path d="M87.1274 144.313C86.7994 144.284 86.51 144.527 86.4845 144.855C86.4838 144.865 86.483 144.875 86.4823 144.884C86.457 145.213 86.7058 145.497 87.0343 145.519C87.3628 145.541 87.6468 145.29 87.6722 144.961C87.6975 144.633 87.4554 144.342 87.1274 144.313Z" fill="#3385FF"/>
<path d="M73.1358 143.276C72.8674 143.252 72.6306 143.451 72.6088 143.719C72.587 143.988 72.7887 144.222 73.0574 144.242L82.9926 144.986C83.2236 145.003 83.4248 144.83 83.4436 144.599C83.4623 144.368 83.2917 144.164 83.0609 144.144L73.1358 143.276Z" fill="#3385FF"/>
<path d="M86.8689 149.814C86.5397 149.814 86.2725 150.081 86.2758 150.41C86.2759 150.42 86.276 150.43 86.2761 150.44C86.2795 150.769 86.5522 151.03 86.8813 151.024C87.2105 151.017 87.4715 150.742 87.4681 150.413C87.4648 150.084 87.1982 149.814 86.8689 149.814Z" fill="#3385FF"/>
<path d="M72.841 150.001C72.5715 150.001 72.3529 150.219 72.3546 150.488C72.3563 150.758 72.5776 150.973 72.8471 150.97L82.8093 150.845C83.041 150.842 83.2263 150.652 83.2248 150.42C83.2234 150.188 83.0357 150.001 82.804 150.001L72.841 150.001Z" fill="#3385FF"/>
<path d="M87.1274 144.313C86.7994 144.284 86.51 144.527 86.4845 144.855C86.4838 144.865 86.483 144.875 86.4823 144.884C86.457 145.213 86.7058 145.497 87.0343 145.519C87.3628 145.541 87.6468 145.29 87.6722 144.961C87.6975 144.633 87.4554 144.342 87.1274 144.313Z" fill="#3385FF"/>
<path d="M73.1358 143.276C72.8674 143.252 72.6306 143.451 72.6088 143.719C72.587 143.988 72.7887 144.222 73.0574 144.242L82.9926 144.986C83.2236 145.003 83.4248 144.83 83.4436 144.599C83.4623 144.368 83.2917 144.164 83.0609 144.144L73.1358 143.276Z" fill="#3385FF"/>
<path d="M86.8699 149.814C86.5407 149.814 86.2735 150.081 86.2768 150.41C86.2769 150.42 86.277 150.43 86.2771 150.44C86.2805 150.769 86.5531 151.03 86.8823 151.023C87.2115 151.017 87.4725 150.742 87.4691 150.413C87.4657 150.083 87.1991 149.814 86.8699 149.814Z" fill="#3385FF"/>
<path d="M72.8419 150C72.5725 150 72.3539 150.219 72.3556 150.488C72.3573 150.758 72.5786 150.973 72.848 150.97L82.8102 150.845C83.0419 150.842 83.2273 150.652 83.2258 150.42C83.2243 150.188 83.0366 150 82.8049 150L72.8419 150Z" fill="#3385FF"/>
<path d="M86.8699 149.814C86.5407 149.814 86.2735 150.081 86.2767 150.41C86.2768 150.42 86.2769 150.43 86.277 150.44C86.2805 150.769 86.5531 151.03 86.8823 151.023C87.2115 151.017 87.4725 150.742 87.4691 150.413C87.4657 150.083 87.1991 149.814 86.8699 149.814Z" fill="#3385FF"/>
<path d="M72.8419 150C72.5725 150 72.3539 150.219 72.3556 150.488C72.3573 150.758 72.5786 150.973 72.848 150.97L82.8102 150.845C83.0419 150.842 83.2273 150.652 83.2258 150.42C83.2243 150.188 83.0366 150 82.8049 150L72.8419 150Z" fill="#3385FF"/>
<path d="M87.0944 155.317C86.7664 155.345 86.5235 155.635 86.5554 155.962C86.5564 155.972 86.5573 155.982 86.5583 155.992C86.5904 156.319 86.8848 156.556 87.2121 156.521C87.5395 156.485 87.7755 156.189 87.7435 155.861C87.7114 155.533 87.4224 155.288 87.0944 155.317Z" fill="#3385FF"/>
<path d="M73.1364 156.725C72.868 156.748 72.6693 156.985 72.6944 157.253C72.7196 157.521 72.9589 157.717 73.227 157.69L83.1404 156.697C83.3709 156.674 83.539 156.468 83.5173 156.238C83.4957 156.007 83.2923 155.836 83.0615 155.856L73.1364 156.725Z" fill="#3385FF"/>
<path d="M87.7969 160.779C87.4726 160.836 87.2558 161.145 87.3163 161.469C87.3181 161.479 87.3199 161.488 87.3217 161.498C87.3823 161.822 87.6961 162.032 88.0191 161.968C88.3421 161.904 88.5514 161.588 88.491 161.265C88.4305 160.941 88.1211 160.722 87.7969 160.779Z" fill="#3385FF"/>
<path d="M74.0144 163.398C73.7491 163.445 73.5718 163.698 73.6202 163.963C73.6687 164.228 73.9241 164.402 74.1888 164.352L83.9779 162.499C84.2056 162.456 84.3551 162.236 84.3134 162.008C84.2717 161.781 84.0543 161.628 83.8261 161.668L74.0144 163.398Z" fill="#3385FF"/>
<path d="M88.9732 166.16C88.6551 166.245 88.4661 166.572 88.5545 166.889C88.5572 166.898 88.5598 166.908 88.5625 166.917C88.651 167.234 88.982 167.416 89.2982 167.325C89.6144 167.233 89.7954 166.9 89.7069 166.583C89.6184 166.266 89.2912 166.074 88.9732 166.16Z" fill="#3385FF"/>
<path d="M75.4717 169.97C75.2115 170.04 75.0569 170.307 75.1282 170.567C75.1996 170.827 75.4692 170.978 75.7286 170.905L85.3189 168.206C85.5419 168.143 85.6717 167.911 85.6104 167.688C85.549 167.464 85.3191 167.332 85.0952 167.392L75.4717 169.97Z" fill="#3385FF"/>
<path d="M90.6126 171.417C90.3032 171.53 90.1434 171.872 90.2591 172.18C90.2626 172.189 90.266 172.198 90.2695 172.208C90.3854 172.516 90.7309 172.668 91.038 172.549C91.345 172.43 91.4962 172.083 91.3805 171.775C91.2647 171.466 90.922 171.304 90.6126 171.417Z" fill="#3385FF"/>
<path d="M77.4944 176.39C77.2412 176.482 77.1105 176.762 77.2042 177.015C77.298 177.267 77.5797 177.394 77.8317 177.299L87.1503 173.774C87.367 173.692 87.4761 173.45 87.3955 173.233C87.3149 173.015 87.0743 172.903 86.8565 172.982L77.4944 176.39Z" fill="#3385FF"/>
<path d="M92.7039 176.511C92.4055 176.65 92.2761 177.005 92.4182 177.302C92.4225 177.311 92.4268 177.32 92.431 177.329C92.5733 177.626 92.9308 177.747 93.2263 177.602C93.5218 177.457 93.6422 177.097 93.5 176.801C93.3578 176.504 93.0023 176.372 92.7039 176.511Z" fill="#3385FF"/>
<path d="M80.0694 182.608C79.8252 182.722 79.7194 183.013 79.8348 183.256C79.9502 183.499 80.242 183.601 80.4847 183.484L89.4606 179.161C89.6694 179.06 89.757 178.81 89.6577 178.6C89.5585 178.391 89.309 178.3 89.099 178.398L80.0694 182.608Z" fill="#3385FF"/>
<path d="M95.2329 181.404C94.9478 181.568 94.8498 181.933 95.0173 182.217C95.0223 182.225 95.0273 182.234 95.0323 182.242C95.1999 182.525 95.5667 182.616 95.8484 182.445C96.1301 182.275 96.2187 181.906 96.0512 181.623C95.8837 181.339 95.518 181.239 95.2329 181.404Z" fill="#3385FF"/>
<path d="M83.1778 188.579C82.9445 188.714 82.8644 189.012 83.0005 189.245C83.1367 189.477 83.4362 189.553 83.6678 189.416L92.2328 184.326C92.432 184.208 92.4974 183.95 92.3802 183.75C92.2631 183.551 92.0066 183.482 91.806 183.598L83.1778 188.579Z" fill="#3385FF"/>
<path d="M98.1789 186.057C97.9092 186.246 97.8434 186.618 98.0349 186.886C98.0407 186.894 98.0464 186.902 98.0521 186.91C98.2438 187.178 98.617 187.236 98.8828 187.041C99.1486 186.847 99.2047 186.472 99.0131 186.204C98.8215 185.936 98.4486 185.869 98.1789 186.057Z" fill="#3385FF"/>
<path d="M86.7953 194.256C86.5746 194.411 86.5208 194.715 86.6767 194.935C86.8327 195.154 87.1376 195.204 87.3564 195.047L95.4451 189.23C95.6333 189.095 95.676 188.833 95.5419 188.644C95.4078 188.455 95.1463 188.409 94.9565 188.542L86.7953 194.256Z" fill="#3385FF"/>
<path d="M101.518 190.437C101.266 190.648 101.233 191.024 101.447 191.275C101.453 191.282 101.46 191.289 101.466 191.297C101.681 191.547 102.057 191.572 102.305 191.355C102.553 191.138 102.576 190.76 102.362 190.51C102.148 190.26 101.77 190.225 101.518 190.437Z" fill="#3385FF"/>
<path d="M90.8926 199.596C90.6862 199.77 90.6591 200.077 90.8336 200.283C91.0081 200.488 91.3163 200.511 91.5205 200.335L99.0715 193.836C99.2471 193.684 99.2668 193.42 99.1168 193.243C98.9667 193.067 98.7022 193.043 98.5247 193.192L90.8926 199.596Z" fill="#3385FF"/>
<path d="M105.228 194.508C104.995 194.741 104.995 195.119 105.23 195.349C105.237 195.356 105.244 195.363 105.251 195.37C105.486 195.6 105.864 195.592 106.092 195.355C106.32 195.117 106.31 194.738 106.075 194.508C105.839 194.278 105.46 194.276 105.228 194.508Z" fill="#3385FF"/>
<path d="M95.4402 204.559C95.2497 204.75 95.2496 205.059 95.4413 205.248C95.633 205.438 95.942 205.434 96.1301 205.241L103.086 198.108C103.248 197.942 103.244 197.676 103.079 197.514C102.914 197.351 102.649 197.351 102.485 197.514L95.4402 204.559Z" fill="#3385FF"/>
<path d="M109.278 198.241C109.066 198.493 109.099 198.869 109.353 199.078C109.361 199.085 109.369 199.091 109.376 199.097C109.631 199.306 110.006 199.265 110.212 199.009C110.419 198.752 110.376 198.376 110.122 198.167C109.867 197.958 109.49 197.989 109.278 198.241Z" fill="#3385FF"/>
<path d="M100.404 209.107C100.231 209.313 100.257 209.621 100.465 209.793C100.672 209.965 100.98 209.934 101.15 209.725L107.458 202.013C107.605 201.834 107.578 201.57 107.4 201.422C107.221 201.274 106.957 201.297 106.808 201.475L100.404 209.107Z" fill="#3385FF"/>
<path d="M113.637 201.606C113.448 201.876 113.514 202.248 113.785 202.434C113.793 202.44 113.801 202.445 113.81 202.451C114.081 202.637 114.452 202.563 114.635 202.29C114.818 202.016 114.743 201.645 114.471 201.459C114.2 201.273 113.826 201.337 113.637 201.606Z" fill="#3385FF"/>
<path d="M105.743 213.204C105.589 213.425 105.642 213.729 105.864 213.882C106.086 214.036 106.389 213.978 106.541 213.755L112.153 205.523C112.283 205.332 112.234 205.071 112.043 204.939C111.852 204.807 111.591 204.853 111.458 205.043L105.743 213.204Z" fill="#3385FF"/>
<path d="M118.272 204.58C118.108 204.865 118.205 205.23 118.492 205.391C118.501 205.396 118.509 205.401 118.518 205.406C118.805 205.567 119.167 205.462 119.326 205.174C119.485 204.885 119.377 204.522 119.091 204.36C118.804 204.198 118.437 204.294 118.272 204.58Z" fill="#3385FF"/>
<path d="M111.42 216.821C111.285 217.054 111.365 217.353 111.599 217.486C111.833 217.619 112.13 217.536 112.262 217.301L117.135 208.61C117.248 208.408 117.176 208.153 116.975 208.038C116.773 207.924 116.517 207.992 116.401 208.193L111.42 216.821Z" fill="#3385FF"/>
<path d="M118.272 204.579C118.108 204.864 118.205 205.229 118.492 205.391C118.501 205.396 118.509 205.4 118.518 205.405C118.805 205.567 119.167 205.462 119.326 205.173C119.485 204.885 119.377 204.521 119.091 204.359C118.804 204.198 118.437 204.294 118.272 204.579Z" fill="#3385FF"/>
<path d="M111.42 216.821C111.285 217.054 111.365 217.352 111.599 217.486C111.833 217.619 112.13 217.535 112.262 217.3L117.135 208.61C117.248 208.408 117.176 208.152 116.975 208.038C116.773 207.923 116.517 207.992 116.401 208.192L111.42 216.821Z" fill="#3385FF"/>
<path d="M123.15 207.136C123.011 207.435 123.14 207.79 123.439 207.926C123.448 207.93 123.457 207.934 123.466 207.938C123.766 208.074 124.118 207.938 124.251 207.636C124.384 207.335 124.245 206.982 123.946 206.846C123.646 206.71 123.289 206.838 123.15 207.136Z" fill="#3385FF"/>
<path d="M117.39 219.929C117.276 220.173 117.382 220.463 117.626 220.576C117.871 220.688 118.16 220.579 118.271 220.333L122.368 211.251C122.463 211.04 122.369 210.792 122.159 210.695C121.948 210.599 121.698 210.689 121.6 210.899L117.39 219.929Z" fill="#3385FF"/>
<path d="M128.233 209.259C128.12 209.568 128.28 209.911 128.59 210.02C128.599 210.024 128.609 210.027 128.618 210.03C128.928 210.14 129.267 209.973 129.374 209.661C129.48 209.35 129.311 209.01 129 208.901C128.69 208.791 128.345 208.95 128.233 209.259Z" fill="#3385FF"/>
<path d="M123.61 222.505C123.517 222.758 123.648 223.038 123.902 223.129C124.155 223.219 124.434 223.085 124.523 222.831L127.812 213.426C127.889 213.208 127.774 212.968 127.555 212.891C127.337 212.813 127.096 212.925 127.017 213.143L123.61 222.505Z" fill="#3385FF"/>
<path d="M133.483 210.931C133.397 211.249 133.586 211.576 133.905 211.658C133.914 211.66 133.924 211.663 133.933 211.665C134.252 211.747 134.575 211.551 134.654 211.232C134.733 210.912 134.535 210.589 134.216 210.507C133.897 210.425 133.568 210.613 133.483 210.931Z" fill="#3385FF"/>
<path d="M130.031 224.529C129.961 224.789 130.115 225.057 130.376 225.125C130.637 225.193 130.902 225.035 130.969 224.774L133.426 215.119C133.483 214.894 133.348 214.666 133.123 214.607C132.899 214.549 132.669 214.681 132.609 214.905L130.031 224.529Z" fill="#3385FF"/>
<path d="M138.854 212.139C138.797 212.463 139.014 212.772 139.339 212.826C139.348 212.828 139.358 212.829 139.368 212.831C139.693 212.885 139.997 212.662 140.048 212.336C140.098 212.011 139.873 211.706 139.548 211.652C139.223 211.599 138.912 211.814 138.854 212.139Z" fill="#3385FF"/>
<path d="M136.602 225.986C136.555 226.251 136.732 226.504 136.998 226.549C137.263 226.595 137.514 226.414 137.558 226.148L139.164 216.316C139.202 216.087 139.047 215.871 138.818 215.833C138.59 215.794 138.372 215.946 138.332 216.174L136.602 225.986Z" fill="#3385FF"/>
<path d="M144.313 212.873C144.285 213.201 144.527 213.491 144.856 213.516C144.865 213.517 144.875 213.518 144.885 213.518C145.213 213.544 145.497 213.295 145.519 212.966C145.541 212.638 145.29 212.354 144.962 212.329C144.634 212.303 144.342 212.545 144.313 212.873Z" fill="#3385FF"/>
<path d="M143.276 226.864C143.252 227.133 143.451 227.369 143.72 227.391C143.988 227.413 144.222 227.211 144.242 226.943L144.986 217.007C145.003 216.776 144.83 216.575 144.599 216.556C144.368 216.538 144.164 216.708 144.144 216.939L143.276 226.864Z" fill="#3385FF"/>
<path d="M149.814 213.13C149.814 213.459 150.081 213.727 150.41 213.723C150.42 213.723 150.43 213.723 150.439 213.723C150.769 213.719 151.03 213.447 151.023 213.118C151.016 212.789 150.742 212.528 150.412 212.531C150.083 212.534 149.814 212.801 149.814 213.13Z" fill="#3385FF"/>
<path d="M150 227.158C150 227.428 150.218 227.646 150.488 227.644C150.757 227.643 150.973 227.421 150.969 227.152L150.844 217.19C150.841 216.958 150.651 216.773 150.419 216.774C150.188 216.776 150 216.963 150 217.195L150 227.158Z" fill="#3385FF"/>
<path d="M155.316 212.906C155.345 213.234 155.634 213.477 155.962 213.445C155.972 213.444 155.982 213.443 155.991 213.442C156.319 213.41 156.556 213.115 156.52 212.788C156.485 212.461 156.188 212.225 155.861 212.257C155.533 212.289 155.288 212.578 155.316 212.906Z" fill="#3385FF"/>
<path d="M156.725 226.864C156.748 227.133 156.985 227.331 157.253 227.306C157.521 227.281 157.717 227.042 157.69 226.774L156.697 216.86C156.674 216.63 156.468 216.462 156.238 216.483C156.007 216.505 155.836 216.708 155.856 216.939L156.725 226.864Z" fill="#3385FF"/>
<path d="M160.778 212.203C160.835 212.527 161.144 212.744 161.468 212.684C161.477 212.682 161.487 212.68 161.497 212.678C161.82 212.618 162.03 212.304 161.967 211.981C161.903 211.658 161.587 211.449 161.263 211.509C160.939 211.57 160.72 211.879 160.778 212.203Z" fill="#3385FF"/>
<path d="M163.397 225.986C163.444 226.251 163.697 226.429 163.962 226.38C164.227 226.332 164.401 226.076 164.351 225.811L162.497 216.022C162.454 215.795 162.235 215.645 162.007 215.687C161.779 215.729 161.626 215.946 161.667 216.174L163.397 225.986Z" fill="#3385FF"/>
<path d="M166.158 211.027C166.243 211.345 166.57 211.534 166.887 211.446C166.896 211.443 166.906 211.44 166.915 211.438C167.233 211.349 167.414 211.018 167.323 210.702C167.231 210.386 166.898 210.205 166.581 210.293C166.264 210.382 166.072 210.709 166.158 211.027Z" fill="#3385FF"/>
<path d="M169.968 224.529C170.038 224.789 170.306 224.944 170.566 224.873C170.825 224.801 170.976 224.532 170.903 224.272L168.204 214.682C168.141 214.459 167.91 214.329 167.686 214.39C167.463 214.452 167.33 214.682 167.39 214.906L169.968 224.529Z" fill="#3385FF"/>
<path d="M171.414 209.386C171.527 209.696 171.869 209.856 172.177 209.74C172.186 209.736 172.196 209.733 172.205 209.73C172.513 209.614 172.665 209.268 172.546 208.961C172.427 208.654 172.08 208.503 171.772 208.619C171.463 208.734 171.301 209.077 171.414 209.386Z" fill="#3385FF"/>
<path d="M176.387 222.505C176.479 222.758 176.759 222.889 177.012 222.795C177.265 222.701 177.391 222.42 177.296 222.168L173.771 212.849C173.689 212.632 173.447 212.523 173.23 212.604C173.013 212.684 172.9 212.925 172.98 213.143L176.387 222.505Z" fill="#3385FF"/>
<path d="M176.512 207.294C176.651 207.593 177.006 207.722 177.303 207.58C177.312 207.576 177.32 207.571 177.329 207.567C177.626 207.425 177.748 207.067 177.603 206.772C177.457 206.476 177.098 206.356 176.801 206.498C176.504 206.64 176.373 206.996 176.512 207.294Z" fill="#3385FF"/>
<path d="M182.609 219.929C182.722 220.173 183.013 220.279 183.256 220.164C183.5 220.048 183.602 219.757 183.485 219.514L179.161 210.538C179.06 210.329 178.81 210.242 178.6 210.341C178.391 210.44 178.3 210.69 178.398 210.9L182.609 219.929Z" fill="#3385FF"/>
<path d="M181.404 204.765C181.568 205.05 181.933 205.148 182.216 204.981C182.225 204.976 182.233 204.971 182.242 204.966C182.525 204.798 182.615 204.431 182.445 204.15C182.274 203.868 181.906 203.779 181.622 203.947C181.339 204.114 181.239 204.48 181.404 204.765Z" fill="#3385FF"/>
<path d="M188.579 216.821C188.713 217.054 189.012 217.134 189.244 216.998C189.477 216.862 189.553 216.562 189.415 216.331L184.326 207.766C184.207 207.567 183.95 207.501 183.75 207.618C183.55 207.735 183.481 207.992 183.597 208.193L188.579 216.821Z" fill="#3385FF"/>
<path d="M131.229 130.307C132.127 130.307 132.991 130.458 133.82 130.759C134.655 131.06 135.4 131.54 136.053 132.199C136.712 132.858 137.232 133.733 137.613 134.824C137.999 135.909 138.195 137.242 138.201 138.821C138.201 140.304 138.033 141.628 137.698 142.793C137.368 143.952 136.894 144.938 136.275 145.75C135.655 146.563 134.908 147.182 134.033 147.608C133.158 148.029 132.181 148.239 131.101 148.239C129.937 148.239 128.908 148.014 128.016 147.566C127.124 147.111 126.405 146.495 125.86 145.716C125.32 144.932 124.993 144.051 124.88 143.074L128.519 143.074C128.661 143.71 128.959 144.205 129.414 144.557C129.868 144.904 130.431 145.077 131.101 145.077C132.238 145.077 133.101 144.583 133.692 143.594C134.283 142.6 134.581 141.239 134.587 139.512L134.468 139.512C134.206 140.023 133.854 140.463 133.411 140.833C132.968 141.196 132.459 141.478 131.885 141.676C131.317 141.875 130.712 141.975 130.07 141.975C129.042 141.975 128.124 141.733 127.317 141.25C126.51 140.767 125.874 140.103 125.408 139.256C124.942 138.409 124.709 137.443 124.709 136.358C124.704 135.188 124.973 134.145 125.519 133.23C126.064 132.316 126.826 131.6 127.803 131.083C128.786 130.56 129.928 130.301 131.229 130.307ZM131.255 133.205C130.681 133.205 130.169 133.341 129.721 133.614C129.277 133.887 128.925 134.253 128.664 134.713C128.408 135.174 128.283 135.688 128.289 136.256C128.289 136.83 128.414 137.347 128.664 137.807C128.919 138.262 129.266 138.625 129.704 138.898C130.147 139.165 130.652 139.299 131.221 139.299C131.647 139.299 132.042 139.219 132.405 139.06C132.769 138.901 133.084 138.682 133.351 138.404C133.624 138.12 133.837 137.793 133.991 137.424C134.144 137.054 134.221 136.662 134.221 136.247C134.215 135.696 134.084 135.191 133.829 134.73C133.573 134.27 133.221 133.901 132.772 133.622C132.323 133.344 131.817 133.205 131.255 133.205ZM147.073 130.307C147.971 130.307 148.834 130.458 149.664 130.759C150.499 131.06 151.243 131.54 151.897 132.199C152.556 132.858 153.076 133.733 153.456 134.824C153.843 135.909 154.039 137.242 154.044 138.821C154.044 140.304 153.877 141.628 153.542 142.793C153.212 143.952 152.738 144.938 152.118 145.75C151.499 146.563 150.752 147.182 149.877 147.608C149.002 148.029 148.025 148.239 146.945 148.239C145.78 148.239 144.752 148.014 143.86 147.566C142.968 147.111 142.249 146.495 141.704 145.716C141.164 144.932 140.837 144.051 140.723 143.074L144.363 143.074C144.505 143.71 144.803 144.205 145.258 144.557C145.712 144.904 146.275 145.077 146.945 145.077C148.081 145.077 148.945 144.583 149.536 143.594C150.127 142.6 150.425 141.239 150.431 139.512L150.312 139.512C150.05 140.023 149.698 140.463 149.255 140.833C148.812 141.196 148.303 141.478 147.729 141.676C147.161 141.875 146.556 141.975 145.914 141.975C144.885 141.975 143.968 141.733 143.161 141.25C142.354 140.767 141.718 140.103 141.252 139.256C140.786 138.409 140.553 137.443 140.553 136.358C140.547 135.188 140.817 134.145 141.363 133.23C141.908 132.316 142.669 131.6 143.647 131.083C144.63 130.56 145.772 130.301 147.073 130.307ZM147.098 133.205C146.525 133.205 146.013 133.341 145.564 133.614C145.121 133.887 144.769 134.253 144.508 134.713C144.252 135.174 144.127 135.688 144.133 136.256C144.133 136.83 144.258 137.347 144.508 137.807C144.763 138.262 145.11 138.625 145.547 138.898C145.991 139.165 146.496 139.299 147.064 139.299C147.491 139.299 147.885 139.219 148.249 139.06C148.613 138.901 148.928 138.682 149.195 138.404C149.468 138.12 149.681 137.793 149.834 137.424C149.988 137.054 150.064 136.662 150.064 136.247C150.059 135.696 149.928 135.191 149.672 134.73C149.417 134.27 149.064 133.901 148.616 133.622C148.167 133.344 147.661 133.205 147.098 133.205ZM166.155 144.728L166.155 143.807C166.155 143.108 166.303 142.466 166.598 141.881C166.9 141.29 167.334 140.818 167.902 140.466C168.476 140.108 169.175 139.929 169.999 139.929C170.834 139.929 171.536 140.105 172.104 140.458C172.678 140.81 173.11 141.281 173.4 141.872C173.695 142.458 173.843 143.103 173.843 143.807L173.843 144.728C173.843 145.426 173.695 146.071 173.4 146.662C173.104 147.247 172.669 147.716 172.096 148.068C171.522 148.426 170.823 148.605 169.999 148.605C169.164 148.605 168.462 148.426 167.894 148.068C167.326 147.716 166.894 147.247 166.598 146.662C166.303 146.071 166.155 145.426 166.155 144.728ZM168.635 143.807L168.635 144.728C168.635 145.131 168.732 145.512 168.925 145.87C169.124 146.228 169.482 146.406 169.999 146.406C170.516 146.406 170.868 146.23 171.056 145.878C171.249 145.526 171.346 145.142 171.346 144.728L171.346 143.807C171.346 143.392 171.255 143.006 171.073 142.648C170.891 142.29 170.533 142.111 169.999 142.111C169.488 142.111 169.133 142.29 168.934 142.648C168.735 143.006 168.635 143.392 168.635 143.807ZM157.198 134.739L157.198 133.818C157.198 133.114 157.348 132.469 157.65 131.884C157.951 131.293 158.385 130.821 158.954 130.469C159.527 130.117 160.221 129.941 161.033 129.941C161.874 129.941 162.579 130.117 163.147 130.469C163.715 130.821 164.147 131.293 164.442 131.884C164.738 132.469 164.885 133.114 164.885 133.818L164.885 134.739C164.885 135.443 164.735 136.088 164.434 136.674C164.138 137.259 163.704 137.728 163.13 138.08C162.562 138.426 161.863 138.6 161.033 138.6C160.204 138.6 159.502 138.424 158.928 138.071C158.36 137.713 157.928 137.245 157.633 136.665C157.343 136.08 157.198 135.438 157.198 134.739ZM159.695 133.818L159.695 134.739C159.695 135.154 159.792 135.537 159.985 135.889C160.184 136.242 160.533 136.418 161.033 136.418C161.556 136.418 161.911 136.242 162.098 135.889C162.292 135.537 162.388 135.154 162.388 134.739L162.388 133.818C162.388 133.404 162.297 133.017 162.116 132.659C161.934 132.301 161.573 132.122 161.033 132.122C160.527 132.122 160.178 132.304 159.985 132.668C159.792 133.031 159.695 133.415 159.695 133.818ZM158.323 148L170.323 130.546L172.556 130.546L160.556 148L158.323 148Z" fill="#0066CC"/>
<path d="M119.639 173L117.332 173L120.847 162.818L123.621 162.818L127.131 173L124.824 173L122.274 165.145L122.194 165.145L119.639 173ZM119.495 168.998L124.944 168.998L124.944 170.679L119.495 170.679L119.495 168.998ZM131.412 173.149C130.629 173.149 129.957 172.984 129.393 172.652C128.833 172.317 128.402 171.853 128.101 171.26C127.802 170.667 127.653 169.984 127.653 169.212C127.653 168.43 127.804 167.744 128.106 167.154C128.41 166.56 128.843 166.098 129.403 165.767C129.963 165.432 130.629 165.264 131.402 165.264C132.068 165.264 132.651 165.385 133.152 165.627C133.652 165.869 134.048 166.209 134.34 166.647C134.632 167.084 134.792 167.598 134.822 168.188L132.824 168.188C132.767 167.807 132.618 167.5 132.376 167.268C132.138 167.033 131.824 166.915 131.437 166.915C131.108 166.915 130.822 167.005 130.576 167.183C130.334 167.359 130.146 167.616 130.01 167.954C129.874 168.292 129.806 168.701 129.806 169.182C129.806 169.669 129.872 170.084 130.005 170.425C130.141 170.766 130.331 171.027 130.576 171.205C130.822 171.384 131.108 171.474 131.437 171.474C131.678 171.474 131.896 171.424 132.088 171.325C132.283 171.225 132.444 171.081 132.57 170.892C132.699 170.7 132.784 170.47 132.824 170.201L134.822 170.201C134.789 170.785 134.63 171.298 134.345 171.742C134.063 172.183 133.674 172.528 133.177 172.777C132.679 173.025 132.091 173.149 131.412 173.149ZM139.628 173.149C138.846 173.149 138.173 172.984 137.61 172.652C137.05 172.317 136.619 171.853 136.317 171.26C136.019 170.667 135.87 169.984 135.87 169.212C135.87 168.43 136.021 167.744 136.322 167.154C136.627 166.56 137.06 166.098 137.62 165.767C138.18 165.432 138.846 165.264 139.619 165.264C140.285 165.264 140.868 165.385 141.369 165.627C141.869 165.869 142.265 166.209 142.557 166.647C142.848 167.084 143.009 167.598 143.039 168.188L141.04 168.188C140.984 167.807 140.835 167.5 140.593 167.268C140.354 167.033 140.041 166.915 139.653 166.915C139.325 166.915 139.039 167.005 138.793 167.183C138.551 167.359 138.362 167.616 138.226 167.954C138.091 168.292 138.023 168.701 138.023 169.182C138.023 169.669 138.089 170.084 138.222 170.425C138.357 170.766 138.548 171.027 138.793 171.205C139.039 171.384 139.325 171.474 139.653 171.474C139.895 171.474 140.112 171.424 140.305 171.325C140.5 171.225 140.661 171.081 140.787 170.892C140.916 170.7 141.001 170.47 141.04 170.201L143.039 170.201C143.006 170.785 142.847 171.298 142.562 171.742C142.28 172.183 141.891 172.528 141.393 172.777C140.896 173.025 140.308 173.149 139.628 173.149ZM149.292 169.749L149.292 165.364L151.41 165.364L151.41 173L149.377 173L149.377 171.613L149.297 171.613C149.125 172.061 148.838 172.42 148.437 172.692C148.039 172.964 147.554 173.1 146.98 173.1C146.47 173.1 146.021 172.984 145.633 172.752C145.245 172.52 144.942 172.19 144.723 171.762C144.508 171.335 144.398 170.823 144.395 170.226L144.395 165.364L146.513 165.364L146.513 169.848C146.516 170.299 146.637 170.655 146.876 170.917C147.114 171.179 147.434 171.31 147.835 171.31C148.091 171.31 148.329 171.252 148.551 171.136C148.773 171.017 148.952 170.841 149.088 170.609C149.227 170.377 149.295 170.09 149.292 169.749ZM153.104 173L153.104 165.364L155.157 165.364L155.157 166.696L155.237 166.696C155.376 166.222 155.61 165.864 155.938 165.622C156.266 165.377 156.644 165.255 157.071 165.255C157.177 165.255 157.292 165.261 157.414 165.274C157.537 165.288 157.645 165.306 157.737 165.329L157.737 167.208C157.638 167.179 157.501 167.152 157.325 167.129C157.149 167.106 156.988 167.094 156.843 167.094C156.531 167.094 156.253 167.162 156.007 167.298C155.765 167.43 155.573 167.616 155.431 167.855C155.291 168.093 155.222 168.368 155.222 168.68L155.222 173L153.104 173ZM160.791 173.144C160.304 173.144 159.87 173.06 159.489 172.891C159.108 172.719 158.806 172.465 158.584 172.13C158.365 171.792 158.256 171.371 158.256 170.867C158.256 170.443 158.334 170.087 158.489 169.799C158.645 169.51 158.857 169.278 159.126 169.103C159.394 168.927 159.699 168.794 160.041 168.705C160.385 168.615 160.747 168.552 161.124 168.516C161.569 168.469 161.926 168.426 162.198 168.387C162.47 168.344 162.667 168.281 162.79 168.198C162.912 168.115 162.974 167.992 162.974 167.83L162.974 167.8C162.974 167.485 162.874 167.241 162.676 167.069C162.48 166.897 162.202 166.811 161.84 166.811C161.459 166.811 161.156 166.895 160.93 167.064C160.705 167.23 160.556 167.439 160.483 167.691L158.524 167.531C158.624 167.067 158.819 166.666 159.111 166.328C159.403 165.987 159.779 165.725 160.239 165.543C160.703 165.357 161.24 165.264 161.85 165.264C162.274 165.264 162.68 165.314 163.068 165.414C163.459 165.513 163.806 165.667 164.107 165.876C164.412 166.085 164.653 166.353 164.828 166.681C165.004 167.006 165.092 167.396 165.092 167.85L165.092 173L163.083 173L163.083 171.941L163.024 171.941C162.901 172.18 162.737 172.39 162.531 172.573C162.326 172.752 162.079 172.893 161.791 172.995C161.502 173.095 161.169 173.144 160.791 173.144ZM161.398 171.683C161.709 171.683 161.984 171.621 162.223 171.499C162.462 171.373 162.649 171.204 162.785 170.992C162.921 170.78 162.989 170.539 162.989 170.271L162.989 169.46C162.922 169.504 162.831 169.543 162.715 169.58C162.603 169.613 162.475 169.644 162.332 169.674C162.19 169.701 162.047 169.726 161.905 169.749C161.762 169.769 161.633 169.787 161.517 169.804C161.269 169.84 161.051 169.898 160.866 169.978C160.68 170.057 160.536 170.165 160.433 170.301C160.331 170.433 160.279 170.599 160.279 170.798C160.279 171.086 160.384 171.307 160.592 171.459C160.805 171.608 161.073 171.683 161.398 171.683ZM170.185 173.149C169.403 173.149 168.73 172.984 168.167 172.652C167.607 172.317 167.176 171.853 166.874 171.26C166.576 170.667 166.427 169.984 166.427 169.212C166.427 168.43 166.577 167.744 166.879 167.154C167.184 166.56 167.616 166.098 168.177 165.767C168.737 165.432 169.403 165.264 170.175 165.264C170.841 165.264 171.425 165.385 171.925 165.627C172.426 165.869 172.822 166.209 173.113 166.647C173.405 167.084 173.566 167.598 173.596 168.188L171.597 168.188C171.541 167.807 171.392 167.5 171.15 167.268C170.911 167.033 170.598 166.915 170.21 166.915C169.882 166.915 169.595 167.005 169.35 167.183C169.108 167.359 168.919 167.616 168.783 167.954C168.647 168.292 168.579 168.701 168.579 169.182C168.579 169.669 168.646 170.084 168.778 170.425C168.914 170.766 169.105 171.027 169.35 171.205C169.595 171.384 169.882 171.474 170.21 171.474C170.452 171.474 170.669 171.424 170.861 171.325C171.057 171.225 171.218 171.081 171.343 170.892C171.473 170.7 171.557 170.47 171.597 170.201L173.596 170.201C173.562 170.785 173.403 171.298 173.118 171.742C172.837 172.183 172.447 172.528 171.95 172.777C171.453 173.025 170.865 173.149 170.185 173.149ZM176.259 175.864C175.991 175.864 175.739 175.842 175.503 175.799C175.271 175.759 175.079 175.708 174.927 175.645L175.404 174.064C175.653 174.14 175.876 174.182 176.075 174.188C176.277 174.195 176.451 174.149 176.597 174.049C176.746 173.95 176.867 173.781 176.96 173.542L177.084 173.219L174.345 165.364L176.572 165.364L178.153 170.972L178.233 170.972L179.829 165.364L182.071 165.364L179.103 173.826C178.96 174.237 178.766 174.594 178.521 174.899C178.279 175.208 177.973 175.445 177.601 175.61C177.23 175.779 176.783 175.864 176.259 175.864Z" fill="#0066CC"/>
</svg>
