<svg width="18" height="18" viewBox="0 0 18 18" fill="none" xmlns="http://www.w3.org/2000/svg">
<path d="M5.94037 4.74713C5.61087 4.41762 5.07663 4.41762 4.74713 4.74713C4.41762 5.07663 4.41762 5.61087 4.74713 5.94037L7.80676 9L4.74713 12.0596C4.41762 12.3891 4.41762 12.9234 4.74713 13.2529C5.07663 13.5824 5.61087 13.5824 5.94037 13.2529L9 10.1932L12.0596 13.2529C12.3891 13.5824 12.9234 13.5824 13.2529 13.2529C13.5824 12.9234 13.5824 12.3891 13.2529 12.0596L10.1932 9L13.2529 5.94037C13.5824 5.61087 13.5824 5.07663 13.2529 4.74713C12.9234 4.41762 12.3891 4.41762 12.0596 4.74713L9 7.80676L5.94037 4.74713Z" fill="white"/>
</svg>
