<svg width="100" height="100" viewBox="0 0 100 100" fill="none" xmlns="http://www.w3.org/2000/svg">
<circle cx="50" cy="50" r="47" stroke="#084F76" stroke-width="6"/>
<path fill-rule="evenodd" clip-rule="evenodd" d="M50 23.125C50.4973 23.125 50.9742 23.3225 51.3258 23.6742C51.6775 24.0258 51.875 24.5027 51.875 25V52.4325L56.075 47.53C56.2352 47.3429 56.4307 47.1891 56.6503 47.0775C56.87 46.966 57.1094 46.8987 57.355 46.8797C57.6007 46.8607 57.8476 46.8902 58.0818 46.9666C58.316 47.043 58.5329 47.1648 58.72 47.325C58.9071 47.4852 59.0609 47.6807 59.1725 47.9003C59.284 48.12 59.3513 48.3594 59.3703 48.605C59.3893 48.8507 59.3598 49.0976 59.2834 49.3318C59.207 49.566 59.0852 49.7829 58.925 49.97L51.425 58.72C51.249 58.9258 51.0304 59.0911 50.7845 59.2044C50.5385 59.3177 50.2708 59.3764 50 59.3764C49.7292 59.3764 49.4615 59.3177 49.2155 59.2044C48.9696 59.0911 48.751 58.9258 48.575 58.72L41.075 49.97C40.9148 49.7829 40.793 49.566 40.7166 49.3318C40.6402 49.0976 40.6107 48.8507 40.6297 48.605C40.6487 48.3594 40.716 48.12 40.8275 47.9003C40.9391 47.6807 41.0929 47.4852 41.28 47.325C41.4671 47.1648 41.684 47.043 41.9182 46.9666C42.1524 46.8902 42.3993 46.8607 42.645 46.8797C42.8906 46.8987 43.13 46.966 43.3497 47.0775C43.5693 47.1891 43.7648 47.3429 43.925 47.53L48.125 52.43V25C48.125 24.5027 48.3225 24.0258 48.6742 23.6742C49.0258 23.3225 49.5027 23.125 50 23.125ZM37.49 40.63C37.9873 40.6273 38.4652 40.8223 38.8188 41.1721C39.1723 41.5219 39.3723 41.9977 39.375 42.495C39.3777 42.9923 39.1827 43.4702 38.8329 43.8238C38.4831 44.1773 38.0073 44.3773 37.51 44.38C34.7775 44.395 32.84 44.465 31.3675 44.735C29.9525 44.9975 29.13 45.415 28.5225 46.0225C27.83 46.715 27.38 47.6875 27.1325 49.5225C26.88 51.41 26.875 53.9125 26.875 57.5V60C26.875 63.59 26.88 66.0925 27.1325 67.98C27.38 69.815 27.8325 70.785 28.5225 71.48C29.215 72.17 30.185 72.62 32.0225 72.8675C33.9075 73.1225 36.4125 73.125 40 73.125H60C63.5875 73.125 66.09 73.1225 67.98 72.8675C69.815 72.62 70.785 72.17 71.4775 71.4775C72.17 70.785 72.62 69.815 72.8675 67.98C73.12 66.0925 73.125 63.59 73.125 60V57.5C73.125 53.9125 73.12 51.41 72.8675 49.52C72.62 47.6875 72.1675 46.715 71.4775 46.0225C70.8675 45.415 70.0475 44.9975 68.6325 44.735C67.16 44.465 65.2225 44.395 62.49 44.38C62.2438 44.3787 62.0002 44.3289 61.7732 44.2334C61.5462 44.138 61.3403 43.9988 61.1671 43.8238C60.9939 43.6487 60.8569 43.4413 60.7639 43.2133C60.6709 42.9853 60.6237 42.7412 60.625 42.495C60.6263 42.2488 60.6761 42.0052 60.7716 41.7782C60.867 41.5512 61.0062 41.3453 61.1812 41.1721C61.3563 40.9989 61.5637 40.8619 61.7917 40.7689C62.0197 40.6759 62.2638 40.6287 62.51 40.63C65.215 40.645 67.4675 40.71 69.31 41.0475C71.205 41.3975 72.8175 42.06 74.13 43.3725C75.635 44.875 76.28 46.7725 76.585 49.0225C76.875 51.1875 76.875 53.945 76.875 57.3625V60.1375C76.875 63.5575 76.875 66.3125 76.585 68.48C76.28 70.73 75.635 72.625 74.13 74.13C72.625 75.635 70.73 76.28 68.48 76.585C66.3125 76.875 63.555 76.875 60.1375 76.875H39.8625C36.445 76.875 33.6875 76.875 31.52 76.585C29.27 76.2825 27.375 75.635 25.87 74.13C24.365 72.625 23.72 70.73 23.4175 68.48C23.125 66.3125 23.125 63.555 23.125 60.1375V57.3625C23.125 53.945 23.125 51.1875 23.4175 49.02C23.7175 46.77 24.3675 44.875 25.87 43.37C27.1825 42.06 28.795 41.395 30.69 41.0475C32.5325 40.71 34.785 40.645 37.49 40.63Z" fill="#084F76" stroke="#084F76"/>
</svg>
