<svg width="24" height="25" viewBox="0 0 24 25" fill="none" xmlns="http://www.w3.org/2000/svg">
<path d="M18 2.89844C17.3635 2.89844 16.753 3.15129 16.3029 3.60138C15.8528 4.05147 15.6 4.66192 15.6 5.29844V6.49844H13.698C13.5743 6.14684 13.3445 5.84231 13.0404 5.62689C12.7362 5.41146 12.3727 5.29576 12 5.29576C11.6273 5.29576 11.2637 5.41146 10.9596 5.62689C10.6554 5.84231 10.4257 6.14684 10.302 6.49844H8.39998V5.29844C8.39998 4.66192 8.14712 4.05147 7.69703 3.60138C7.24694 3.15129 6.6365 2.89844 5.99998 2.89844C5.36346 2.89844 4.75301 3.15129 4.30292 3.60138C3.85283 4.05147 3.59998 4.66192 3.59998 5.29844V8.89844C3.59998 9.53496 3.85283 10.1454 4.30292 10.5955C4.75301 11.0456 5.36346 11.2984 5.99998 11.2984C6.6365 11.2984 7.24694 11.0456 7.69703 10.5955C8.14712 10.1454 8.39998 9.53496 8.39998 8.89844V7.69844H10.302C10.4832 8.20964 10.8888 8.61524 11.4 8.79644V16.2004C11.1466 16.2899 10.9165 16.435 10.7265 16.6249C10.5365 16.8149 10.3914 17.0451 10.302 17.2984H8.39998V16.0984C8.39998 15.4619 8.14712 14.8515 7.69703 14.4014C7.24694 13.9513 6.6365 13.6984 5.99998 13.6984C5.36346 13.6984 4.75301 13.9513 4.30292 14.4014C3.85283 14.8515 3.59998 15.4619 3.59998 16.0984V19.6984C3.59998 20.335 3.85283 20.9454 4.30292 21.3955C4.75301 21.8456 5.36346 22.0984 5.99998 22.0984C6.6365 22.0984 7.24694 21.8456 7.69703 21.3955C8.14712 20.9454 8.39998 20.335 8.39998 19.6984V18.4984H10.302C10.4257 18.85 10.6554 19.1546 10.9596 19.37C11.2637 19.5854 11.6273 19.7011 12 19.7011C12.3727 19.7011 12.7362 19.5854 13.0404 19.37C13.3445 19.1546 13.5743 18.85 13.698 18.4984H15.6V19.6984C15.6 20.335 15.8528 20.9454 16.3029 21.3955C16.753 21.8456 17.3635 22.0984 18 22.0984C18.6365 22.0984 19.2469 21.8456 19.697 21.3955C20.1471 20.9454 20.4 20.335 20.4 19.6984V16.0984C20.4 15.4619 20.1471 14.8515 19.697 14.4014C19.2469 13.9513 18.6365 13.6984 18 13.6984C17.3635 13.6984 16.753 13.9513 16.3029 14.4014C15.8528 14.8515 15.6 15.4619 15.6 16.0984V17.2984H13.698C13.6085 17.0451 13.4635 16.8149 13.2735 16.6249C13.0835 16.435 12.8533 16.2899 12.6 16.2004V8.79644C13.1112 8.61524 13.5168 8.20964 13.698 7.69844H15.6V8.89844C15.6 9.53496 15.8528 10.1454 16.3029 10.5955C16.753 11.0456 17.3635 11.2984 18 11.2984C18.6365 11.2984 19.2469 11.0456 19.697 10.5955C20.1471 10.1454 20.4 9.53496 20.4 8.89844V5.29844C20.4 4.66192 20.1471 4.05147 19.697 3.60138C19.2469 3.15129 18.6365 2.89844 18 2.89844Z" fill="#084F76"/>
</svg>
