<svg width="16" height="17" viewBox="0 0 16 17" fill="none" xmlns="http://www.w3.org/2000/svg">
<path d="M6.45687 14.5H11.2931C11.4245 14.5004 11.5546 14.4747 11.676 14.4244C11.7973 14.3741 11.9075 14.3001 12 14.2069L6.45687 14.5ZM6.45687 14.5C6.3255 14.5004 6.19536 14.4747 6.07401 14.4244C5.95266 14.3741 5.84252 14.3001 5.75 14.2069L6.45687 14.5ZM14.2069 11.9531H14.1875L14.1737 11.9669L11.9669 14.1737L11.9667 14.1739C11.8786 14.2627 11.7736 14.3332 11.658 14.3811C11.5424 14.429 11.4184 14.4535 11.2933 14.4531H11.2931H6.45687H6.45673C6.33157 14.4535 6.20758 14.429 6.09197 14.3811C5.97635 14.3332 5.87142 14.2627 5.78328 14.1739L5.78315 14.1737L3.32627 11.7169L3.32614 11.7167C3.23729 11.6286 3.16684 11.5236 3.1189 11.408C3.07096 11.2924 3.04647 11.1684 3.04688 11.0433V11.0431V9.75V9.70312H3H1.5H1.45312V9.75V11.25C1.45312 11.3702 1.40539 11.4854 1.32041 11.5704C1.23543 11.6554 1.12018 11.7031 1 11.7031C0.879824 11.7031 0.76457 11.6554 0.679592 11.5704C0.594615 11.4854 0.546875 11.3702 0.546875 11.25V7.25C0.546875 7.12982 0.594615 7.01457 0.679592 6.92959C0.76457 6.84461 0.879824 6.79688 1 6.79688C1.12018 6.79688 1.23543 6.84461 1.32041 6.92959C1.40539 7.01457 1.45312 7.12982 1.45312 7.25V8.75V8.79688H1.5H3H3.04688V8.75V5.5C3.04688 5.24722 3.14729 5.00478 3.32604 4.82604C3.50478 4.64729 3.74722 4.54688 4 4.54688H7.75H7.79688V4.5V3V2.95312H7.75H6.25C6.12982 2.95312 6.01457 2.90539 5.92959 2.82041C5.84461 2.73543 5.79688 2.62018 5.79688 2.5C5.79688 2.37982 5.84461 2.26457 5.92959 2.17959C6.01457 2.09461 6.12982 2.04688 6.25 2.04688H10.25C10.3702 2.04688 10.4854 2.09461 10.5704 2.17959C10.6554 2.26457 10.7031 2.37982 10.7031 2.5C10.7031 2.62018 10.6554 2.73543 10.5704 2.82041C10.4854 2.90539 10.3702 2.95312 10.25 2.95312H8.75H8.70312V3V4.5V4.54688H8.75L11.2931 4.54688L11.2933 4.54687C11.4184 4.54647 11.5424 4.57096 11.658 4.6189C11.7736 4.66684 11.8786 4.73729 11.9667 4.82614L11.9669 4.82627L14.1737 7.03315L14.1875 7.04688H14.2069H15C15.2528 7.04688 15.4952 7.14729 15.674 7.32604C15.8527 7.50478 15.9531 7.74722 15.9531 8V11C15.9531 11.2528 15.8527 11.4952 15.674 11.674C15.4952 11.8527 15.2528 11.9531 15 11.9531H14.2069Z" fill="#084F76" stroke="#084F76" stroke-width="0.09375"/>
</svg>
