<svg width="24" height="25" viewBox="0 0 24 25" fill="none" xmlns="http://www.w3.org/2000/svg">
<path d="M9.68531 21.5H16.9397C17.1367 21.5006 17.332 21.4621 17.514 21.3866C17.696 21.3111 17.8612 21.2002 18 21.0603L9.68531 21.5ZM9.68531 21.5C9.48826 21.5006 9.29304 21.4621 9.11102 21.3866C8.92899 21.3111 8.76378 21.2002 8.625 21.0603L9.68531 21.5ZM21.3103 17.7031H21.2909L21.2772 17.7169L17.9669 21.0272L17.9667 21.0273C17.8323 21.1628 17.6723 21.2702 17.496 21.3433C17.3197 21.4164 17.1307 21.4537 16.9398 21.4531H16.9397H9.68531H9.68516C9.49432 21.4537 9.30526 21.4164 9.12897 21.3433C8.95268 21.2702 8.79269 21.1628 8.65828 21.0273L8.65815 21.0272L4.97283 17.3419L4.9727 17.3417C4.83722 17.2073 4.7298 17.0473 4.6567 16.871C4.5836 16.6947 4.54626 16.5057 4.54688 16.3148V16.3147V14.375V14.3281H4.5H2.25H2.20312V14.375V16.625C2.20312 16.8115 2.12905 16.9903 1.99718 17.1222C1.86532 17.254 1.68648 17.3281 1.5 17.3281C1.31352 17.3281 1.13468 17.254 1.00282 17.1222C0.870954 16.9903 0.796875 16.8115 0.796875 16.625V10.625C0.796875 10.4385 0.870954 10.2597 1.00282 10.1278C1.13468 9.99595 1.31352 9.92188 1.5 9.92188C1.68648 9.92188 1.86532 9.99595 1.99718 10.1278C2.12905 10.2597 2.20312 10.4385 2.20312 10.625V12.875V12.9219H2.25H4.5H4.54688V12.875V8C4.54688 7.61461 4.69997 7.245 4.97249 6.97249C5.245 6.69997 5.61461 6.54688 6 6.54688H11.625H11.6719V6.5V4.25V4.20312H11.625H9.375C9.18852 4.20312 9.00968 4.12905 8.87782 3.99718C8.74595 3.86532 8.67188 3.68648 8.67188 3.5C8.67188 3.31352 8.74595 3.13468 8.87782 3.00282C9.00968 2.87095 9.18852 2.79688 9.375 2.79688H15.375C15.5615 2.79688 15.7403 2.87095 15.8722 3.00282C16.004 3.13468 16.0781 3.31352 16.0781 3.5C16.0781 3.68648 16.004 3.86532 15.8722 3.99718C15.7403 4.12905 15.5615 4.20312 15.375 4.20312H13.125H13.0781V4.25V6.5V6.54688H13.125L16.9397 6.54688L16.9398 6.54687C17.1307 6.54626 17.3197 6.5836 17.496 6.6567C17.6723 6.7298 17.8323 6.83722 17.9667 6.9727L17.9669 6.97283L21.2772 10.2831L21.2909 10.2969H21.3103H22.5C22.8854 10.2969 23.255 10.45 23.5275 10.7225C23.8 10.995 23.9531 11.3646 23.9531 11.75V16.25C23.9531 16.6354 23.8 17.005 23.5275 17.2775C23.255 17.55 22.8854 17.7031 22.5 17.7031H21.3103ZM4.5 14.375H4.45312L4.93969 17.375C4.79979 17.2362 4.68888 17.071 4.6134 16.889C4.53792 16.707 4.49937 16.5117 4.5 16.3147V14.4219V14.375Z" fill="#3385FF" stroke="#3385FF" stroke-width="0.09375"/>
</svg>
