<svg width="24" height="25" viewBox="0 0 24 25" fill="none" xmlns="http://www.w3.org/2000/svg">
<g clip-path="url(#clip0_2026_11081)">
<path d="M19.0001 12C19.0001 12 17.0001 14.17 17.0001 15.5C17.0001 16.0304 17.2108 16.5391 17.5858 16.9142C17.9609 17.2893 18.4696 17.5 19.0001 17.5C19.5305 17.5 20.0392 17.2893 20.4143 16.9142C20.7893 16.5391 21.0001 16.0304 21.0001 15.5C21.0001 14.17 19.0001 12 19.0001 12ZM5.21006 10.5L10.0001 5.71L14.7901 10.5M16.5601 9.44L7.62006 0.5L6.21006 1.91L8.59006 4.29L3.44006 9.44C2.85006 10 2.85006 10.97 3.44006 11.56L8.94006 17.06C9.23006 17.35 9.62006 17.5 10.0001 17.5C10.3801 17.5 10.7701 17.35 11.0601 17.06L16.5601 11.56C17.1501 10.97 17.1501 10 16.5601 9.44Z" fill="#084F76"/>
</g>
<defs>
<clipPath id="clip0_2026_11081">
<rect width="24" height="24" fill="white" transform="translate(0 0.5)"/>
</clipPath>
</defs>
</svg>
