<svg width="40" height="41" viewBox="0 0 40 41" fill="none" xmlns="http://www.w3.org/2000/svg">
<path d="M4.94383 16.2812C4.73304 16.2831 4.5255 16.2292 4.34227 16.125C4.20788 16.0495 4.08991 15.9479 3.99525 15.8262C3.90059 15.7045 3.83116 15.5652 3.791 15.4163C3.75084 15.2675 3.74077 15.1121 3.76138 14.9594C3.78199 14.8066 3.83286 14.6594 3.91102 14.5266C5.41727 12.0125 10.0001 6.14453 20.0001 6.14453C24.3337 6.14453 28.1345 7.28281 31.2915 9.52656C33.8899 11.368 35.3462 13.4523 36.0399 14.4562C36.1279 14.5828 36.1897 14.7257 36.2216 14.8764C36.2536 15.0272 36.255 15.1829 36.2259 15.3342C36.1968 15.4856 36.1377 15.6295 36.0521 15.7577C35.9665 15.8859 35.8561 15.9956 35.7274 16.0805C35.4645 16.2543 35.1442 16.3189 34.8344 16.2605C34.5246 16.2022 34.2498 16.0255 34.068 15.768C32.8126 13.9625 28.9845 8.46875 20.0001 8.46875C11.2305 8.46875 7.26571 13.5242 5.9743 15.6922C5.87054 15.8732 5.72032 16.0233 5.53916 16.1268C5.358 16.2304 5.15248 16.2837 4.94383 16.2812Z" fill="#F4F4F4"/>
<path d="M25.038 39.2502C24.9383 39.2514 24.8388 39.2401 24.7419 39.2166C17.488 37.4197 14.7794 30.1682 14.6693 29.8666L14.6521 29.8002C14.5927 29.5908 13.1372 24.6182 15.3716 21.7057C16.3958 20.3775 17.9537 19.6963 20.0107 19.6963C21.9232 19.6963 23.3029 20.2908 24.2513 21.5213C25.0326 22.526 25.3451 23.765 25.6474 24.9588C26.2826 27.4447 26.7412 28.7502 29.381 28.8846C30.5404 28.9432 31.3021 28.265 31.7341 27.6877C32.9021 26.1135 33.1052 23.5471 32.2247 21.2814C31.0935 18.3572 27.0787 12.8439 19.9997 12.8439C16.9779 12.8439 14.2013 13.815 11.9747 15.64C10.1318 17.1518 8.67162 19.2861 7.9685 21.4799C6.66459 25.5643 8.37475 31.9846 8.39115 32.0432C8.43108 32.1926 8.44069 32.3485 8.41941 32.5017C8.39813 32.6549 8.34639 32.8023 8.26724 32.9352C8.18809 33.068 8.08314 33.1837 7.95857 33.2754C7.834 33.3671 7.69234 33.4329 7.54193 33.4689C7.23808 33.5497 6.91466 33.5083 6.64099 33.3535C6.36732 33.1987 6.16517 32.9429 6.07787 32.6408C5.99975 32.3479 4.17318 25.5002 5.67943 20.7799C7.32006 15.665 12.3833 10.5088 20.0021 10.5088C23.5232 10.5088 26.8497 11.7057 29.6263 13.9658C31.7763 15.7236 33.5326 18.0846 34.4513 20.4447C35.6193 23.458 35.306 26.84 33.6552 29.0494C32.5552 30.5229 30.9888 31.2932 29.2537 31.2096C24.7333 30.983 23.9208 27.8275 23.3287 25.526C22.7193 23.165 22.3294 22.0268 20.0021 22.0268C18.724 22.0268 17.8263 22.3783 17.2677 23.1064C16.506 24.1025 16.4466 25.6596 16.531 26.7893C16.5864 27.5763 16.7198 28.3559 16.9294 29.1166C17.1154 29.5854 19.5365 35.5229 25.3349 36.9596C25.4848 36.9951 25.6261 37.06 25.7507 37.1506C25.8752 37.2412 25.9805 37.3556 26.0605 37.4873C26.1404 37.6189 26.1935 37.7651 26.2164 37.9174C26.2394 38.0697 26.2319 38.225 26.1943 38.3744C26.1235 38.6266 25.9722 38.8486 25.7634 39.0068C25.5547 39.1649 25.2999 39.2504 25.038 39.2502Z" fill="#F4F4F4"/>
<path d="M15.7276 38.7139C15.565 38.7142 15.404 38.6818 15.2542 38.6186C15.1044 38.5554 14.9689 38.4626 14.8557 38.3459C11.9526 35.299 10.3104 31.892 9.6924 27.6318V27.6092C9.34553 24.7889 9.85334 20.7959 12.3416 18.0506C14.1783 16.0248 16.7604 14.9951 20.0026 14.9951C23.8369 14.9951 26.8502 16.7779 28.7291 20.1428C30.0924 22.5873 30.3627 25.0232 30.3697 25.1232C30.384 25.2774 30.3678 25.4329 30.3219 25.5808C30.276 25.7287 30.2014 25.8661 30.1023 25.9851C30.0033 26.1041 29.8817 26.2024 29.7446 26.2744C29.6075 26.3463 29.4576 26.3906 29.3033 26.4045C28.9922 26.4383 28.6802 26.3483 28.4348 26.154C28.1894 25.9598 28.0302 25.6768 27.9916 25.3662C27.7858 23.9046 27.3129 22.4934 26.5963 21.2029C25.1401 18.6334 22.9244 17.3271 19.994 17.3271C17.4627 17.3271 15.4822 18.0889 14.1197 19.5928C12.1557 21.7607 11.776 25.1006 12.0455 27.31C12.5869 31.0771 14.0346 34.074 16.5908 36.7521C16.6975 36.8631 16.7808 36.9944 16.8357 37.1383C16.8907 37.2821 16.9161 37.4355 16.9106 37.5893C16.905 37.7432 16.8686 37.8944 16.8035 38.0339C16.7384 38.1734 16.6459 38.2983 16.5315 38.4014C16.3112 38.6011 16.0249 38.7123 15.7276 38.7139Z" fill="#F4F4F4"/>
<path d="M29.102 35.3578C26.5629 35.3578 24.4043 34.6547 22.677 33.257C19.2066 30.4609 18.8176 25.907 18.8004 25.7148C18.7759 25.3994 18.8778 25.0871 19.0836 24.8468C19.2894 24.6064 19.5822 24.4577 19.8977 24.4332C20.2131 24.4088 20.5254 24.5106 20.7657 24.7164C21.0061 24.9222 21.1548 25.215 21.1793 25.5305C21.1879 25.5977 21.5348 29.3227 24.2098 31.468C25.7926 32.732 27.9082 33.2336 30.5152 32.9406C30.8268 32.9028 31.1407 32.9899 31.3882 33.1829C31.6358 33.3758 31.7969 33.6589 31.8363 33.9703C31.8534 34.1241 31.8396 34.2798 31.7959 34.4283C31.7522 34.5767 31.6793 34.715 31.5816 34.835C31.4838 34.955 31.3632 35.0543 31.2266 35.1272C31.0901 35.2 30.9404 35.245 30.7863 35.2594C30.2272 35.3246 29.6648 35.3575 29.102 35.3578ZM31.1082 4.31172C30.1176 3.66719 26.6051 1.75 20.0004 1.75C13.0676 1.75 9.54648 3.86797 8.76758 4.40625C8.71614 4.43783 8.66798 4.47447 8.62383 4.51563C8.61917 4.52013 8.6131 4.52289 8.60664 4.52344C8.48226 4.63204 8.38246 4.7659 8.31389 4.91611C8.24532 5.06631 8.20955 5.22941 8.20898 5.39453C8.21112 5.54931 8.24378 5.70215 8.30509 5.84428C8.3664 5.98642 8.45515 6.11506 8.56626 6.22284C8.67738 6.33061 8.80866 6.4154 8.9526 6.47234C9.09654 6.52929 9.2503 6.55727 9.40508 6.55469C9.65315 6.55452 9.89524 6.47846 10.0988 6.33672C10.1324 6.31172 13.1629 4.08516 20.0027 4.08516C26.8426 4.08516 29.8895 6.30391 29.9223 6.32031C30.1303 6.47456 30.3829 6.55683 30.6418 6.55469C30.7967 6.55706 30.9505 6.52882 31.0945 6.47159C31.2385 6.41436 31.3697 6.32926 31.4807 6.22117C31.5917 6.11309 31.6802 5.98415 31.7413 5.84175C31.8023 5.69936 31.8346 5.54632 31.8363 5.39141C31.8364 5.15937 31.7671 4.9326 31.6374 4.74022C31.5076 4.54784 31.3234 4.39862 31.1082 4.31172Z" fill="#F4F4F4"/>
</svg>
