<svg width="32" height="32" viewBox="0 0 32 32" fill="none" xmlns="http://www.w3.org/2000/svg">
<rect x="0.75" y="0.75" width="30.5" height="30.5" rx="3.25" stroke="#808080" stroke-width="1.5"/>
<path d="M7.375 23.1875H24.625V24.625H7.375V23.1875Z" fill="black" stroke="black" stroke-width="0.5"/>
<path d="M7.375 18.1562H24.625V19.5938H7.375V18.1562Z" fill="black" stroke="black" stroke-width="0.5"/>
<path d="M23.1875 8.8125V13.125H8.8125V8.8125H23.1875ZM23.1875 7.375H8.8125C8.43125 7.375 8.06562 7.52645 7.79603 7.79603C7.52645 8.06562 7.375 8.43125 7.375 8.8125V13.125C7.375 13.5062 7.52645 13.8719 7.79603 14.1415C8.06562 14.411 8.43125 14.5625 8.8125 14.5625H23.1875C23.5687 14.5625 23.9344 14.411 24.204 14.1415C24.4735 13.8719 24.625 13.5062 24.625 13.125V8.8125C24.625 8.43125 24.4735 8.06562 24.204 7.79603C23.9344 7.52645 23.5687 7.375 23.1875 7.375Z" fill="black" stroke="black" stroke-width="0.5"/>
</svg>
