<svg width="24" height="25" viewBox="0 0 24 25" fill="none" xmlns="http://www.w3.org/2000/svg">
<path d="M4.5 4.25C4.5 4.05109 4.57902 3.86032 4.71967 3.71967C4.86032 3.57902 5.05109 3.5 5.25 3.5H12.75C12.9489 3.5 13.1397 3.57902 13.2803 3.71967C13.421 3.86032 13.5 4.05109 13.5 4.25V11.75C13.5 11.9489 13.421 12.1397 13.2803 12.2803C13.1397 12.421 12.9489 12.5 12.75 12.5H5.25C5.05109 12.5 4.86032 12.421 4.71967 12.2803C4.57902 12.1397 4.5 11.9489 4.5 11.75V4.25Z" fill="#084F76"/>
<path d="M1.5 3.5C1.5 2.70435 1.81607 1.94129 2.37868 1.37868C2.94129 0.816071 3.70435 0.5 4.5 0.5L13.5 0.5C14.2956 0.5 15.0587 0.816071 15.6213 1.37868C16.1839 1.94129 16.5 2.70435 16.5 3.5V15.5C17.2956 15.5 18.0587 15.8161 18.6213 16.3787C19.1839 16.9413 19.5 17.7044 19.5 18.5V19.25C19.5 19.4489 19.579 19.6397 19.7197 19.7803C19.8603 19.921 20.0511 20 20.25 20C20.4489 20 20.6397 19.921 20.7803 19.7803C20.921 19.6397 21 19.4489 21 19.25V12.5H20.25C20.0511 12.5 19.8603 12.421 19.7197 12.2803C19.579 12.1397 19.5 11.9489 19.5 11.75V7.0625C19.5 6.86359 19.579 6.67282 19.7197 6.53217C19.8603 6.39152 20.0511 6.3125 20.25 6.3125H22.4925C22.476 5.5985 22.413 4.9715 22.191 4.4795C22.0722 4.19343 21.8651 3.95275 21.6 3.7925C21.324 3.6275 20.904 3.5 20.25 3.5C20.0511 3.5 19.8603 3.42098 19.7197 3.28033C19.579 3.13968 19.5 2.94891 19.5 2.75C19.5 2.55109 19.579 2.36032 19.7197 2.21967C19.8603 2.07902 20.0511 2 20.25 2C21.096 1.998 21.802 2.166 22.368 2.504C22.9425 2.846 23.319 3.3305 23.559 3.8645C24.0015 4.847 24 6.062 24 6.986V11.7485C24.0002 11.8471 23.9809 11.9448 23.9433 12.036C23.9057 12.1271 23.8505 12.21 23.7809 12.2798C23.7112 12.3496 23.6285 12.405 23.5374 12.4428C23.4463 12.4806 23.3486 12.5 23.25 12.5H22.5V19.25C22.5 19.8467 22.2629 20.419 21.841 20.841C21.419 21.2629 20.8467 21.5 20.25 21.5C19.6533 21.5 19.081 21.2629 18.659 20.841C18.2371 20.419 18 19.8467 18 19.25V18.5C18 18.1022 17.842 17.7206 17.5607 17.4393C17.2794 17.158 16.8978 17 16.5 17V23H17.25C17.4489 23 17.6397 23.079 17.7803 23.2197C17.921 23.3603 18 23.5511 18 23.75C18 23.9489 17.921 24.1397 17.7803 24.2803C17.6397 24.421 17.4489 24.5 17.25 24.5H0.75C0.551088 24.5 0.360322 24.421 0.21967 24.2803C0.0790176 24.1397 0 23.9489 0 23.75C0 23.5511 0.0790176 23.3603 0.21967 23.2197C0.360322 23.079 0.551088 23 0.75 23H1.5V3.5ZM15 3.5C15 3.10218 14.842 2.72064 14.5607 2.43934C14.2794 2.15804 13.8978 2 13.5 2H4.5C4.10218 2 3.72064 2.15804 3.43934 2.43934C3.15804 2.72064 3 3.10218 3 3.5V23H15V3.5Z" fill="#084F76"/>
</svg>
