<svg width="26" height="26" viewBox="0 0 26 26" fill="none" xmlns="http://www.w3.org/2000/svg">
<path d="M19.1753 13.018C19.1753 12.6028 19.1753 12.3952 19.2377 12.2104C19.4189 11.6728 19.8977 11.4652 20.3777 11.2468C20.9153 11.0008 21.1841 10.8784 21.4517 10.8568C21.7541 10.8328 22.0577 10.8976 22.3169 11.0428C22.6601 11.2348 22.9001 11.602 23.1449 11.8996C24.2765 13.2748 24.8429 13.9624 25.0493 14.7196C25.2173 15.3316 25.2173 15.9724 25.0493 16.5832C24.7481 17.6896 23.7941 18.616 23.0873 19.4752C22.7261 19.9132 22.5449 20.1328 22.3169 20.2612C22.0532 20.4074 21.7521 20.4721 21.4517 20.4472C21.1841 20.4256 20.9153 20.3032 20.3765 20.0572C19.8965 19.8388 19.4189 19.6312 19.2377 19.0936C19.1753 18.9088 19.1753 18.7012 19.1753 18.2872V13.018ZM7.17528 13.018C7.17528 12.4948 7.16088 12.0256 6.73848 11.6584C6.58488 11.5252 6.38088 11.4328 5.97408 11.2468C5.43528 11.002 5.16648 10.8784 4.89888 10.8568C4.09848 10.792 3.66768 11.3392 3.20688 11.9008C2.07408 13.2748 1.50768 13.9624 1.30008 14.7208C1.13305 15.3308 1.13305 15.9744 1.30008 16.5844C1.60248 17.6896 2.55768 18.6172 3.26328 19.4752C3.70848 20.0152 4.13448 20.5084 4.89888 20.4472C5.16648 20.4256 5.43528 20.3032 5.97408 20.0572C6.38208 19.8724 6.58488 19.7788 6.73848 19.6456C7.16088 19.2784 7.17528 18.8092 7.17528 18.2872V13.018Z" stroke="white" stroke-width="1.5" stroke-linecap="round" stroke-linejoin="round"/>
<path d="M22.7752 11.452V9.65195C22.7752 5.01275 18.4768 1.25195 13.1752 1.25195C7.8736 1.25195 3.5752 5.01275 3.5752 9.65195V11.452M22.7752 19.852C22.7752 25.252 17.9752 25.252 13.1752 25.252" stroke="white" stroke-width="1.5" stroke-linecap="round" stroke-linejoin="round"/>
</svg>
