<svg width="27" height="27" viewBox="0 0 27 27" fill="none" xmlns="http://www.w3.org/2000/svg">
<path d="M19.5005 13.266C19.5005 12.8508 19.5005 12.6432 19.5629 12.4584C19.7441 11.9208 20.2229 11.7132 20.7029 11.4948C21.2405 11.2488 21.5093 11.1264 21.7769 11.1048C22.0793 11.0808 22.3829 11.1456 22.6421 11.2908C22.9853 11.4828 23.2253 11.85 23.4701 12.1476C24.6017 13.5228 25.1681 14.2104 25.3745 14.9676C25.5425 15.5796 25.5425 16.2204 25.3745 16.8312C25.0733 17.9376 24.1193 18.864 23.4125 19.7232C23.0513 20.1612 22.8701 20.3808 22.6421 20.5092C22.3784 20.6555 22.0773 20.7202 21.7769 20.6952C21.5093 20.6736 21.2405 20.5512 20.7017 20.3052C20.2217 20.0868 19.7441 19.8792 19.5629 19.3416C19.5005 19.1568 19.5005 18.9492 19.5005 18.5352V13.266ZM7.50048 13.266C7.50048 12.7428 7.48608 12.2736 7.06368 11.9064C6.91008 11.7732 6.70608 11.6808 6.29928 11.4948C5.76048 11.25 5.49168 11.1264 5.22408 11.1048C4.42368 11.04 3.99288 11.5872 3.53208 12.1488C2.39928 13.5228 1.83288 14.2104 1.62528 14.9688C1.45824 15.5788 1.45824 16.2225 1.62528 16.8324C1.92768 17.9376 2.88288 18.8652 3.58848 19.7232C4.03368 20.2632 4.45968 20.7564 5.22408 20.6952C5.49168 20.6736 5.76048 20.5512 6.29928 20.3052C6.70728 20.1204 6.91008 20.0268 7.06368 19.8936C7.48608 19.5264 7.50048 19.0572 7.50048 18.5352V13.266Z" stroke="#0066CC" stroke-width="2" stroke-linecap="round" stroke-linejoin="round"/>
<path d="M23.1004 11.7V9.9C23.1004 5.2608 18.802 1.5 13.5004 1.5C8.19879 1.5 3.90039 5.2608 3.90039 9.9V11.7M23.1004 20.1C23.1004 25.5 18.3004 25.5 13.5004 25.5" stroke="#0066CC" stroke-width="2" stroke-linecap="round" stroke-linejoin="round"/>
</svg>
