<svg width="24" height="25" viewBox="0 0 24 25" fill="none" xmlns="http://www.w3.org/2000/svg">
<path d="M3 12.5C3 7.52944 7.02944 3.5 12 3.5C16.9706 3.5 21 7.52944 21 12.5C21 17.4706 16.9706 21.5 12 21.5C7.02944 21.5 3 17.4706 3 12.5Z" fill="#084F76"/>
<circle cx="12" cy="10.5" r="4" fill="#084F76"/>
<path fill-rule="evenodd" clip-rule="evenodd" d="M18.221 18.7462C18.2791 18.8426 18.2614 18.966 18.1796 19.0432C16.5675 20.5662 14.3928 21.5 12.0001 21.5C9.60734 21.5 7.4327 20.5663 5.82063 19.0433C5.73883 18.966 5.72107 18.8427 5.77924 18.7463C6.94343 16.818 9.29221 15.5 12.0001 15.5C14.708 15.5 17.0568 16.8179 18.221 18.7462Z" fill="#084F76"/>
</svg>
