<svg width="23" height="20" viewBox="0 0 23 20" fill="none" xmlns="http://www.w3.org/2000/svg">
<path d="M11.0835 18.2975L11.077 18.2941L11.0548 18.2825C11.036 18.2725 11.0091 18.2582 10.9748 18.2397C10.906 18.2026 10.8073 18.1484 10.6828 18.078C10.4339 17.9371 10.0814 17.7306 9.65986 17.4643C8.81858 16.9329 7.69267 16.1573 6.56237 15.1832C4.35327 13.2794 1.8999 10.4223 1.8999 6.99961C1.8999 4.01727 4.31756 1.59961 7.2999 1.59961C8.99719 1.59961 10.5104 2.38246 11.4999 3.6055C12.4894 2.38246 14.0026 1.59961 15.6999 1.59961C18.6822 1.59961 21.0999 4.01727 21.0999 6.99961C21.0999 10.4223 18.6465 13.2794 16.4374 15.1832C15.3071 16.1573 14.1812 16.9329 13.3399 17.4643C12.9184 17.7306 12.5659 17.9371 12.317 18.078C12.1925 18.1484 12.0938 18.2026 12.0251 18.2397C11.9907 18.2582 11.9638 18.2725 11.945 18.2825L11.9228 18.2941L11.9163 18.2975L11.9143 18.2985C11.6559 18.4356 11.3439 18.4356 11.0863 18.2989L11.0835 18.2975Z" stroke="#084F76" stroke-width="2"/>
</svg>
