<svg width="24" height="25" viewBox="0 0 24 25" fill="none" xmlns="http://www.w3.org/2000/svg">
<path d="M11.8486 3.1948C9.05334 3.15376 5.17037 3.21376 4.37093 5.36128L2.40677 9.97024C2.31966 9.87058 2.20541 9.79844 2.07797 9.76264L1.28717 9.54016C1.20022 9.5155 1.10925 9.50826 1.01949 9.51885C0.929727 9.52945 0.842941 9.55766 0.764113 9.60188C0.685285 9.6461 0.615966 9.70545 0.560135 9.77653C0.504305 9.84761 0.463062 9.92902 0.438775 10.0161L0.0262147 11.481C0.00159452 11.568 -0.0056175 11.6589 0.00499238 11.7487C0.0156023 11.8384 0.0438253 11.9251 0.0880422 12.0039C0.132259 12.0827 0.1916 12.152 0.26266 12.2079C0.33372 12.2637 0.415101 12.3049 0.502135 12.3292L1.29317 12.5519C1.31957 12.5591 1.34597 12.5615 1.37237 12.5658C1.22117 12.9426 1.12709 13.3569 1.12709 13.6034V18.9602C1.12709 19.2347 1.24229 19.3619 1.42517 19.4214V20.8485C1.42489 20.9752 1.44963 21.1007 1.49798 21.2178C1.54633 21.3348 1.61733 21.4412 1.70691 21.5308C1.79649 21.6204 1.90288 21.6914 2.01998 21.7398C2.13708 21.7881 2.26257 21.8128 2.38925 21.8126H4.97573C5.10242 21.8128 5.22791 21.7881 5.34501 21.7398C5.4621 21.6914 5.5685 21.6204 5.65808 21.5308C5.74766 21.4412 5.81866 21.3348 5.86701 21.2178C5.91536 21.1007 5.9401 20.9752 5.93982 20.8485V19.4738H18.0605V20.8485C18.0603 20.9752 18.0851 21.1006 18.1335 21.2177C18.1819 21.3348 18.2529 21.4412 18.3425 21.5308C18.4321 21.6203 18.5385 21.6913 18.6556 21.7397C18.7727 21.788 18.8982 21.8128 19.0249 21.8126H21.6109C21.7376 21.8128 21.8631 21.7881 21.9802 21.7398C22.0973 21.6914 22.2038 21.6204 22.2934 21.5308C22.383 21.4413 22.454 21.3349 22.5024 21.2178C22.5508 21.1007 22.5756 20.9752 22.5754 20.8485V19.4217C22.7585 19.3622 22.873 19.235 22.873 18.9604V13.6036C22.873 13.3571 22.7787 12.9429 22.6277 12.5661C22.6541 12.562 22.6805 12.5596 22.7069 12.5522L23.4982 12.3294C23.5852 12.3051 23.6666 12.2639 23.7376 12.208C23.8087 12.1522 23.868 12.0829 23.9122 12.0041C23.9564 11.9253 23.9846 11.8386 23.9951 11.7489C24.0057 11.6591 23.9985 11.5682 23.9739 11.4813L23.5618 10.0163C23.5375 9.92925 23.4962 9.84784 23.4404 9.77676C23.3845 9.70567 23.3152 9.64632 23.2363 9.6021C23.1575 9.55789 23.0707 9.52967 22.9809 9.51908C22.8911 9.50849 22.8001 9.51574 22.7132 9.5404L21.9224 9.76288C21.7949 9.79883 21.6807 9.87094 21.5933 9.97048L19.6292 5.36152C18.7724 3.18136 14.6437 3.23608 11.8484 3.19504M19.8541 10.2616C19.9006 10.3998 19.7614 10.492 19.6157 10.5004C19.6157 10.5004 19.1396 10.5407 18.4829 10.5938C17.9833 9.4264 16.8221 8.60368 15.4769 8.60368C14.0007 8.60368 12.7474 9.59488 12.3454 10.9446C12.2341 10.9461 12.1047 10.9509 12.0013 10.9509C9.45798 10.9509 4.38389 10.5004 4.38389 10.5004C4.23845 10.4918 4.09901 10.3996 4.14558 10.2616C6.09966 4.30456 6.15797 4.7524 11.8918 4.81504C17.6254 4.87744 17.6588 4.45192 19.8541 10.2616ZM15.4769 9.72952C15.8309 9.72829 16.1797 9.81521 16.4917 9.98243C16.8037 10.1496 17.0692 10.3919 17.2642 10.6874C16.1158 10.7726 14.7941 10.8597 13.5625 10.9103C13.7397 10.5545 14.0129 10.2554 14.3512 10.0467C14.6895 9.83808 15.0795 9.7282 15.4769 9.72952ZM2.25773 11.6625C2.27501 11.6882 2.29181 11.7138 2.31101 11.7386H2.23661L2.25773 11.6625ZM3.52829 13.1586C4.03133 13.1505 6.73181 14.0594 6.73181 14.0594C7.06902 14.1544 7.36589 14.7918 7.36421 15.1422C7.35917 16.3223 4.31405 15.9126 3.07781 15.9174C2.99474 15.9176 2.91246 15.9014 2.83567 15.8696C2.75889 15.8379 2.68912 15.7914 2.63037 15.7326C2.57162 15.6739 2.52504 15.6042 2.4933 15.5274C2.46156 15.4506 2.44529 15.3683 2.44541 15.2853V13.7913C2.44541 13.4409 3.02525 13.1673 3.52829 13.1586ZM20.4718 13.1586C20.9749 13.167 21.5547 13.4409 21.5547 13.7913V15.2853C21.5549 15.3684 21.5386 15.4507 21.5069 15.5275C21.4752 15.6043 21.4286 15.674 21.3698 15.7328C21.3111 15.7916 21.2413 15.8381 21.1645 15.8699C21.0877 15.9016 21.0054 15.9178 20.9223 15.9177C19.6863 15.9129 16.6409 16.3223 16.6359 15.1422C16.6342 14.7918 16.9311 14.1544 17.2683 14.0594C17.2683 14.0594 19.9688 13.1505 20.4718 13.1586Z" fill="#3385FF"/>
</svg>
