<svg width="24" height="19" viewBox="0 0 24 19" fill="none" xmlns="http://www.w3.org/2000/svg">
<path d="M11.8486 0.194797C9.05327 0.153757 5.17031 0.213757 4.37087 2.36128L2.40671 6.97024C2.3196 6.87058 2.20535 6.79844 2.07791 6.76264L1.28711 6.54016C1.20016 6.5155 1.10919 6.50826 1.01943 6.51885C0.929666 6.52945 0.84288 6.55766 0.764052 6.60188C0.685224 6.6461 0.615905 6.70545 0.560074 6.77653C0.504244 6.84761 0.463001 6.92902 0.438714 7.01608L0.0261537 8.48104C0.00153348 8.56798 -0.00567854 8.65892 0.00493135 8.74866C0.0155412 8.83839 0.0437642 8.92515 0.0879812 9.00395C0.132198 9.08275 0.191539 9.15204 0.262599 9.20786C0.333659 9.26367 0.41504 9.30491 0.502074 9.3292L1.29311 9.55192C1.31951 9.55912 1.34591 9.56152 1.37231 9.56584C1.22111 9.94264 1.12703 10.3569 1.12703 10.6034V15.9602C1.12703 16.2347 1.24223 16.3619 1.42511 16.4214V17.8485C1.42483 17.9752 1.44957 18.1007 1.49792 18.2178C1.54627 18.3348 1.61727 18.4412 1.70685 18.5308C1.79643 18.6204 1.90282 18.6914 2.01992 18.7398C2.13702 18.7881 2.26251 18.8128 2.38919 18.8126H4.97567C5.10236 18.8128 5.22785 18.7881 5.34495 18.7398C5.46204 18.6914 5.56844 18.6204 5.65802 18.5308C5.7476 18.4412 5.8186 18.3348 5.86695 18.2178C5.9153 18.1007 5.94004 17.9752 5.93975 17.8485V16.4738H18.0605V17.8485C18.0603 17.9752 18.085 18.1006 18.1334 18.2177C18.1818 18.3348 18.2528 18.4412 18.3424 18.5308C18.432 18.6203 18.5384 18.6913 18.6555 18.7397C18.7726 18.788 18.8981 18.8128 19.0248 18.8126H21.6108C21.7375 18.8128 21.863 18.7881 21.9801 18.7398C22.0973 18.6914 22.2037 18.6204 22.2933 18.5308C22.3829 18.4413 22.454 18.3349 22.5024 18.2178C22.5508 18.1007 22.5756 17.9752 22.5754 17.8485V16.4217C22.7585 16.3622 22.873 16.235 22.873 15.9604V10.6036C22.873 10.3571 22.7786 9.94288 22.6277 9.56608C22.6541 9.562 22.6805 9.5596 22.7069 9.55216L23.4982 9.32944C23.5852 9.30512 23.6665 9.26387 23.7376 9.20804C23.8086 9.15222 23.8679 9.08292 23.9121 9.00412C23.9563 8.92532 23.9845 8.83858 23.9951 8.74885C24.0057 8.65913 23.9985 8.5682 23.9738 8.48128L23.5618 7.01632C23.5374 6.92925 23.4962 6.84784 23.4403 6.77676C23.3845 6.70567 23.3151 6.64632 23.2363 6.6021C23.1574 6.55789 23.0706 6.52967 22.9809 6.51908C22.8911 6.50849 22.8001 6.51574 22.7131 6.5404L21.9223 6.76288C21.7949 6.79883 21.6806 6.87094 21.5933 6.97048L19.6291 2.36152C18.7723 0.181357 14.6436 0.236077 11.8483 0.195037M19.854 7.2616C19.9006 7.39984 19.7614 7.492 19.6157 7.5004C19.6157 7.5004 19.1395 7.54072 18.4829 7.59376C17.9832 6.4264 16.8221 5.60368 15.4769 5.60368C14.0006 5.60368 12.7474 6.59488 12.3454 7.94464C12.234 7.94608 12.1046 7.95088 12.0012 7.95088C9.45791 7.95088 4.38383 7.5004 4.38383 7.5004C4.23839 7.49176 4.09895 7.3996 4.14551 7.2616C6.09959 1.30456 6.15791 1.7524 11.8918 1.81504C17.6254 1.87744 17.6587 1.45192 19.854 7.2616ZM15.4769 6.72952C15.8309 6.72829 16.1796 6.81521 16.4916 6.98243C16.8037 7.14964 17.0691 7.3919 17.2642 7.68736C16.1158 7.77256 14.7941 7.85968 13.5624 7.91032C13.7396 7.55453 14.0128 7.2554 14.3511 7.04674C14.6895 6.83808 15.0794 6.7282 15.4769 6.72952ZM2.25767 8.66248C2.27495 8.68816 2.29175 8.71384 2.31095 8.73856H2.23655L2.25767 8.66248ZM3.52823 10.1586C4.03127 10.1505 6.73175 11.0594 6.73175 11.0594C7.06895 11.1544 7.36583 11.7918 7.36415 12.1422C7.35911 13.3223 4.31399 12.9126 3.07775 12.9174C2.99468 12.9176 2.9124 12.9014 2.83561 12.8696C2.75883 12.8379 2.68906 12.7914 2.63031 12.7326C2.57156 12.6739 2.52498 12.6042 2.49324 12.5274C2.4615 12.4506 2.44523 12.3683 2.44535 12.2853V10.7913C2.44535 10.4409 3.02519 10.1673 3.52823 10.1586ZM20.4718 10.1586C20.9748 10.167 21.5546 10.4409 21.5546 10.7913V12.2853C21.5548 12.3684 21.5385 12.4507 21.5068 12.5275C21.4751 12.6043 21.4285 12.674 21.3698 12.7328C21.311 12.7916 21.2412 12.8381 21.1644 12.8699C21.0876 12.9016 21.0053 12.9178 20.9222 12.9177C19.6862 12.9129 16.6409 13.3223 16.6358 12.1422C16.6342 11.7918 16.931 11.1544 17.2682 11.0594C17.2682 11.0594 19.9687 10.1505 20.4718 10.1586Z" fill="#084F76"/>
</svg>
