<svg width="25" height="20" viewBox="0 0 25 20" fill="none" xmlns="http://www.w3.org/2000/svg">
<path d="M12.1726 0.442599C9.37731 0.401559 5.49435 0.461559 4.69491 2.60908L2.73075 7.21804C2.64363 7.11838 2.52938 7.04625 2.40195 7.01044L1.61115 6.78796C1.52419 6.7633 1.43322 6.75606 1.34346 6.76666C1.2537 6.77725 1.16692 6.80546 1.08809 6.84968C1.00926 6.8939 0.939941 6.95326 0.88411 7.02433C0.82828 7.09541 0.787037 7.17682 0.762749 7.26388L0.350189 8.72884C0.325569 8.81578 0.318357 8.90672 0.328967 8.99646C0.339577 9.08619 0.3678 9.17295 0.412017 9.25175C0.456234 9.33055 0.515574 9.39985 0.586635 9.45566C0.657695 9.51148 0.739076 9.55271 0.826109 9.577L1.61715 9.79972C1.64355 9.80692 1.66995 9.80932 1.69635 9.81364C1.54515 10.1904 1.45107 10.6047 1.45107 10.8512V16.208C1.45107 16.4825 1.56627 16.6097 1.74915 16.6692V18.0963C1.74886 18.223 1.77361 18.3485 1.82196 18.4656C1.8703 18.5826 1.94131 18.689 2.03089 18.7786C2.12047 18.8682 2.22686 18.9392 2.34396 18.9876C2.46105 19.0359 2.58654 19.0606 2.71323 19.0604H5.29971C5.42639 19.0606 5.55189 19.0359 5.66898 18.9876C5.78608 18.9392 5.89247 18.8682 5.98205 18.7786C6.07163 18.689 6.14263 18.5826 6.19098 18.4656C6.23933 18.3485 6.26407 18.223 6.26379 18.0963V16.7216H18.3845V18.0963C18.3843 18.223 18.4091 18.3485 18.4575 18.4655C18.5059 18.5826 18.5769 18.689 18.6665 18.7786C18.7561 18.8681 18.8625 18.9391 18.9796 18.9875C19.0967 19.0359 19.2221 19.0606 19.3488 19.0604H21.9348C22.0615 19.0606 22.1871 19.0359 22.3042 18.9876C22.4213 18.9392 22.5277 18.8682 22.6173 18.7787C22.707 18.6891 22.778 18.5827 22.8264 18.4656C22.8748 18.3485 22.8996 18.223 22.8994 18.0963V16.6695C23.0825 16.61 23.197 16.4828 23.197 16.2082V10.8514C23.197 10.6049 23.1027 10.1907 22.9517 9.81388C22.9781 9.8098 23.0045 9.8074 23.0309 9.79996L23.8222 9.57724C23.9092 9.55293 23.9906 9.51167 24.0616 9.45585C24.1326 9.40002 24.1919 9.33072 24.2361 9.25192C24.2803 9.17313 24.3085 9.08638 24.3191 8.99666C24.3297 8.90693 24.3225 8.816 24.2979 8.72908L23.8858 7.26412C23.8615 7.17705 23.8202 7.09564 23.7644 7.02456C23.7085 6.95348 23.6392 6.89412 23.5603 6.84991C23.4815 6.80569 23.3947 6.77748 23.3049 6.76689C23.2151 6.7563 23.1241 6.76354 23.0372 6.7882L22.2464 7.01068C22.1189 7.04663 22.0046 7.11874 21.9173 7.21828L19.9532 2.60932C19.0964 0.42916 14.9676 0.483879 12.1723 0.442839M20.178 7.5094C20.2246 7.64764 20.0854 7.7398 19.9397 7.7482C19.9397 7.7482 19.4636 7.78852 18.8069 7.84156C18.3072 6.6742 17.1461 5.85148 15.8009 5.85148C14.3247 5.85148 13.0714 6.84268 12.6694 8.19244C12.558 8.19388 12.4287 8.19868 12.3252 8.19868C9.78195 8.19868 4.70787 7.7482 4.70787 7.7482C4.56243 7.73956 4.42299 7.6474 4.46955 7.5094C6.42363 1.55236 6.48195 2.0002 12.2158 2.06284C17.9494 2.12524 17.9827 1.69972 20.178 7.5094ZM15.8009 6.97732C16.1549 6.97609 16.5037 7.06301 16.8157 7.23023C17.1277 7.39745 17.3932 7.63971 17.5882 7.93516C16.4398 8.02036 15.1181 8.10748 13.8864 8.15812C14.0637 7.80233 14.3369 7.5032 14.6752 7.29454C15.0135 7.08588 15.4034 6.976 15.8009 6.97732ZM2.58171 8.91028C2.59899 8.93596 2.61579 8.96164 2.63499 8.98636H2.56059L2.58171 8.91028ZM3.85227 10.4064C4.35531 10.3983 7.05579 11.3072 7.05579 11.3072C7.39299 11.4022 7.68987 12.0396 7.68819 12.39C7.68315 13.5701 4.63803 13.1604 3.40179 13.1652C3.31872 13.1654 3.23643 13.1492 3.15965 13.1174C3.08287 13.0857 3.0131 13.0392 2.95435 12.9805C2.8956 12.9217 2.84901 12.852 2.81727 12.7752C2.78554 12.6984 2.76926 12.6162 2.76939 12.5331V11.0391C2.76939 10.6887 3.34923 10.4151 3.85227 10.4064ZM20.7958 10.4064C21.2988 10.4148 21.8787 10.6887 21.8787 11.0391V12.5331C21.8788 12.6162 21.8626 12.6985 21.8309 12.7753C21.7991 12.8521 21.7526 12.9219 21.6938 12.9806C21.635 13.0394 21.5653 13.0859 21.4885 13.1177C21.4117 13.1494 21.3294 13.1656 21.2463 13.1655C20.0103 13.1607 16.9649 13.5701 16.9599 12.39C16.9582 12.0396 17.2551 11.4022 17.5923 11.3072C17.5923 11.3072 20.2928 10.3983 20.7958 10.4064Z" fill="#0066CC"/>
</svg>
