<svg width="21" height="25" viewBox="0 0 21 25" fill="none" xmlns="http://www.w3.org/2000/svg">
<path d="M9.25931 13.9376L6.86839 11.5467C6.6868 11.3651 6.46484 11.2743 6.20257 11.2743C5.94029 11.2743 5.71833 11.3651 5.53674 11.5467C5.35515 11.7283 5.26436 11.9485 5.26436 12.2073C5.26436 12.4664 5.35515 12.6901 5.53674 12.8783L8.53296 15.9048C8.71454 16.0864 8.9264 16.1772 9.16852 16.1772C9.41064 16.1772 9.62249 16.0864 9.80408 15.9048L15.4333 10.2755C15.6149 10.0926 15.7057 9.87532 15.7057 9.62394C15.7057 9.37232 15.6199 9.16585 15.4485 9.00442C15.277 8.84299 15.06 8.76732 14.7978 8.77743C14.5355 8.78754 14.3236 8.87325 14.1622 9.03468L9.25931 13.9376ZM10.5002 24.5C10.3929 24.5 10.2932 24.4899 10.2012 24.4697C10.1091 24.4496 10.0171 24.4193 9.92514 24.3789C7.12062 23.4306 4.90118 21.7308 3.26688 19.2793C1.63258 16.8279 0.81543 14.1382 0.81543 11.2104V5.28185C0.81543 4.89325 0.925188 4.54357 1.14471 4.23287C1.36403 3.92195 1.64771 3.69657 1.99576 3.55675L9.86461 0.621059C10.0866 0.540355 10.2984 0.5 10.5002 0.5C10.7019 0.5 10.9138 0.540355 11.1357 0.621059L19.0046 3.55675C19.3526 3.69657 19.6364 3.92195 19.8559 4.23287C20.0752 4.54357 20.1849 4.89325 20.1849 5.28185V11.2104C20.1849 14.1382 19.3678 16.8279 17.7335 19.2793C16.0992 21.7308 13.8797 23.4306 11.0752 24.3789C10.9832 24.4193 10.8912 24.4496 10.7992 24.4697C10.7072 24.4899 10.6075 24.5 10.5002 24.5ZM10.5002 22.7144C12.8205 21.9476 14.712 20.5 16.1748 18.3714C17.6376 16.2427 18.369 13.8569 18.369 11.2137V5.28185L10.5002 2.31589L2.63132 5.28185V11.2137C2.63132 13.8569 3.3627 16.2427 4.82552 18.3714C6.28834 20.5 8.17989 21.9476 10.5002 22.7144Z" fill="#0066CC"/>
</svg>
