<svg width="23" height="20" viewBox="0 0 23 20" fill="none" xmlns="http://www.w3.org/2000/svg">
<path d="M21.6758 5.24805V3.24805C21.6758 2.71761 21.4651 2.20891 21.09 1.83383C20.7149 1.45876 20.2062 1.24805 19.6758 1.24805H3.67578C3.14535 1.24805 2.63664 1.45876 2.26157 1.83383C1.88649 2.20891 1.67578 2.71761 1.67578 3.24805V13.248C1.67578 13.7785 1.88649 14.2872 2.26157 14.6623C2.63664 15.0373 3.14535 15.248 3.67578 15.248H11.6758M21.6758 5.24805H5.67578M21.6758 5.24805V7.24805" stroke="#0066CC" stroke-width="2" stroke-linecap="round" stroke-linejoin="round"/>
<path d="M18.6687 10.373L21.2247 11.022C21.4907 11.09 21.6777 11.332 21.6697 11.606C21.4977 17.364 18.1767 18.248 18.1767 18.248C18.1767 18.248 14.8557 17.364 14.6837 11.606C14.681 11.4727 14.7235 11.3424 14.8043 11.2364C14.8851 11.1303 14.9995 11.0548 15.1287 11.022L17.6847 10.373C18.0077 10.291 18.3457 10.291 18.6687 10.373Z" stroke="#0066CC" stroke-width="2" stroke-linecap="round" stroke-linejoin="round"/>
</svg>
