<svg width="15" height="24" viewBox="0 0 15 24" fill="none" xmlns="http://www.w3.org/2000/svg">
<path d="M11.016 12.8243C11.165 12.4984 11.5781 12.1965 11.9343 12.1561C12.2906 12.1157 12.6152 11.7898 12.6556 11.4335C12.6986 11.0798 12.9992 10.6655 13.3239 10.5152C13.4874 10.4319 13.6205 10.2992 13.7042 10.1359C13.7879 9.97259 13.8179 9.78703 13.79 9.60566C13.7167 9.25449 13.8759 8.76815 14.1386 8.52687C14.2689 8.39685 14.3547 8.22887 14.3835 8.04706C14.4123 7.86526 14.3828 7.67899 14.2991 7.51504C14.2124 7.33874 14.1674 7.14492 14.1674 6.94849C14.1674 6.75205 14.2124 6.55824 14.2991 6.38194C14.383 6.21803 14.4126 6.03172 14.3838 5.84987C14.355 5.66801 14.2691 5.50002 14.1386 5.3701C13.8759 5.1263 13.718 4.64123 13.79 4.29131C13.8183 4.10957 13.7885 3.92352 13.7048 3.75974C13.6211 3.59595 13.4877 3.4628 13.3239 3.37927C13.1503 3.28667 13 3.15592 12.8842 2.99686C12.7685 2.83779 12.6903 2.65455 12.6556 2.46092C12.6268 2.27986 12.5416 2.11252 12.412 1.98277C12.2825 1.85301 12.1153 1.76748 11.9343 1.73836C11.7406 1.70431 11.5572 1.62655 11.3981 1.51097C11.239 1.3954 11.1083 1.24505 11.016 1.07138C10.9326 0.907548 10.7994 0.77446 10.6354 0.691351C10.4715 0.608242 10.2853 0.579417 10.1039 0.609042C9.90925 0.636328 9.71091 0.618884 9.52398 0.558034C9.33705 0.497184 9.16645 0.394529 9.02514 0.257868C8.78134 -0.00740732 8.32658 -0.0781473 8.01457 0.0974396C7.70255 0.273027 7.19095 0.273027 6.8802 0.0974396C6.71674 0.0124474 6.5304 -0.018073 6.34837 0.0103337C6.16634 0.0387404 5.99815 0.124587 5.86837 0.255342C5.72716 0.39216 5.55657 0.494918 5.36961 0.555779C5.18266 0.616639 4.98427 0.633992 4.78958 0.606515C4.60841 0.577367 4.42266 0.60657 4.25917 0.689903C4.09569 0.773237 3.96292 0.906386 3.88006 1.07012C3.72974 1.3935 3.31667 1.69541 2.96044 1.73583C2.7791 1.76496 2.6116 1.85064 2.48184 1.98062C2.35208 2.11061 2.2667 2.27826 2.23788 2.45965C2.20362 2.65328 2.12561 2.83654 2.00981 2.99547C1.89401 3.1544 1.74346 3.2848 1.56964 3.37675C1.40633 3.46069 1.27371 3.59407 1.19068 3.75785C1.10766 3.92163 1.07848 4.10744 1.10731 4.28879C1.17678 4.6387 1.01888 5.12504 0.756134 5.36757C0.493385 5.61011 0.420118 6.06487 0.595705 6.37941C0.771292 6.69016 0.771292 7.20176 0.595705 7.51251C0.511908 7.67665 0.482294 7.86313 0.511118 8.04516C0.539943 8.22719 0.625722 8.39539 0.756134 8.52561C1.02015 8.76562 1.17678 9.25196 1.10731 9.6044C1.07845 9.7854 1.10765 9.97089 1.1907 10.1343C1.27376 10.2977 1.40641 10.4306 1.56964 10.5139C1.89555 10.6642 2.19494 11.0786 2.23662 11.4323C2.27957 11.7885 2.60295 12.1144 2.95918 12.1548C3.31541 12.1953 3.72848 12.4984 3.8788 12.8231C3.96231 12.9862 4.09523 13.1187 4.25857 13.2017C4.42192 13.2848 4.60733 13.3141 4.78832 13.2854C5.13949 13.2159 5.62583 13.3726 5.8671 13.6366C5.99723 13.7667 6.1652 13.8523 6.34696 13.8811C6.52872 13.91 6.71494 13.8805 6.87894 13.797C7.18969 13.6214 7.70129 13.6214 8.01331 13.797C8.32532 13.9726 8.78008 13.8993 9.02388 13.6366C9.26768 13.3713 9.75149 13.2159 10.1027 13.2854C10.2841 13.3146 10.4701 13.2858 10.6341 13.203C10.7981 13.1202 10.9318 12.9876 11.016 12.8243ZM7.44738 11.2403C6.3083 11.2403 5.21587 10.7878 4.41041 9.9823C3.60495 9.17685 3.15245 8.08442 3.15245 6.94533C3.15245 5.80624 3.60495 4.71381 4.41041 3.90835C5.21587 3.1029 6.3083 2.6504 7.44738 2.6504C8.58647 2.6504 9.6789 3.1029 10.4844 3.90835C11.2898 4.71381 11.7423 5.80624 11.7423 6.94533C11.7423 8.08442 11.2898 9.17685 10.4844 9.9823C9.6789 10.7878 8.58647 11.2403 7.44738 11.2403ZM2.36294 13.7793L0.792767 22.6837L4.7441 22.0976L8.25711 24L9.82097 15.131C8.55824 15.5002 7.22689 15.5703 5.93238 15.3356C4.63787 15.101 3.41578 14.5682 2.36294 13.7793ZM12.451 13.84C12.0565 14.1267 11.6381 14.379 11.2004 14.5941L10.2555 19.9451L14.5113 17.6359L12.451 13.84Z" fill="#0066CC"/>
</svg>
