<svg width="14" height="14" viewBox="0 0 14 14" fill="none" xmlns="http://www.w3.org/2000/svg">
<path d="M1.75 2V12.5H12.25V2H1.75ZM1.75 0.5H12.25C12.6478 0.5 13.0294 0.658035 13.3107 0.93934C13.592 1.22064 13.75 1.60218 13.75 2V12.5C13.75 12.8978 13.592 13.2794 13.3107 13.5607C13.0294 13.842 12.6478 14 12.25 14H1.75C1.35218 14 0.970644 13.842 0.68934 13.5607C0.408035 13.2794 0.25 12.8978 0.25 12.5V2C0.25 1.60218 0.408035 1.22064 0.68934 0.93934C0.970644 0.658035 1.35218 0.5 1.75 0.5ZM4.375 5.75C4.67337 5.75 4.95952 5.63147 5.1705 5.4205C5.38147 5.20952 5.5 4.92337 5.5 4.625C5.5 4.32663 5.38147 4.04048 5.1705 3.8295C4.95952 3.61853 4.67337 3.5 4.375 3.5C4.07663 3.5 3.79048 3.61853 3.5795 3.8295C3.36853 4.04048 3.25 4.32663 3.25 4.625C3.25 4.92337 3.36853 5.20952 3.5795 5.4205C3.79048 5.63147 4.07663 5.75 4.375 5.75ZM3.25 8.75L4.75 7.25L6.25 8.75L8.5 6.5L10.75 8.75V11H3.25V8.75Z" fill="white"/>
</svg>
