<svg width="22" height="20" viewBox="0 0 22 20" fill="none" xmlns="http://www.w3.org/2000/svg">
<path d="M10.5836 18.2975L10.5771 18.2941L10.555 18.2825C10.5361 18.2725 10.5092 18.2582 10.4749 18.2397C10.4062 18.2026 10.3074 18.1484 10.1829 18.078C9.934 17.9371 9.58155 17.7306 9.15998 17.4643C8.3187 16.9329 7.19279 16.1573 6.06249 15.1832C3.85339 13.2794 1.40002 10.4223 1.40002 6.99961C1.40002 4.01727 3.81769 1.59961 6.80002 1.59961C8.49731 1.59961 10.0105 2.38246 11 3.6055C11.9895 2.38246 13.5027 1.59961 15.2 1.59961C18.1824 1.59961 20.6 4.01727 20.6 6.99961C20.6 10.4223 18.1467 13.2794 15.9376 15.1832C14.8073 16.1573 13.6813 16.9329 12.8401 17.4643C12.4185 17.7306 12.0661 17.9371 11.8172 18.078C11.6927 18.1484 11.5939 18.2026 11.5252 18.2397C11.4908 18.2582 11.4639 18.2725 11.4451 18.2825L11.4229 18.2941L11.4164 18.2975L11.4144 18.2985C11.156 18.4356 10.844 18.4356 10.5864 18.2989L10.5836 18.2975Z" stroke="#1A1A1A" stroke-width="2"/>
</svg>
