<svg width="14" height="11" viewBox="0 0 14 11" fill="none" xmlns="http://www.w3.org/2000/svg">
<path d="M1.83499 10.8327C1.37277 10.8327 0.979214 10.6705 0.654325 10.346C0.329437 10.0225 0.166992 9.62913 0.166992 9.16602C0.166992 8.7669 0.294103 8.41446 0.548326 8.10868C0.802548 7.8029 1.11988 7.61313 1.50033 7.53935V3.45935C1.11988 3.38602 0.802548 3.19646 0.548326 2.89068C0.294103 2.58446 0.166992 2.23179 0.166992 1.83268C0.166992 1.36957 0.328992 0.976238 0.652992 0.652682C0.976548 0.328238 1.36966 0.166016 1.83233 0.166016C2.29499 0.166016 2.68855 0.328238 3.01299 0.652682C3.33744 0.977127 3.49988 1.37046 3.50033 1.83268C3.50033 2.23179 3.37321 2.58446 3.11899 2.89068C2.86477 3.19646 2.54744 3.38624 2.16699 3.46002V5.16602H6.66699V3.45935C6.28655 3.38602 5.96921 3.19646 5.71499 2.89068C5.46077 2.58446 5.33366 2.23179 5.33366 1.83268C5.33366 1.36957 5.49566 0.976238 5.81966 0.652682C6.14321 0.328238 6.53633 0.166016 6.99899 0.166016C7.46166 0.166016 7.85521 0.328238 8.17966 0.652682C8.5041 0.977127 8.66655 1.37046 8.66699 1.83268C8.66699 2.23179 8.53988 2.58446 8.28566 2.89068C8.03144 3.19646 7.7141 3.38624 7.33366 3.46002V5.16602H10.847C11.1212 5.16602 11.3563 5.06802 11.5523 4.87202C11.7483 4.67557 11.8463 4.44024 11.8463 4.16602V3.45935C11.4663 3.38602 11.149 3.19646 10.8943 2.89068C10.6401 2.58446 10.513 2.23179 10.513 1.83268C10.513 1.36957 10.675 0.976238 10.999 0.652682C11.3225 0.328238 11.7157 0.166016 12.1783 0.166016C12.641 0.166016 13.0348 0.328238 13.3597 0.652682C13.6845 0.977127 13.8468 1.37046 13.8463 1.83268C13.8463 2.23179 13.7192 2.58446 13.465 2.89068C13.2108 3.19646 12.8934 3.38624 12.513 3.46002V4.16602C12.513 4.62913 12.351 5.02246 12.027 5.34602C11.703 5.67046 11.3097 5.83268 10.847 5.83268H7.33366V7.53935C7.7141 7.61268 8.03144 7.80224 8.28566 8.10802C8.53988 8.41424 8.66699 8.7669 8.66699 9.16602C8.66699 9.62913 8.50521 10.0225 8.18166 10.346C7.85766 10.6705 7.46432 10.8327 7.00166 10.8327C6.53899 10.8327 6.14544 10.6705 5.82099 10.346C5.49655 10.0216 5.3341 9.62824 5.33366 9.16602C5.33366 8.7669 5.46077 8.41446 5.71499 8.10868C5.96921 7.8029 6.28655 7.61313 6.66699 7.53935V5.83268H2.16699V7.53935C2.54744 7.61268 2.86477 7.80224 3.11899 8.10802C3.37321 8.41424 3.50033 8.7669 3.50033 9.16602C3.50033 9.62913 3.33855 10.0225 3.01499 10.346C2.69099 10.6705 2.29766 10.8327 1.83499 10.8327Z" fill="#084F76"/>
</svg>
