<svg width="24" height="25" viewBox="0 0 24 25" fill="none" xmlns="http://www.w3.org/2000/svg">
<path d="M4.252 20.5C3.55867 20.5 2.96833 20.2567 2.481 19.77C1.99367 19.2847 1.75 18.6947 1.75 18C1.75 17.4013 1.94067 16.8727 2.322 16.414C2.70333 15.9553 3.17933 15.6707 3.75 15.56V9.44C3.17933 9.33 2.70333 9.04567 2.322 8.587C1.94067 8.12767 1.75 7.59867 1.75 7C1.75 6.30533 1.993 5.71533 2.479 5.23C2.96433 4.74333 3.554 4.5 4.248 4.5C4.942 4.5 5.53233 4.74333 6.019 5.23C6.50567 5.71667 6.74933 6.30667 6.75 7C6.75 7.59867 6.55933 8.12767 6.178 8.587C5.79667 9.04567 5.32067 9.33033 4.75 9.441V12H11.5V9.44C10.9293 9.33 10.4533 9.04567 10.072 8.587C9.69067 8.12767 9.5 7.59867 9.5 7C9.5 6.30533 9.743 5.71533 10.229 5.23C10.7143 4.74333 11.304 4.5 11.998 4.5C12.692 4.5 13.2823 4.74333 13.769 5.23C14.2557 5.71667 14.4993 6.30667 14.5 7C14.5 7.59867 14.3093 8.12767 13.928 8.587C13.5467 9.04567 13.0707 9.33033 12.5 9.441V12H17.77C18.1813 12 18.534 11.853 18.828 11.559C19.122 11.2643 19.269 10.9113 19.269 10.5V9.44C18.699 9.33 18.223 9.04567 17.841 8.587C17.4597 8.12767 17.269 7.59867 17.269 7C17.269 6.30533 17.512 5.71533 17.998 5.23C18.4833 4.74333 19.073 4.5 19.767 4.5C20.461 4.5 21.0517 4.74333 21.539 5.23C22.0263 5.71667 22.2697 6.30667 22.269 7C22.269 7.59867 22.0783 8.12767 21.697 8.587C21.3157 9.04567 20.8397 9.33033 20.269 9.441V10.5C20.269 11.1947 20.026 11.7847 19.54 12.27C19.054 12.7567 18.464 13 17.77 13H12.5V15.56C13.0707 15.67 13.5467 15.9543 13.928 16.413C14.3093 16.8723 14.5 17.4013 14.5 18C14.5 18.6947 14.2573 19.2847 13.772 19.77C13.286 20.2567 12.696 20.5 12.002 20.5C11.308 20.5 10.7177 20.2567 10.231 19.77C9.74433 19.2833 9.50067 18.6933 9.5 18C9.5 17.4013 9.69067 16.8727 10.072 16.414C10.4533 15.9553 10.9293 15.6707 11.5 15.56V13H4.75V15.56C5.32067 15.67 5.79667 15.9543 6.178 16.413C6.55933 16.8723 6.75 17.4013 6.75 18C6.75 18.6947 6.50733 19.2847 6.022 19.77C5.536 20.2567 4.946 20.5 4.252 20.5Z" fill="#3385FF"/>
</svg>
