<svg width="22" height="17" viewBox="0 0 22 17" fill="none" xmlns="http://www.w3.org/2000/svg">
<path d="M3.252 16.5C2.55867 16.5 1.96833 16.2567 1.481 15.77C0.993667 15.2847 0.75 14.6947 0.75 14C0.75 13.4013 0.940667 12.8727 1.322 12.414C1.70333 11.9553 2.17933 11.6707 2.75 11.56V5.44C2.17933 5.33 1.70333 5.04567 1.322 4.587C0.940667 4.12767 0.75 3.59867 0.75 3C0.75 2.30533 0.993 1.71533 1.479 1.23C1.96433 0.743333 2.554 0.5 3.248 0.5C3.942 0.5 4.53233 0.743333 5.019 1.23C5.50567 1.71667 5.74933 2.30667 5.75 3C5.75 3.59867 5.55933 4.12767 5.178 4.587C4.79667 5.04567 4.32067 5.33033 3.75 5.441V8H10.5V5.44C9.92933 5.33 9.45333 5.04567 9.072 4.587C8.69067 4.12767 8.5 3.59867 8.5 3C8.5 2.30533 8.743 1.71533 9.229 1.23C9.71433 0.743333 10.304 0.5 10.998 0.5C11.692 0.5 12.2823 0.743333 12.769 1.23C13.2557 1.71667 13.4993 2.30667 13.5 3C13.5 3.59867 13.3093 4.12767 12.928 4.587C12.5467 5.04567 12.0707 5.33033 11.5 5.441V8H16.77C17.1813 8 17.534 7.853 17.828 7.559C18.122 7.26433 18.269 6.91133 18.269 6.5V5.44C17.699 5.33 17.223 5.04567 16.841 4.587C16.4597 4.12767 16.269 3.59867 16.269 3C16.269 2.30533 16.512 1.71533 16.998 1.23C17.4833 0.743333 18.073 0.5 18.767 0.5C19.461 0.5 20.0517 0.743333 20.539 1.23C21.0263 1.71667 21.2697 2.30667 21.269 3C21.269 3.59867 21.0783 4.12767 20.697 4.587C20.3157 5.04567 19.8397 5.33033 19.269 5.441V6.5C19.269 7.19467 19.026 7.78467 18.54 8.27C18.054 8.75667 17.464 9 16.77 9H11.5V11.56C12.0707 11.67 12.5467 11.9543 12.928 12.413C13.3093 12.8723 13.5 13.4013 13.5 14C13.5 14.6947 13.2573 15.2847 12.772 15.77C12.286 16.2567 11.696 16.5 11.002 16.5C10.308 16.5 9.71767 16.2567 9.231 15.77C8.74433 15.2833 8.50067 14.6933 8.5 14C8.5 13.4013 8.69067 12.8727 9.072 12.414C9.45333 11.9553 9.92933 11.6707 10.5 11.56V9H3.75V11.56C4.32067 11.67 4.79667 11.9543 5.178 12.413C5.55933 12.8723 5.75 13.4013 5.75 14C5.75 14.6947 5.50733 15.2847 5.022 15.77C4.536 16.2567 3.946 16.5 3.252 16.5Z" fill="#0066CC"/>
</svg>


