<svg width="24" height="25" viewBox="0 0 24 25" fill="none" xmlns="http://www.w3.org/2000/svg">
<mask id="path-1-inside-1_2026_4384" fill="white">
<path d="M5.90789 21.7463H18.102C20.2016 21.7463 21.246 20.7019 21.246 18.6328V6.36748C21.246 4.29833 20.2016 3.25391 18.102 3.25391H5.90789C3.8186 3.25391 2.7536 4.28848 2.7536 6.36748V18.6332C2.7536 20.7122 3.8186 21.7463 5.90789 21.7463ZM9.29274 17.6385C8.86117 17.6385 8.53974 17.2669 8.63017 16.8452L9.05189 14.7559H8.10774C7.75632 14.7559 7.51503 14.4945 7.51503 14.1431C7.51503 13.7316 7.80646 13.4299 8.21789 13.4299H9.34332L9.78517 11.2905H8.86117C8.50974 11.2905 8.2586 11.029 8.2586 10.6678C8.2586 10.2658 8.55989 9.95462 8.96146 9.95462H10.0663L10.5283 7.79462C10.5986 7.39305 10.86 7.19205 11.2817 7.19205C11.7236 7.19205 12.0249 7.56362 11.9349 7.98576L11.5329 9.95462H13.4915L13.9436 7.79462C14.0242 7.39305 14.295 7.19205 14.7069 7.19205C15.1389 7.19205 15.4603 7.55376 15.3699 7.98576L14.9683 9.95462H15.9026C16.2437 9.95462 16.4949 10.2156 16.4949 10.5773C16.4949 10.9888 16.2035 11.2905 15.792 11.2905H14.6872L14.235 13.4299H15.1492C15.5006 13.4299 15.7517 13.6913 15.7517 14.0428C15.7517 14.4542 15.4505 14.7559 15.0489 14.7559H13.9539L13.4717 17.0261C13.3912 17.4276 13.1203 17.6389 12.6982 17.6389C12.2662 17.6389 11.9649 17.2669 12.0553 16.8452L12.477 14.7658H10.5185L10.0457 17.0261C9.9656 17.4276 9.70417 17.6389 9.29232 17.6389M10.7087 13.5508H12.828L13.3205 11.1902H11.2012L10.7087 13.5508Z"/>
</mask>
<path d="M5.90789 21.7463H18.102C20.2016 21.7463 21.246 20.7019 21.246 18.6328V6.36748C21.246 4.29833 20.2016 3.25391 18.102 3.25391H5.90789C3.8186 3.25391 2.7536 4.28848 2.7536 6.36748V18.6332C2.7536 20.7122 3.8186 21.7463 5.90789 21.7463ZM9.29274 17.6385C8.86117 17.6385 8.53974 17.2669 8.63017 16.8452L9.05189 14.7559H8.10774C7.75632 14.7559 7.51503 14.4945 7.51503 14.1431C7.51503 13.7316 7.80646 13.4299 8.21789 13.4299H9.34332L9.78517 11.2905H8.86117C8.50974 11.2905 8.2586 11.029 8.2586 10.6678C8.2586 10.2658 8.55989 9.95462 8.96146 9.95462H10.0663L10.5283 7.79462C10.5986 7.39305 10.86 7.19205 11.2817 7.19205C11.7236 7.19205 12.0249 7.56362 11.9349 7.98576L11.5329 9.95462H13.4915L13.9436 7.79462C14.0242 7.39305 14.295 7.19205 14.7069 7.19205C15.1389 7.19205 15.4603 7.55376 15.3699 7.98576L14.9683 9.95462H15.9026C16.2437 9.95462 16.4949 10.2156 16.4949 10.5773C16.4949 10.9888 16.2035 11.2905 15.792 11.2905H14.6872L14.235 13.4299H15.1492C15.5006 13.4299 15.7517 13.6913 15.7517 14.0428C15.7517 14.4542 15.4505 14.7559 15.0489 14.7559H13.9539L13.4717 17.0261C13.3912 17.4276 13.1203 17.6389 12.6982 17.6389C12.2662 17.6389 11.9649 17.2669 12.0553 16.8452L12.477 14.7658H10.5185L10.0457 17.0261C9.9656 17.4276 9.70417 17.6389 9.29232 17.6389M10.7087 13.5508H12.828L13.3205 11.1902H11.2012L10.7087 13.5508Z" fill="#084F76"/>
<path d="M8.63017 16.8452L9.04925 16.9351L9.05027 16.93L8.63017 16.8452ZM9.05189 14.7559L9.47199 14.8407L9.57561 14.3273H9.05189V14.7559ZM9.34332 13.4299V13.8585H9.69242L9.76303 13.5166L9.34332 13.4299ZM9.78517 11.2905L10.2049 11.3772L10.3113 10.8619H9.78517V11.2905ZM10.0663 9.95462V10.3832H10.4129L10.4854 10.0443L10.0663 9.95462ZM10.5283 7.79462L10.9474 7.88426L10.9491 7.87641L10.9505 7.86851L10.5283 7.79462ZM11.9349 7.98576L11.5157 7.8964L11.515 7.90003L11.9349 7.98576ZM11.5329 9.95462L11.113 9.86888L11.008 10.3832H11.5329V9.95462ZM13.4915 9.95462V10.3832H13.8396L13.9109 10.0424L13.4915 9.95462ZM13.9436 7.79462L14.3631 7.88243L14.3638 7.87893L13.9436 7.79462ZM15.3699 7.98576L14.9504 7.89795L14.95 7.90011L15.3699 7.98576ZM14.9683 9.95462L14.5484 9.86897L14.4435 10.3832H14.9683V9.95462ZM14.6872 11.2905V10.8619H14.3397L14.2679 11.2019L14.6872 11.2905ZM14.235 13.4299L13.8157 13.3413L13.7064 13.8585H14.235V13.4299ZM13.9539 14.7559V14.3273H13.6068L13.5347 14.6669L13.9539 14.7559ZM13.4717 17.0261L13.0525 16.937L13.0515 16.9417L13.4717 17.0261ZM12.0553 16.8452L12.4744 16.9351L12.4753 16.9304L12.0553 16.8452ZM12.477 14.7658L12.8971 14.8509L13.0012 14.3372H12.477V14.7658ZM10.5185 14.7658V14.3372H10.1702L10.099 14.678L10.5185 14.7658ZM10.0457 17.0261L9.62623 16.9383L9.62546 16.9422L10.0457 17.0261ZM10.7087 13.5508L10.2892 13.4632L10.1815 13.9793H10.7087V13.5508ZM12.828 13.5508V13.9793H13.1764L13.2476 13.6383L12.828 13.5508ZM13.3205 11.1902L13.74 11.2777L13.8477 10.7616H13.3205V11.1902ZM11.2012 11.1902V10.7616H10.8528L10.7816 11.1027L11.2012 11.1902ZM5.90789 22.1749H18.102V21.3178H5.90789V22.1749ZM18.102 22.1749C19.2173 22.1749 20.131 21.8973 20.7633 21.2696C21.3961 20.6414 21.6746 19.7344 21.6746 18.6328H20.8175C20.8175 19.6002 20.5737 20.2501 20.1594 20.6613C19.7446 21.0732 19.0863 21.3178 18.102 21.3178V22.1749ZM21.6746 18.6328V6.36748H20.8175V18.6328H21.6746ZM21.6746 6.36748C21.6746 5.26581 21.3961 4.35885 20.7633 3.73061C20.131 3.10295 19.2173 2.82533 18.102 2.82533V3.68248C19.0863 3.68248 19.7446 3.92708 20.1594 4.33891C20.5737 4.75018 20.8175 5.4 20.8175 6.36748H21.6746ZM18.102 2.82533H5.90789V3.68248H18.102V2.82533ZM5.90789 2.82533C4.79821 2.82533 3.88278 3.10021 3.2468 3.72546C2.6095 4.35201 2.32503 5.25926 2.32503 6.36748H3.18217C3.18217 5.3967 3.4302 4.74716 3.84772 4.33668C4.26657 3.92489 4.92827 3.68248 5.90789 3.68248V2.82533ZM2.32503 6.36748V18.6332H3.18217V6.36748H2.32503ZM2.32503 18.6332C2.32503 19.7414 2.6095 20.6486 3.24683 21.275C3.88282 21.9002 4.79826 22.1749 5.90789 22.1749V21.3178C4.92823 21.3178 4.26652 21.0754 3.84769 20.6637C3.4302 20.2534 3.18217 19.604 3.18217 18.6332H2.32503ZM9.29274 17.2099C9.11419 17.2099 9.02009 17.0709 9.04922 16.9351L8.21113 16.7553C8.0594 17.4629 8.60815 18.067 9.29274 18.067V17.2099ZM9.05027 16.93L9.47199 14.8407L8.63179 14.6711L8.21007 16.7604L9.05027 16.93ZM9.05189 14.3273H8.10774V15.1845H9.05189V14.3273ZM8.10774 14.3273C8.04298 14.3273 8.00889 14.3056 7.98971 14.2854C7.96879 14.2635 7.9436 14.2196 7.9436 14.1431H7.08646C7.08646 14.7119 7.50079 15.1845 8.10774 15.1845V14.3273ZM7.9436 14.1431C7.9436 13.96 8.05138 13.8585 8.21789 13.8585V13.0013C7.56153 13.0013 7.08646 13.5032 7.08646 14.1431H7.9436ZM8.21789 13.8585H9.34332V13.0013H8.21789V13.8585ZM9.76303 13.5166L10.2049 11.3772L9.36546 11.2038L8.9236 13.3432L9.76303 13.5166ZM9.78517 10.8619H8.86117V11.719H9.78517V10.8619ZM8.86117 10.8619C8.79572 10.8619 8.75828 10.8396 8.73641 10.8169C8.71355 10.7932 8.68717 10.7474 8.68717 10.6678H7.83003C7.83003 11.2515 8.25903 11.719 8.86117 11.719V10.8619ZM8.68717 10.6678C8.68717 10.4944 8.80457 10.3832 8.96146 10.3832V9.52605C8.31521 9.52605 7.83003 10.0371 7.83003 10.6678H8.68717ZM8.96146 10.3832H10.0663V9.52605H8.96146V10.3832ZM10.4854 10.0443L10.9474 7.88426L10.1092 7.70498L9.64722 9.86498L10.4854 10.0443ZM10.9505 7.86851C10.9718 7.74671 11.0125 7.69994 11.0393 7.67874C11.0695 7.65478 11.137 7.62062 11.2817 7.62062V6.76348C11.0048 6.76348 10.7307 6.82982 10.5072 7.00675C10.2803 7.18645 10.1551 7.44096 10.1062 7.72073L10.9505 7.86851ZM11.2817 7.62062C11.3783 7.62062 11.4409 7.65904 11.4762 7.70216C11.5115 7.74527 11.5341 7.81039 11.5157 7.8964L12.354 8.07513C12.502 7.3811 11.9909 6.76348 11.2817 6.76348V7.62062ZM11.515 7.90003L11.113 9.86888L11.9528 10.0404L12.3548 8.0715L11.515 7.90003ZM11.5329 10.3832H13.4915V9.52605H11.5329V10.3832ZM13.9109 10.0424L14.3631 7.88243L13.5241 7.70681L13.072 9.86681L13.9109 10.0424ZM14.3638 7.87893C14.3881 7.75788 14.4314 7.70646 14.464 7.68116C14.4994 7.65362 14.5696 7.62062 14.7069 7.62062V6.76348C14.4324 6.76348 14.1611 6.83098 13.9381 7.00433C13.7121 7.17992 13.5797 7.42979 13.5234 7.71031L14.3638 7.87893ZM14.7069 7.62062C14.8011 7.62062 14.8689 7.65886 14.9081 7.70485C14.9453 7.7485 14.9684 7.81193 14.9504 7.89796L15.7894 8.07357C15.9398 7.35474 15.3895 6.76348 14.7069 6.76348V7.62062ZM14.95 7.90011L14.5484 9.86897L15.3882 10.0403L15.7898 8.07141L14.95 7.90011ZM14.9683 10.3832H15.9026V9.52605H14.9683V10.3832ZM15.9026 10.3832C15.9596 10.3832 15.9945 10.4031 16.0166 10.4262C16.0397 10.4504 16.0663 10.4973 16.0663 10.5773H16.9235C16.9235 9.99799 16.4991 9.52605 15.9026 9.52605V10.3832ZM16.0663 10.5773C16.0663 10.7604 15.9585 10.8619 15.792 10.8619V11.719C16.4484 11.719 16.9235 11.2171 16.9235 10.5773H16.0663ZM15.792 10.8619H14.6872V11.719H15.792V10.8619ZM14.2679 11.2019L13.8157 13.3413L14.6543 13.5185L15.1065 11.3791L14.2679 11.2019ZM14.235 13.8585H15.1492V13.0013H14.235V13.8585ZM15.1492 13.8585C15.2148 13.8585 15.2532 13.881 15.2756 13.904C15.2988 13.9278 15.3232 13.9711 15.3232 14.0428H16.1803C16.1803 13.4643 15.7469 13.0013 15.1492 13.0013V13.8585ZM15.3232 14.0428C15.3232 14.2218 15.2095 14.3273 15.0489 14.3273V15.1845C15.6914 15.1845 16.1803 14.6866 16.1803 14.0428H15.3232ZM15.0489 14.3273H13.9539V15.1845H15.0489V14.3273ZM13.5347 14.6669L13.0525 16.937L13.891 17.1151L14.3731 14.8449L13.5347 14.6669ZM13.0515 16.9417C13.027 17.0639 12.9828 17.1188 12.9476 17.1466C12.9104 17.176 12.8382 17.2103 12.6982 17.2103V18.0675C12.9803 18.0675 13.2546 17.9962 13.4785 17.8195C13.7044 17.6413 13.8359 17.3897 13.8919 17.1104L13.0515 16.9417ZM12.6982 17.2103C12.5382 17.2103 12.4413 17.0891 12.4744 16.9351L11.6363 16.7553C11.4884 17.4447 11.9942 18.0675 12.6982 18.0675V17.2103ZM12.4753 16.9304L12.8971 14.8509L12.057 14.6806L11.6353 16.76L12.4753 16.9304ZM12.477 14.3372H10.5185V15.1943H12.477V14.3372ZM10.099 14.678L9.62625 16.9383L10.4652 17.1138L10.938 14.8535L10.099 14.678ZM9.62546 16.9422C9.60025 17.0685 9.55591 17.1239 9.52325 17.1504C9.49007 17.1773 9.42471 17.2103 9.29232 17.2103V18.0675C9.57178 18.0675 9.84306 17.9948 10.0636 17.8158C10.2846 17.6362 10.4111 17.3852 10.466 17.1099L9.62546 16.9422ZM10.7087 13.9793H12.828V13.1222H10.7087V13.9793ZM13.2476 13.6383L13.74 11.2777L12.9009 11.1027L12.4085 13.4632L13.2476 13.6383ZM13.3205 10.7616H11.2012V11.6188H13.3205V10.7616ZM10.7816 11.1027L10.2892 13.4632L11.1283 13.6383L11.6207 11.2777L10.7816 11.1027Z" fill="#084F76" mask="url(#path-1-inside-1_2026_4384)"/>
</svg>
