<svg width="24" height="25" viewBox="0 0 24 25" fill="none" xmlns="http://www.w3.org/2000/svg">
<mask id="path-1-inside-1_3996_7147" fill="white">
<path d="M5.90783 21.7463H18.102C20.2015 21.7463 21.246 20.7019 21.246 18.6328V6.36748C21.246 4.29833 20.2015 3.25391 18.102 3.25391H5.90783C3.81854 3.25391 2.75354 4.28848 2.75354 6.36748V18.6332C2.75354 20.7122 3.81854 21.7463 5.90783 21.7463ZM9.29268 17.6385C8.86111 17.6385 8.53968 17.2669 8.63011 16.8452L9.05183 14.7559H8.10768C7.75625 14.7559 7.51497 14.4945 7.51497 14.1431C7.51497 13.7316 7.8064 13.4299 8.21783 13.4299H9.34325L9.78511 11.2905H8.86111C8.50968 11.2905 8.25854 11.029 8.25854 10.6678C8.25854 10.2658 8.55983 9.95462 8.9614 9.95462H10.0663L10.5283 7.79462C10.5985 7.39305 10.86 7.19205 11.2817 7.19205C11.7235 7.19205 12.0248 7.56362 11.9348 7.98576L11.5328 9.95462H13.4914L13.9435 7.79462C14.0241 7.39305 14.295 7.19205 14.7068 7.19205C15.1388 7.19205 15.4603 7.55376 15.3698 7.98576L14.9683 9.95462H15.9025C16.2437 9.95462 16.4948 10.2156 16.4948 10.5773C16.4948 10.9888 16.2034 11.2905 15.792 11.2905H14.6871L14.235 13.4299H15.1491C15.5005 13.4299 15.7517 13.6913 15.7517 14.0428C15.7517 14.4542 15.4504 14.7559 15.0488 14.7559H13.9538L13.4717 17.0261C13.3911 17.4276 13.1203 17.6389 12.6981 17.6389C12.2661 17.6389 11.9648 17.2669 12.0553 16.8452L12.477 14.7658H10.5184L10.0457 17.0261C9.96554 17.4276 9.70411 17.6389 9.29225 17.6389M10.7087 13.5508H12.828L13.3204 11.1902H11.2011L10.7087 13.5508Z"/>
</mask>
<path d="M5.90783 21.7463H18.102C20.2015 21.7463 21.246 20.7019 21.246 18.6328V6.36748C21.246 4.29833 20.2015 3.25391 18.102 3.25391H5.90783C3.81854 3.25391 2.75354 4.28848 2.75354 6.36748V18.6332C2.75354 20.7122 3.81854 21.7463 5.90783 21.7463ZM9.29268 17.6385C8.86111 17.6385 8.53968 17.2669 8.63011 16.8452L9.05183 14.7559H8.10768C7.75625 14.7559 7.51497 14.4945 7.51497 14.1431C7.51497 13.7316 7.8064 13.4299 8.21783 13.4299H9.34325L9.78511 11.2905H8.86111C8.50968 11.2905 8.25854 11.029 8.25854 10.6678C8.25854 10.2658 8.55983 9.95462 8.9614 9.95462H10.0663L10.5283 7.79462C10.5985 7.39305 10.86 7.19205 11.2817 7.19205C11.7235 7.19205 12.0248 7.56362 11.9348 7.98576L11.5328 9.95462H13.4914L13.9435 7.79462C14.0241 7.39305 14.295 7.19205 14.7068 7.19205C15.1388 7.19205 15.4603 7.55376 15.3698 7.98576L14.9683 9.95462H15.9025C16.2437 9.95462 16.4948 10.2156 16.4948 10.5773C16.4948 10.9888 16.2034 11.2905 15.792 11.2905H14.6871L14.235 13.4299H15.1491C15.5005 13.4299 15.7517 13.6913 15.7517 14.0428C15.7517 14.4542 15.4504 14.7559 15.0488 14.7559H13.9538L13.4717 17.0261C13.3911 17.4276 13.1203 17.6389 12.6981 17.6389C12.2661 17.6389 11.9648 17.2669 12.0553 16.8452L12.477 14.7658H10.5184L10.0457 17.0261C9.96554 17.4276 9.70411 17.6389 9.29225 17.6389M10.7087 13.5508H12.828L13.3204 11.1902H11.2011L10.7087 13.5508Z" fill="#3385FF"/>
<path d="M8.63011 16.8452L9.04919 16.9351L9.05021 16.93L8.63011 16.8452ZM9.05183 14.7559L9.47192 14.8407L9.57555 14.3273H9.05183V14.7559ZM9.34325 13.4299V13.8585H9.69236L9.76297 13.5166L9.34325 13.4299ZM9.78511 11.2905L10.2048 11.3772L10.3112 10.8619H9.78511V11.2905ZM10.0663 9.95462V10.3832H10.4129L10.4853 10.0443L10.0663 9.95462ZM10.5283 7.79462L10.9473 7.88426L10.949 7.87641L10.9504 7.86851L10.5283 7.79462ZM11.9348 7.98576L11.5157 7.8964L11.5149 7.90003L11.9348 7.98576ZM11.5328 9.95462L11.1129 9.86888L11.0079 10.3832H11.5328V9.95462ZM13.4914 9.95462V10.3832H13.8395L13.9109 10.0424L13.4914 9.95462ZM13.9435 7.79462L14.363 7.88243L14.3637 7.87893L13.9435 7.79462ZM15.3698 7.98576L14.9503 7.89795L14.9499 7.90011L15.3698 7.98576ZM14.9683 9.95462L14.5483 9.86897L14.4434 10.3832H14.9683V9.95462ZM14.6871 11.2905V10.8619H14.3396L14.2678 11.2019L14.6871 11.2905ZM14.235 13.4299L13.8157 13.3413L13.7064 13.8585H14.235V13.4299ZM13.9538 14.7559V14.3273H13.6067L13.5346 14.6669L13.9538 14.7559ZM13.4717 17.0261L13.0524 16.937L13.0515 16.9417L13.4717 17.0261ZM12.0553 16.8452L12.4743 16.9351L12.4753 16.9304L12.0553 16.8452ZM12.477 14.7658L12.897 14.8509L13.0012 14.3372H12.477V14.7658ZM10.5184 14.7658V14.3372H10.1702L10.0989 14.678L10.5184 14.7658ZM10.0457 17.0261L9.62617 16.9383L9.6254 16.9422L10.0457 17.0261ZM10.7087 13.5508L10.2891 13.4632L10.1815 13.9793H10.7087V13.5508ZM12.828 13.5508V13.9793H13.1764L13.2475 13.6383L12.828 13.5508ZM13.3204 11.1902L13.7399 11.2777L13.8476 10.7616H13.3204V11.1902ZM11.2011 11.1902V10.7616H10.8527L10.7816 11.1027L11.2011 11.1902ZM5.90783 22.1749H18.102V21.3178H5.90783V22.1749ZM18.102 22.1749C19.2173 22.1749 20.131 21.8973 20.7632 21.2696C21.3961 20.6414 21.6745 19.7344 21.6745 18.6328H20.8174C20.8174 19.6002 20.5736 20.2501 20.1594 20.6613C19.7445 21.0732 19.0862 21.3178 18.102 21.3178V22.1749ZM21.6745 18.6328V6.36748H20.8174V18.6328H21.6745ZM21.6745 6.36748C21.6745 5.26581 21.3961 4.35885 20.7632 3.73061C20.131 3.10295 19.2173 2.82533 18.102 2.82533V3.68248C19.0862 3.68248 19.7445 3.92708 20.1594 4.33891C20.5736 4.75018 20.8174 5.4 20.8174 6.36748H21.6745ZM18.102 2.82533H5.90783V3.68248H18.102V2.82533ZM5.90783 2.82533C4.79815 2.82533 3.88271 3.10021 3.24674 3.72546C2.60944 4.35201 2.32497 5.25926 2.32497 6.36748H3.18211C3.18211 5.3967 3.43014 4.74716 3.84766 4.33668C4.26651 3.92489 4.92821 3.68248 5.90783 3.68248V2.82533ZM2.32497 6.36748V18.6332H3.18211V6.36748H2.32497ZM2.32497 18.6332C2.32497 19.7414 2.60944 20.6486 3.24677 21.275C3.88276 21.9002 4.7982 22.1749 5.90783 22.1749V21.3178C4.92817 21.3178 4.26646 21.0754 3.84763 20.6637C3.43014 20.2534 3.18211 19.604 3.18211 18.6332H2.32497ZM9.29268 17.2099C9.11413 17.2099 9.02003 17.0709 9.04916 16.9351L8.21107 16.7553C8.05934 17.4629 8.60809 18.067 9.29268 18.067V17.2099ZM9.05021 16.93L9.47192 14.8407L8.63173 14.6711L8.21001 16.7604L9.05021 16.93ZM9.05183 14.3273H8.10768V15.1845H9.05183V14.3273ZM8.10768 14.3273C8.04292 14.3273 8.00882 14.3056 7.98965 14.2854C7.96873 14.2635 7.94354 14.2196 7.94354 14.1431H7.0864C7.0864 14.7119 7.50073 15.1845 8.10768 15.1845V14.3273ZM7.94354 14.1431C7.94354 13.96 8.05132 13.8585 8.21783 13.8585V13.0013C7.56147 13.0013 7.0864 13.5032 7.0864 14.1431H7.94354ZM8.21783 13.8585H9.34325V13.0013H8.21783V13.8585ZM9.76297 13.5166L10.2048 11.3772L9.3654 11.2038L8.92354 13.3432L9.76297 13.5166ZM9.78511 10.8619H8.86111V11.719H9.78511V10.8619ZM8.86111 10.8619C8.79566 10.8619 8.75822 10.8396 8.73634 10.8169C8.71348 10.7932 8.68711 10.7474 8.68711 10.6678H7.82997C7.82997 11.2515 8.25897 11.719 8.86111 11.719V10.8619ZM8.68711 10.6678C8.68711 10.4944 8.8045 10.3832 8.9614 10.3832V9.52605C8.31515 9.52605 7.82997 10.0371 7.82997 10.6678H8.68711ZM8.9614 10.3832H10.0663V9.52605H8.9614V10.3832ZM10.4853 10.0443L10.9473 7.88426L10.1092 7.70498L9.64716 9.86498L10.4853 10.0443ZM10.9504 7.86851C10.9717 7.74671 11.0125 7.69994 11.0392 7.67874C11.0695 7.65478 11.1369 7.62062 11.2817 7.62062V6.76348C11.0048 6.76348 10.7306 6.82982 10.5071 7.00675C10.2802 7.18645 10.1551 7.44096 10.1061 7.72073L10.9504 7.86851ZM11.2817 7.62062C11.3783 7.62062 11.4408 7.65904 11.4761 7.70216C11.5114 7.74527 11.534 7.81039 11.5157 7.8964L12.354 8.07513C12.5019 7.3811 11.9909 6.76348 11.2817 6.76348V7.62062ZM11.5149 7.90003L11.1129 9.86888L11.9527 10.0404L12.3547 8.0715L11.5149 7.90003ZM11.5328 10.3832H13.4914V9.52605H11.5328V10.3832ZM13.9109 10.0424L14.363 7.88243L13.5241 7.70681L13.0719 9.86681L13.9109 10.0424ZM14.3637 7.87893C14.388 7.75788 14.4314 7.70646 14.4639 7.68116C14.4994 7.65362 14.5695 7.62062 14.7068 7.62062V6.76348C14.4323 6.76348 14.1611 6.83098 13.938 7.00433C13.712 7.17992 13.5796 7.42979 13.5233 7.71031L14.3637 7.87893ZM14.7068 7.62062C14.8011 7.62062 14.8688 7.65886 14.908 7.70485C14.9452 7.7485 14.9684 7.81193 14.9503 7.89796L15.7893 8.07357C15.9398 7.35474 15.3894 6.76348 14.7068 6.76348V7.62062ZM14.9499 7.90011L14.5483 9.86897L15.3882 10.0403L15.7898 8.07141L14.9499 7.90011ZM14.9683 10.3832H15.9025V9.52605H14.9683V10.3832ZM15.9025 10.3832C15.9596 10.3832 15.9945 10.4031 16.0166 10.4262C16.0397 10.4504 16.0663 10.4973 16.0663 10.5773H16.9234C16.9234 9.99799 16.499 9.52605 15.9025 9.52605V10.3832ZM16.0663 10.5773C16.0663 10.7604 15.9585 10.8619 15.792 10.8619V11.719C16.4483 11.719 16.9234 11.2171 16.9234 10.5773H16.0663ZM15.792 10.8619H14.6871V11.719H15.792V10.8619ZM14.2678 11.2019L13.8157 13.3413L14.6543 13.5185L15.1064 11.3791L14.2678 11.2019ZM14.235 13.8585H15.1491V13.0013H14.235V13.8585ZM15.1491 13.8585C15.2148 13.8585 15.2532 13.881 15.2756 13.904C15.2988 13.9278 15.3231 13.9711 15.3231 14.0428H16.1803C16.1803 13.4643 15.7468 13.0013 15.1491 13.0013V13.8585ZM15.3231 14.0428C15.3231 14.2218 15.2094 14.3273 15.0488 14.3273V15.1845C15.6914 15.1845 16.1803 14.6866 16.1803 14.0428H15.3231ZM15.0488 14.3273H13.9538V15.1845H15.0488V14.3273ZM13.5346 14.6669L13.0525 16.937L13.8909 17.1151L14.373 14.8449L13.5346 14.6669ZM13.0515 16.9417C13.027 17.0639 12.9827 17.1188 12.9475 17.1466C12.9103 17.176 12.8382 17.2103 12.6981 17.2103V18.0675C12.9802 18.0675 13.2546 17.9962 13.4785 17.8195C13.7043 17.6413 13.8358 17.3897 13.8919 17.1104L13.0515 16.9417ZM12.6981 17.2103C12.5381 17.2103 12.4413 17.0891 12.4743 16.9351L11.6362 16.7553C11.4884 17.4447 11.9941 18.0675 12.6981 18.0675V17.2103ZM12.4753 16.9304L12.897 14.8509L12.0569 14.6806L11.6352 16.76L12.4753 16.9304ZM12.477 14.3372H10.5184V15.1943H12.477V14.3372ZM10.0989 14.678L9.62619 16.9383L10.4652 17.1138L10.9379 14.8535L10.0989 14.678ZM9.6254 16.9422C9.60019 17.0685 9.55585 17.1239 9.52319 17.1504C9.49001 17.1773 9.42465 17.2103 9.29225 17.2103V18.0675C9.57172 18.0675 9.843 17.9948 10.0635 17.8158C10.2846 17.6362 10.411 17.3852 10.466 17.1099L9.6254 16.9422ZM10.7087 13.9793H12.828V13.1222H10.7087V13.9793ZM13.2475 13.6383L13.7399 11.2777L12.9009 11.1027L12.4084 13.4632L13.2475 13.6383ZM13.3204 10.7616H11.2011V11.6188H13.3204V10.7616ZM10.7816 11.1027L10.2891 13.4632L11.1282 13.6383L11.6207 11.2777L10.7816 11.1027Z" fill="#3385FF" mask="url(#path-1-inside-1_3996_7147)"/>
</svg>
