<svg width="168" height="36" viewBox="0 0 168 36" fill="none" xmlns="http://www.w3.org/2000/svg">
<path fill-rule="evenodd" clip-rule="evenodd" d="M29.0219 17.5787V17.4257V11.7657C29.0219 5.29455 23.7354 0 17.2732 0H11.7488C6.55826 0 2.12671 3.41622 0.583475 8.11395C1.46948 4.86625 3.31259 2.18508 5.99179 0H0.000366211V11.7657V11.9286V17.5787C0.000366211 24.0499 5.28692 29.3444 11.7491 29.3444H17.2735C22.483 29.3444 26.9274 25.9036 28.4555 21.1797C27.5755 24.4547 25.7264 27.1556 23.0309 29.3543H29.0223V17.5787H29.0219ZM22.3782 14.6722C22.3782 10.321 18.8557 6.79343 14.5108 6.79343C10.1654 6.79343 6.64334 10.321 6.64334 14.6722C6.64334 19.0238 10.1658 22.551 14.5108 22.551C18.8561 22.551 22.3782 19.0234 22.3782 14.6722Z" fill="#0066CC"/>
<path d="M43.7172 5.58047H48.1242L57.9898 29.3459H53.6165H53.2436C52.4752 28.0784 51.441 27.0711 50.1416 26.3243C48.8419 25.5775 47.4239 25.2038 45.887 25.2038C44.3502 25.2038 42.9318 25.5772 41.6325 26.3243C40.3328 27.0711 39.2989 28.0784 38.5305 29.3459H38.1917H33.8184C33.9314 29.0066 34.0895 28.6442 34.2929 28.2595L43.7176 5.58047H43.7172ZM45.8867 20.9601C47.4689 20.9601 49.0057 21.243 50.4975 21.8087L45.9207 10.7747L41.3439 21.8087C42.8131 21.243 44.3272 20.9601 45.8867 20.9601Z" fill="#0066CC"/>
<path d="M75.1102 11.3859V11.42V29.3456H71.0757V28.1913C69.7197 29.0286 68.2505 29.4474 66.6684 29.4474C65.1316 29.4474 63.7131 29.0684 62.4138 28.3102C61.1141 27.5521 60.0859 26.522 59.3288 25.2208C58.5718 23.9192 58.1932 22.4991 58.1932 20.9601V11.3863H62.2277V20.9601C62.2277 22.2049 62.6626 23.2573 63.5331 24.1173C64.4032 24.9773 65.4484 25.4075 66.6691 25.4075C67.8898 25.4075 68.9293 24.9777 69.7881 24.1173C70.6469 23.2573 71.0765 22.2049 71.0765 20.9601V11.3863H75.111L75.1102 11.3859Z" fill="#0066CC"/>
<path d="M85.9923 25.2716H86.9078V29.3119H85.9923C84.0486 29.3119 82.3873 28.6215 81.009 27.2408C79.6302 25.86 78.9409 24.2078 78.9409 22.284V15.3921H77.2797V11.3859H78.9409V7.71936L82.9754 10.3335V11.3859H86.603V15.3921H82.9754V22.284C82.9754 23.099 83.2692 23.8003 83.8568 24.3888C84.4445 24.9773 85.1565 25.2716 85.9926 25.2716H85.9923Z" fill="#0066CC"/>
<path d="M90.7724 13.7963C92.5803 11.9858 94.7672 11.0803 97.3322 11.0803C99.8972 11.0803 102.084 11.9858 103.892 13.7963C105.7 15.6068 106.604 17.7912 106.604 20.3489C106.604 22.9066 105.7 25.0962 103.892 26.9185C102.084 28.7404 99.8976 29.6516 97.3322 29.6516C94.7672 29.6516 92.5803 28.7404 90.7724 26.9185C88.9645 25.0966 88.0603 22.9066 88.0603 20.3489C88.0603 17.7912 88.9645 15.6072 90.7724 13.7963ZM93.6369 24.0665C94.6655 25.0962 95.8971 25.6112 97.3322 25.6112C98.7673 25.6112 99.9993 25.0962 101.027 24.0665C102.056 23.0365 102.57 21.7974 102.57 20.3489C102.57 18.9004 102.056 17.667 101.027 16.6483C99.9993 15.6299 98.7673 15.1206 97.3322 15.1206C95.8971 15.1206 94.6655 15.6299 93.6369 16.6483C92.6087 17.667 92.0944 18.9004 92.0944 20.3489C92.0944 21.7974 92.6083 23.0365 93.6369 24.0665Z" fill="#0066CC"/>
<path d="M118.165 11.0803C119.86 11.0803 121.419 11.4934 122.843 12.3194C124.267 13.1453 125.391 14.2715 126.216 15.6973C127.041 17.1231 127.453 18.6735 127.453 20.3485C127.453 22.9062 126.549 25.0958 124.741 26.9181C122.933 28.74 120.741 29.6512 118.164 29.6512C115.882 29.6512 113.87 28.893 112.13 27.3767L108.909 29.3459V8.1609L112.944 5.58084V12.7106C114.526 11.6241 116.266 11.0806 118.165 11.0806V11.0803ZM114.486 24.0665C115.514 25.0962 116.746 25.6112 118.182 25.6112C119.617 25.6112 120.849 25.0962 121.877 24.0665C122.905 23.0365 123.419 21.7974 123.419 20.3489C123.419 18.9003 122.905 17.6669 121.877 16.6482C120.849 15.6299 119.617 15.1206 118.182 15.1206C116.746 15.1206 115.515 15.6299 114.486 16.6482C113.458 17.6669 112.944 18.9003 112.944 20.3489C112.944 21.7974 113.458 23.0365 114.486 24.0665Z" fill="#E6583D"/>
<path d="M146.303 11.3859V11.42V29.3456H142.269V28.1913C140.913 29.0286 139.444 29.4474 137.861 29.4474C136.325 29.4474 134.906 29.0684 133.607 28.3102C132.307 27.5521 131.279 26.522 130.522 25.2208C129.765 23.9192 129.386 22.4991 129.386 20.9601V11.3863H133.421V20.9601C133.421 22.2049 133.856 23.2573 134.726 24.1173C135.596 24.9773 136.641 25.4075 137.862 25.4075C139.083 25.4075 140.122 24.9777 140.981 24.1173C141.84 23.2573 142.269 22.2049 142.269 20.9601V11.3863H146.304L146.303 11.3859Z" fill="#E6583D"/>
<path d="M163.593 11.3859H168L163.999 20.4167L162.203 24.4566L157.083 36H152.676L157.795 24.4566H153.727L151.93 20.4167L147.93 11.3859H152.337L156.338 20.4167H159.592L163.593 11.3859Z" fill="#E6583D"/>
</svg>
